G04 #@! TF.GenerationSoftware,KiCad,Pcbnew,(6.0.7)*
G04 #@! TF.CreationDate,2023-02-05T15:19:57+01:00*
G04 #@! TF.ProjectId,heart,68656172-742e-46b6-9963-61645f706362,v1.0.0*
G04 #@! TF.SameCoordinates,Original*
G04 #@! TF.FileFunction,Copper,L1,Top*
G04 #@! TF.FilePolarity,Positive*
%FSLAX46Y46*%
G04 Gerber Fmt 4.6, Leading zero omitted, Abs format (unit mm)*
G04 Created by KiCad (PCBNEW (6.0.7)) date 2023-02-05 15:19:57*
%MOMM*%
%LPD*%
G01*
G04 APERTURE LIST*
G04 Aperture macros list*
%AMRoundRect*
0 Rectangle with rounded corners*
0 $1 Rounding radius*
0 $2 $3 $4 $5 $6 $7 $8 $9 X,Y pos of 4 corners*
0 Add a 4 corners polygon primitive as box body*
4,1,4,$2,$3,$4,$5,$6,$7,$8,$9,$2,$3,0*
0 Add four circle primitives for the rounded corners*
1,1,$1+$1,$2,$3*
1,1,$1+$1,$4,$5*
1,1,$1+$1,$6,$7*
1,1,$1+$1,$8,$9*
0 Add four rect primitives between the rounded corners*
20,1,$1+$1,$2,$3,$4,$5,0*
20,1,$1+$1,$4,$5,$6,$7,0*
20,1,$1+$1,$6,$7,$8,$9,0*
20,1,$1+$1,$8,$9,$2,$3,0*%
%AMRotRect*
0 Rectangle, with rotation*
0 The origin of the aperture is its center*
0 $1 length*
0 $2 width*
0 $3 Rotation angle, in degrees counterclockwise*
0 Add horizontal line*
21,1,$1,$2,0,0,$3*%
G04 Aperture macros list end*
G04 #@! TA.AperFunction,SMDPad,CuDef*
%ADD10RoundRect,0.076500X-0.508500X0.178500X-0.508500X-0.178500X0.508500X-0.178500X0.508500X0.178500X0*%
G04 #@! TD*
G04 #@! TA.AperFunction,SMDPad,CuDef*
%ADD11R,1.000000X0.750000*%
G04 #@! TD*
G04 #@! TA.AperFunction,SMDPad,CuDef*
%ADD12R,1.800000X2.500000*%
G04 #@! TD*
G04 #@! TA.AperFunction,SMDPad,CuDef*
%ADD13RoundRect,0.237500X-0.237500X0.300000X-0.237500X-0.300000X0.237500X-0.300000X0.237500X0.300000X0*%
G04 #@! TD*
G04 #@! TA.AperFunction,SMDPad,CuDef*
%ADD14R,1.400000X2.400000*%
G04 #@! TD*
G04 #@! TA.AperFunction,SMDPad,CuDef*
%ADD15RotRect,0.700000X0.700000X315.000000*%
G04 #@! TD*
G04 #@! TA.AperFunction,SMDPad,CuDef*
%ADD16RotRect,0.700000X0.700000X135.000000*%
G04 #@! TD*
G04 #@! TA.AperFunction,SMDPad,CuDef*
%ADD17RotRect,0.700000X0.700000X45.000000*%
G04 #@! TD*
G04 #@! TA.AperFunction,SMDPad,CuDef*
%ADD18RotRect,0.700000X0.700000X225.000000*%
G04 #@! TD*
G04 #@! TA.AperFunction,SMDPad,CuDef*
%ADD19R,1.700000X0.650000*%
G04 #@! TD*
G04 #@! TA.AperFunction,SMDPad,CuDef*
%ADD20R,0.700000X0.700000*%
G04 #@! TD*
G04 #@! TA.AperFunction,SMDPad,CuDef*
%ADD21RoundRect,0.237500X-0.237500X0.250000X-0.237500X-0.250000X0.237500X-0.250000X0.237500X0.250000X0*%
G04 #@! TD*
G04 #@! TA.AperFunction,ComponentPad*
%ADD22R,1.700000X1.700000*%
G04 #@! TD*
G04 #@! TA.AperFunction,ComponentPad*
%ADD23O,1.700000X1.700000*%
G04 #@! TD*
G04 #@! TA.AperFunction,ViaPad*
%ADD24C,0.800000*%
G04 #@! TD*
G04 #@! TA.AperFunction,Conductor*
%ADD25C,0.450000*%
G04 #@! TD*
G04 #@! TA.AperFunction,Conductor*
%ADD26C,0.250000*%
G04 #@! TD*
G04 APERTURE END LIST*
D10*
X137050000Y-81650000D03*
X139550000Y-83550000D03*
X137050000Y-82600000D03*
X137050000Y-83550000D03*
X139550000Y-81650000D03*
D11*
X114070000Y-83805000D03*
X120070000Y-83805000D03*
X114070000Y-87555000D03*
X120070000Y-87555000D03*
D12*
X133800000Y-82600000D03*
X133800000Y-78600000D03*
D13*
X133900000Y-85237500D03*
X133900000Y-86962500D03*
D14*
X140100000Y-78500000D03*
X136900000Y-78500000D03*
D15*
X134401348Y-68568433D03*
X133623531Y-69346250D03*
D16*
X134917536Y-70640255D03*
X135695353Y-69862438D03*
D15*
X121986570Y-99972941D03*
X121208753Y-100750758D03*
D16*
X122502758Y-102044763D03*
X123280575Y-101266946D03*
X144818148Y-72334839D03*
X145595965Y-71557022D03*
D15*
X144301960Y-70263017D03*
X143524143Y-71040834D03*
D17*
X133858512Y-97377859D03*
X134636329Y-98155676D03*
D18*
X135930334Y-96861671D03*
X135152517Y-96083854D03*
D13*
X122640000Y-95257500D03*
X122640000Y-96982500D03*
D17*
X129718753Y-101266946D03*
X130496570Y-102044763D03*
D18*
X131790575Y-100750758D03*
X131012758Y-99972941D03*
D19*
X131050000Y-93105000D03*
X131050000Y-91835000D03*
X131050000Y-90565000D03*
X131050000Y-89295000D03*
X123750000Y-89295000D03*
X123750000Y-90565000D03*
X123750000Y-91835000D03*
X123750000Y-93105000D03*
D16*
X148447141Y-81820787D03*
X149224958Y-81042970D03*
D15*
X147930953Y-79748965D03*
X147153136Y-80526782D03*
D17*
X145525773Y-85710598D03*
X146303590Y-86488415D03*
D18*
X147597595Y-85194410D03*
X146819778Y-84416593D03*
D15*
X118097483Y-96083854D03*
X117319666Y-96861671D03*
D16*
X118613671Y-98155676D03*
X119391488Y-97377859D03*
X140148348Y-70457591D03*
X140926165Y-69679774D03*
D15*
X139632160Y-68385769D03*
X138854343Y-69163586D03*
D13*
X141380000Y-71877500D03*
X141380000Y-73602500D03*
D15*
X130216628Y-70878523D03*
X129438811Y-71656340D03*
D16*
X130732816Y-72950345D03*
X131510633Y-72172528D03*
D13*
X115570000Y-71527500D03*
X115570000Y-73252500D03*
D18*
X123561479Y-71655105D03*
X122783662Y-70877288D03*
D17*
X121489657Y-72171293D03*
X122267474Y-72949110D03*
X137747599Y-93488772D03*
X138525416Y-94266589D03*
D18*
X139819421Y-92972584D03*
X139041604Y-92194767D03*
D17*
X141636686Y-89599685D03*
X142414503Y-90377502D03*
D18*
X143708508Y-89083497D03*
X142930691Y-88305680D03*
D16*
X147721434Y-76590897D03*
X148499251Y-75813080D03*
D15*
X147205246Y-74519075D03*
X146427429Y-75296892D03*
D13*
X139500000Y-85237500D03*
X139500000Y-86962500D03*
D18*
X119376425Y-69346362D03*
X118598608Y-68568545D03*
D17*
X117304603Y-69862550D03*
X118082420Y-70640367D03*
D15*
X110319309Y-88305680D03*
X109541492Y-89083497D03*
D16*
X110835497Y-90377502D03*
X111613314Y-89599685D03*
D15*
X104549111Y-79748284D03*
X103771294Y-80526101D03*
D16*
X105065299Y-81820106D03*
X105843116Y-81042289D03*
D20*
X125950000Y-104828522D03*
X127050000Y-104828522D03*
X127050000Y-102998522D03*
X125950000Y-102998522D03*
D21*
X137100000Y-85187500D03*
X137100000Y-87012500D03*
X135500000Y-85187500D03*
X135500000Y-87012500D03*
D22*
X125100000Y-86300000D03*
D23*
X125100000Y-83760000D03*
X127640000Y-86300000D03*
X127640000Y-83760000D03*
X130180000Y-86300000D03*
X130180000Y-83760000D03*
D15*
X106430222Y-84416593D03*
X105652405Y-85194410D03*
D16*
X106946410Y-86488415D03*
X107724227Y-85710598D03*
D18*
X114145452Y-69160583D03*
X113367635Y-68382766D03*
D17*
X112073630Y-69676771D03*
X112851447Y-70454588D03*
D15*
X105278468Y-74519213D03*
X104500651Y-75297030D03*
D16*
X105794656Y-76591035D03*
X106572473Y-75813218D03*
D15*
X114208396Y-92194767D03*
X113430579Y-92972584D03*
D16*
X114724584Y-94266589D03*
X115502401Y-93488772D03*
D20*
X127050000Y-73285000D03*
X125950000Y-73285000D03*
X125950000Y-75115000D03*
X127050000Y-75115000D03*
D18*
X109477143Y-71041694D03*
X108699326Y-70263877D03*
D17*
X107405321Y-71557882D03*
X108183138Y-72335699D03*
D24*
X138400000Y-86200000D03*
X121810000Y-93060000D03*
X128270000Y-72390000D03*
X137040000Y-72200000D03*
X135820000Y-90700000D03*
X116760000Y-78140000D03*
X129450000Y-79640000D03*
X124460000Y-72390000D03*
X118590000Y-72810000D03*
X147210000Y-72370000D03*
X103690000Y-76840000D03*
X149760000Y-78500000D03*
X121060000Y-96880000D03*
X115940000Y-67890000D03*
X142240000Y-68580000D03*
X132080000Y-69850000D03*
X117760000Y-89770000D03*
X111180000Y-68530000D03*
D25*
X138537500Y-86200000D02*
X138400000Y-86200000D01*
X139550000Y-85187500D02*
X138537500Y-86200000D01*
X139550000Y-83550000D02*
X139550000Y-85187500D01*
X135500000Y-85187500D02*
X133950000Y-85187500D01*
X133800000Y-85137500D02*
X133800000Y-82600000D01*
D26*
X137100000Y-85412500D02*
X135500000Y-87012500D01*
X137050000Y-83550000D02*
X137050000Y-85137500D01*
D25*
X137050000Y-81650000D02*
X137050000Y-78650000D01*
X140100000Y-81100000D02*
X139550000Y-81650000D01*
X133800000Y-78600000D02*
X136800000Y-78600000D01*
X140100000Y-78500000D02*
X140100000Y-81100000D01*
X127560000Y-81300000D02*
X125100000Y-83760000D01*
X132500000Y-81300000D02*
X127560000Y-81300000D01*
X133800000Y-82600000D02*
X132500000Y-81300000D01*
X139550000Y-81650000D02*
X139550000Y-83550000D01*
D26*
X132764889Y-89092001D02*
X130180000Y-86507112D01*
X131575000Y-93105000D02*
X132764889Y-91915111D01*
X132764889Y-91915111D02*
X132764889Y-89092001D01*
X120070000Y-83805000D02*
X122350000Y-83805000D01*
X122350000Y-83805000D02*
X124845000Y-86300000D01*
X122575000Y-89915000D02*
X123225000Y-90565000D01*
X114070000Y-83805000D02*
X120070000Y-83805000D01*
X122575000Y-88575000D02*
X122575000Y-89915000D01*
X124850000Y-86300000D02*
X122575000Y-88575000D01*
D25*
X143524143Y-71040834D02*
X143524143Y-72424143D01*
X131317059Y-99972941D02*
X131012758Y-99972941D01*
X120105476Y-95257500D02*
X119391488Y-95971488D01*
X134752472Y-72172528D02*
X135890000Y-71035000D01*
X141380000Y-71877500D02*
X142216666Y-71040834D01*
X114930355Y-70887855D02*
X115570000Y-71527500D01*
X108183138Y-72335699D02*
X106572473Y-73946364D01*
X127050000Y-75115000D02*
X127050000Y-75915000D01*
X122640000Y-95257500D02*
X120105476Y-95257500D01*
X111613314Y-88243314D02*
X111613314Y-89599685D01*
X122267474Y-72949110D02*
X122019986Y-73196598D01*
X126440000Y-76525000D02*
X125075000Y-76525000D01*
X141380000Y-71877500D02*
X140027500Y-71877500D01*
X116209645Y-70887855D02*
X115570000Y-71527500D01*
X138155491Y-69862438D02*
X138854343Y-69163586D01*
X105843116Y-81042289D02*
X107470000Y-82669173D01*
X146819778Y-84416593D02*
X147200000Y-84036371D01*
X146960000Y-80333646D02*
X146960000Y-78030000D01*
X109243629Y-87230000D02*
X110600000Y-87230000D01*
X123280575Y-99980575D02*
X123280575Y-101266946D01*
X139041604Y-92194767D02*
X140200000Y-91036371D01*
X146960000Y-78030000D02*
X146427429Y-77497429D01*
X122267474Y-73717474D02*
X125075000Y-76525000D01*
X140200000Y-89790000D02*
X141684320Y-88305680D01*
X133846146Y-96083854D02*
X132680000Y-97250000D01*
X107470000Y-82669173D02*
X107470000Y-85456371D01*
X106819961Y-76060706D02*
X106819961Y-77190039D01*
X117053629Y-95040000D02*
X118460000Y-95040000D01*
X145543407Y-84416593D02*
X146819778Y-84416593D01*
X119391488Y-97377859D02*
X120953629Y-98940000D01*
X136270000Y-94966371D02*
X136270000Y-93660000D01*
X127050000Y-75115000D02*
X129760000Y-75115000D01*
X137735233Y-92194767D02*
X139041604Y-92194767D01*
X122267474Y-72949110D02*
X122267474Y-73717474D01*
X125012151Y-102998522D02*
X125950000Y-102998522D01*
X108183138Y-72335699D02*
X109754637Y-72335699D01*
X109754637Y-72335699D02*
X110970336Y-71120000D01*
X123280575Y-101266946D02*
X125012151Y-102998522D01*
X147200000Y-84036371D02*
X147200000Y-80573646D01*
X117834932Y-70887855D02*
X116209645Y-70887855D01*
X112973629Y-90960000D02*
X114540000Y-90960000D01*
X122640000Y-95257500D02*
X123750000Y-94147500D01*
X135890000Y-70057085D02*
X135695353Y-69862438D01*
X142216666Y-71040834D02*
X143524143Y-71040834D01*
X114540000Y-90960000D02*
X115502401Y-91922401D01*
X106819961Y-77190039D02*
X105843116Y-78166884D01*
X119391488Y-95971488D02*
X119391488Y-97377859D01*
X121810000Y-93060000D02*
X123705000Y-93060000D01*
X110600000Y-87230000D02*
X111613314Y-88243314D01*
X138854343Y-70704343D02*
X138854343Y-69163586D01*
X141684320Y-88305680D02*
X142930691Y-88305680D01*
X111613314Y-89599685D02*
X112973629Y-90960000D01*
X110970336Y-71120000D02*
X112186035Y-71120000D01*
X127050000Y-75915000D02*
X126440000Y-76525000D01*
X113284714Y-70887855D02*
X112851447Y-70454588D01*
X135695353Y-69862438D02*
X138155491Y-69862438D01*
X135152517Y-96083854D02*
X136270000Y-94966371D01*
X131675000Y-73200000D02*
X131675000Y-72336895D01*
X106572473Y-73946364D02*
X106572473Y-75813218D01*
X146427429Y-77497429D02*
X146427429Y-75296892D01*
X106572473Y-75813218D02*
X106819961Y-76060706D01*
X129760000Y-75115000D02*
X131675000Y-73200000D01*
X147153136Y-80526782D02*
X146960000Y-80333646D01*
X140027500Y-71877500D02*
X138854343Y-70704343D01*
X118480367Y-70640367D02*
X118082420Y-70640367D01*
X142930691Y-88305680D02*
X142930691Y-87029309D01*
X140200000Y-91036371D02*
X140200000Y-89790000D01*
X123750000Y-94147500D02*
X123750000Y-93105000D01*
X107470000Y-85456371D02*
X107724227Y-85710598D01*
X105843116Y-78166884D02*
X105843116Y-81042289D01*
X115502401Y-91922401D02*
X115502401Y-93488772D01*
X118460000Y-95040000D02*
X119391488Y-95971488D01*
X143524143Y-72424143D02*
X146418890Y-75318890D01*
X107724227Y-85710598D02*
X109243629Y-87230000D01*
X135152517Y-96083854D02*
X133846146Y-96083854D01*
X142930691Y-87029309D02*
X145543407Y-84416593D01*
X131510633Y-72172528D02*
X134752472Y-72172528D01*
X121036598Y-73196598D02*
X118480367Y-70640367D01*
X132680000Y-98610000D02*
X131317059Y-99972941D01*
X122019986Y-73196598D02*
X121036598Y-73196598D01*
X115502401Y-93488772D02*
X117053629Y-95040000D01*
X131675000Y-72336895D02*
X131510633Y-72172528D01*
X132680000Y-97250000D02*
X132680000Y-98610000D01*
X135890000Y-71035000D02*
X135890000Y-70057085D01*
X113284714Y-70887855D02*
X114930355Y-70887855D01*
X136270000Y-93660000D02*
X137735233Y-92194767D01*
X118082420Y-70640367D02*
X117834932Y-70887855D01*
X125075000Y-83735000D02*
X125075000Y-76525000D01*
X122240000Y-98940000D02*
X123280575Y-99980575D01*
X112186035Y-71120000D02*
X112851447Y-70454588D01*
X120953629Y-98940000D02*
X122240000Y-98940000D01*
D26*
X124850000Y-91835000D02*
X123750000Y-91835000D01*
X127640000Y-86300000D02*
X127640000Y-89045000D01*
X127640000Y-89045000D02*
X124850000Y-91835000D01*
X124275000Y-89295000D02*
X126430000Y-87140000D01*
X126430000Y-84970000D02*
X127640000Y-83760000D01*
X126430000Y-87140000D02*
X126430000Y-84970000D01*
D25*
X125355000Y-73285000D02*
X124460000Y-72390000D01*
X118598608Y-68568545D02*
X118846096Y-68321057D01*
X120161057Y-68321057D02*
X122717288Y-70877288D01*
X118846096Y-68321057D02*
X120161057Y-68321057D01*
X125950000Y-73285000D02*
X125355000Y-73285000D01*
D26*
X125950000Y-104828522D02*
X125286517Y-104828522D01*
X125286517Y-104828522D02*
X122502758Y-102044763D01*
X126875000Y-94215000D02*
X126875000Y-102823522D01*
X130525000Y-90565000D02*
X126875000Y-94215000D01*
X120183448Y-99725453D02*
X118613671Y-98155676D01*
X121986570Y-99972941D02*
X121739082Y-99725453D01*
X121739082Y-99725453D02*
X120183448Y-99725453D01*
X118097483Y-96083854D02*
X117849995Y-95836366D01*
X117849995Y-95836366D02*
X116294361Y-95836366D01*
X116294361Y-95836366D02*
X114724584Y-94266589D01*
X113960908Y-91947279D02*
X112405274Y-91947279D01*
X112405274Y-91947279D02*
X110835497Y-90377502D01*
X114208396Y-92194767D02*
X113960908Y-91947279D01*
X110319309Y-88305680D02*
X110071821Y-88058192D01*
X110071821Y-88058192D02*
X108516187Y-88058192D01*
X108516187Y-88058192D02*
X106946410Y-86488415D01*
X106430222Y-84416593D02*
X106430222Y-83185029D01*
X106430222Y-83185029D02*
X105065299Y-81820106D01*
X104549111Y-77836580D02*
X105794656Y-76591035D01*
X104549111Y-79748284D02*
X104549111Y-77836580D01*
X107405321Y-71557882D02*
X105278468Y-73684735D01*
X105278468Y-73684735D02*
X105278468Y-74519213D01*
X112073630Y-69676771D02*
X110842066Y-69676771D01*
X110842066Y-69676771D02*
X109477143Y-71041694D01*
X114145452Y-69160583D02*
X116602636Y-69160583D01*
X116602636Y-69160583D02*
X117304603Y-69862550D01*
X119376425Y-69346362D02*
X119376425Y-70058061D01*
X119376425Y-70058061D02*
X121489657Y-72171293D01*
X125600000Y-75115000D02*
X125950000Y-75115000D01*
X123561479Y-71655105D02*
X123561479Y-73076479D01*
X123561479Y-73076479D02*
X125600000Y-75115000D01*
X130023161Y-73660000D02*
X127425000Y-73660000D01*
X130732816Y-72950345D02*
X130023161Y-73660000D01*
X127425000Y-73660000D02*
X127050000Y-73285000D01*
X134332791Y-71225000D02*
X130563105Y-71225000D01*
X134917536Y-70640255D02*
X134332791Y-71225000D01*
X130563105Y-71225000D02*
X130216628Y-70878523D01*
X139384672Y-68138281D02*
X134831500Y-68138281D01*
X139632160Y-68385769D02*
X139384672Y-68138281D01*
X134831500Y-68138281D02*
X134401348Y-68568433D01*
X142240000Y-69850000D02*
X143888943Y-69850000D01*
X140148348Y-70457591D02*
X140395836Y-70705079D01*
X140395836Y-70705079D02*
X141384921Y-70705079D01*
X141384921Y-70705079D02*
X142240000Y-69850000D01*
X143888943Y-69850000D02*
X144301960Y-70263017D01*
X146127631Y-73150000D02*
X147518704Y-74541073D01*
X144818148Y-72334839D02*
X145633309Y-73150000D01*
X145633309Y-73150000D02*
X146127631Y-73150000D01*
X148590000Y-77459463D02*
X148590000Y-79089918D01*
X147721434Y-76590897D02*
X148590000Y-77459463D01*
X148590000Y-79089918D02*
X147930953Y-79748965D01*
X148447141Y-81820787D02*
X148447141Y-84344864D01*
X148447141Y-84344864D02*
X147597595Y-85194410D01*
X144780000Y-88012005D02*
X143708508Y-89083497D01*
X144780000Y-86456371D02*
X144780000Y-88012005D01*
X145525773Y-85710598D02*
X144780000Y-86456371D01*
X141636686Y-89599685D02*
X140970000Y-90266371D01*
X140970000Y-90266371D02*
X140970000Y-91822005D01*
X140970000Y-91822005D02*
X139819421Y-92972584D01*
X137160000Y-95632005D02*
X135930334Y-96861671D01*
X137160000Y-94076371D02*
X137160000Y-95632005D01*
X137747599Y-93488772D02*
X137160000Y-94076371D01*
X133350000Y-99191333D02*
X131790575Y-100750758D01*
X133350000Y-97886371D02*
X133350000Y-99191333D01*
X133858512Y-97377859D02*
X133350000Y-97886371D01*
G04 #@! TA.AperFunction,Conductor*
G36*
X138061533Y-70615940D02*
G01*
X138108026Y-70669596D01*
X138118996Y-70711719D01*
X138120430Y-70729343D01*
X138120843Y-70739537D01*
X138120843Y-70747169D01*
X138121265Y-70750788D01*
X138121266Y-70750807D01*
X138124018Y-70774412D01*
X138124451Y-70778787D01*
X138129566Y-70841666D01*
X138130166Y-70849047D01*
X138132424Y-70856016D01*
X138133527Y-70861536D01*
X138134809Y-70866961D01*
X138135657Y-70874233D01*
X138138154Y-70881112D01*
X138159725Y-70940539D01*
X138161153Y-70944699D01*
X138180623Y-71004801D01*
X138180625Y-71004805D01*
X138182879Y-71011763D01*
X138186673Y-71018015D01*
X138189015Y-71023131D01*
X138191519Y-71028132D01*
X138194016Y-71035010D01*
X138198026Y-71041127D01*
X138198029Y-71041132D01*
X138232690Y-71093997D01*
X138235038Y-71097719D01*
X138242854Y-71110599D01*
X138271610Y-71157988D01*
X138276798Y-71163863D01*
X138278772Y-71166098D01*
X138278755Y-71166113D01*
X138281689Y-71169423D01*
X138283785Y-71171930D01*
X138287797Y-71178049D01*
X138293109Y-71183081D01*
X138342119Y-71229509D01*
X138344561Y-71231887D01*
X139462755Y-72350081D01*
X139475141Y-72364493D01*
X139487400Y-72381151D01*
X139492983Y-72385894D01*
X139526213Y-72414125D01*
X139533729Y-72421055D01*
X139539120Y-72426446D01*
X139560624Y-72443459D01*
X139564010Y-72446236D01*
X139612167Y-72487149D01*
X139612172Y-72487153D01*
X139617751Y-72491892D01*
X139624273Y-72495222D01*
X139628939Y-72498334D01*
X139633701Y-72501275D01*
X139639443Y-72505818D01*
X139703368Y-72535694D01*
X139707269Y-72537602D01*
X139763563Y-72566348D01*
X139763569Y-72566350D01*
X139770082Y-72569676D01*
X139777185Y-72571414D01*
X139782444Y-72573370D01*
X139787766Y-72575140D01*
X139794396Y-72578239D01*
X139801561Y-72579729D01*
X139801560Y-72579729D01*
X139863462Y-72592605D01*
X139867751Y-72593576D01*
X139930767Y-72608996D01*
X139930773Y-72608997D01*
X139936221Y-72610330D01*
X139941820Y-72610677D01*
X139941824Y-72610678D01*
X139947020Y-72611000D01*
X139947019Y-72611024D01*
X139951416Y-72611288D01*
X139954690Y-72611580D01*
X139961853Y-72613070D01*
X140036661Y-72611046D01*
X140040069Y-72611000D01*
X140468669Y-72611000D01*
X140536790Y-72631002D01*
X140557685Y-72647826D01*
X140561112Y-72651246D01*
X140561141Y-72651275D01*
X140595220Y-72713558D01*
X140590217Y-72784378D01*
X140561292Y-72829470D01*
X140558636Y-72832131D01*
X140549625Y-72843540D01*
X140466088Y-72979063D01*
X140459944Y-72992241D01*
X140409685Y-73143766D01*
X140406819Y-73157132D01*
X140397328Y-73249770D01*
X140397000Y-73256185D01*
X140397000Y-73330385D01*
X140401475Y-73345624D01*
X140402865Y-73346829D01*
X140410548Y-73348500D01*
X142344885Y-73348500D01*
X142360124Y-73344025D01*
X142361329Y-73342635D01*
X142363000Y-73334952D01*
X142363000Y-73256234D01*
X142362663Y-73249718D01*
X142352925Y-73155868D01*
X142350032Y-73142472D01*
X142299512Y-72991047D01*
X142293347Y-72977885D01*
X142209574Y-72842508D01*
X142200536Y-72831106D01*
X142198861Y-72829433D01*
X142198081Y-72828007D01*
X142195993Y-72825373D01*
X142196444Y-72825016D01*
X142164781Y-72767151D01*
X142169784Y-72696331D01*
X142198701Y-72651246D01*
X142201756Y-72648185D01*
X142206929Y-72643003D01*
X142214327Y-72631002D01*
X142294369Y-72501150D01*
X142294370Y-72501148D01*
X142298209Y-72494920D01*
X142352974Y-72329809D01*
X142355018Y-72309864D01*
X142363172Y-72230271D01*
X142363500Y-72227072D01*
X142363500Y-71983516D01*
X142383502Y-71915395D01*
X142400405Y-71894421D01*
X142483587Y-71811239D01*
X142545899Y-71777213D01*
X142572682Y-71774334D01*
X142664643Y-71774334D01*
X142732764Y-71794336D01*
X142779257Y-71847992D01*
X142790643Y-71900334D01*
X142790643Y-72358977D01*
X142789210Y-72377926D01*
X142786100Y-72398370D01*
X142786693Y-72405662D01*
X142786693Y-72405665D01*
X142790228Y-72449122D01*
X142790643Y-72459337D01*
X142790643Y-72466969D01*
X142791065Y-72470588D01*
X142791066Y-72470607D01*
X142793818Y-72494212D01*
X142794250Y-72498578D01*
X142799966Y-72568847D01*
X142802224Y-72575816D01*
X142803327Y-72581336D01*
X142804609Y-72586761D01*
X142805457Y-72594033D01*
X142822057Y-72639764D01*
X142829525Y-72660339D01*
X142830953Y-72664499D01*
X142850423Y-72724601D01*
X142850425Y-72724605D01*
X142852679Y-72731563D01*
X142856473Y-72737815D01*
X142858815Y-72742931D01*
X142861319Y-72747932D01*
X142863816Y-72754810D01*
X142867826Y-72760927D01*
X142867829Y-72760932D01*
X142902490Y-72813797D01*
X142904838Y-72817519D01*
X142929529Y-72858209D01*
X142941410Y-72877788D01*
X142945122Y-72881991D01*
X142948572Y-72885898D01*
X142948555Y-72885913D01*
X142951489Y-72889223D01*
X142953585Y-72891730D01*
X142957597Y-72897849D01*
X142971782Y-72911287D01*
X143011919Y-72949309D01*
X143014361Y-72951687D01*
X145398933Y-75336259D01*
X145432959Y-75398571D01*
X145434565Y-75407490D01*
X145439375Y-75441078D01*
X145499662Y-75573674D01*
X145504609Y-75579827D01*
X145504611Y-75579830D01*
X145506512Y-75582194D01*
X145538855Y-75622420D01*
X145657024Y-75740589D01*
X145691050Y-75802901D01*
X145693929Y-75829684D01*
X145693929Y-77432263D01*
X145692496Y-77451213D01*
X145690968Y-77461259D01*
X145689386Y-77471656D01*
X145689979Y-77478948D01*
X145689979Y-77478951D01*
X145693514Y-77522408D01*
X145693929Y-77532623D01*
X145693929Y-77540255D01*
X145694351Y-77543874D01*
X145694352Y-77543893D01*
X145697104Y-77567498D01*
X145697536Y-77571864D01*
X145698898Y-77588605D01*
X145702300Y-77630425D01*
X145703252Y-77642133D01*
X145705510Y-77649102D01*
X145706613Y-77654622D01*
X145707895Y-77660047D01*
X145708743Y-77667319D01*
X145731546Y-77730139D01*
X145732811Y-77733625D01*
X145734239Y-77737785D01*
X145753709Y-77797887D01*
X145753711Y-77797891D01*
X145755965Y-77804849D01*
X145759759Y-77811101D01*
X145762101Y-77816217D01*
X145764605Y-77821218D01*
X145767102Y-77828096D01*
X145771112Y-77834213D01*
X145771115Y-77834218D01*
X145805776Y-77887083D01*
X145808124Y-77890805D01*
X145844696Y-77951074D01*
X145851858Y-77959184D01*
X145851841Y-77959199D01*
X145854774Y-77962508D01*
X145856871Y-77965016D01*
X145860883Y-77971135D01*
X145866196Y-77976168D01*
X145915169Y-78022561D01*
X145917611Y-78024937D01*
X146189595Y-78296920D01*
X146223620Y-78359233D01*
X146226500Y-78386016D01*
X146226500Y-80220213D01*
X146215201Y-80272363D01*
X146165082Y-80382596D01*
X146144433Y-80526782D01*
X146145706Y-80535671D01*
X146162021Y-80649591D01*
X146165082Y-80670968D01*
X146168796Y-80679136D01*
X146168796Y-80679137D01*
X146186133Y-80717267D01*
X146225369Y-80803564D01*
X146230316Y-80809717D01*
X146230318Y-80809720D01*
X146239132Y-80820682D01*
X146264562Y-80852310D01*
X146429595Y-81017343D01*
X146463621Y-81079655D01*
X146466500Y-81106438D01*
X146466500Y-83503579D01*
X146446498Y-83571700D01*
X146429595Y-83592674D01*
X146376081Y-83646188D01*
X146313769Y-83680214D01*
X146286986Y-83683093D01*
X145608573Y-83683093D01*
X145589623Y-83681660D01*
X145576414Y-83679650D01*
X145576410Y-83679650D01*
X145569180Y-83678550D01*
X145561888Y-83679143D01*
X145561884Y-83679143D01*
X145518426Y-83682678D01*
X145508212Y-83683093D01*
X145500581Y-83683093D01*
X145496947Y-83683517D01*
X145496941Y-83683517D01*
X145484446Y-83684974D01*
X145473349Y-83686268D01*
X145469001Y-83686698D01*
X145398702Y-83692416D01*
X145391738Y-83694672D01*
X145386242Y-83695770D01*
X145380789Y-83697059D01*
X145373517Y-83697907D01*
X145307205Y-83721977D01*
X145303074Y-83723395D01*
X145283301Y-83729801D01*
X145242945Y-83742874D01*
X145242941Y-83742876D01*
X145235986Y-83745129D01*
X145229736Y-83748921D01*
X145224619Y-83751264D01*
X145219612Y-83753771D01*
X145212740Y-83756266D01*
X145206627Y-83760274D01*
X145206623Y-83760276D01*
X145153744Y-83794946D01*
X145150023Y-83797293D01*
X145089762Y-83833860D01*
X145081652Y-83841023D01*
X145081636Y-83841005D01*
X145078332Y-83843935D01*
X145075821Y-83846034D01*
X145069701Y-83850047D01*
X145020929Y-83901531D01*
X145018223Y-83904388D01*
X145015845Y-83906830D01*
X142458114Y-86464561D01*
X142443702Y-86476948D01*
X142427040Y-86489209D01*
X142415772Y-86502472D01*
X142394060Y-86528029D01*
X142387130Y-86535545D01*
X142381746Y-86540929D01*
X142379483Y-86543790D01*
X142379478Y-86543795D01*
X142364759Y-86562400D01*
X142361970Y-86565802D01*
X142321038Y-86613981D01*
X142321035Y-86613985D01*
X142316299Y-86619560D01*
X142312970Y-86626081D01*
X142309849Y-86630760D01*
X142306913Y-86635514D01*
X142302373Y-86641252D01*
X142299276Y-86647879D01*
X142299275Y-86647880D01*
X142272502Y-86705163D01*
X142270592Y-86709070D01*
X142238515Y-86771891D01*
X142236775Y-86779003D01*
X142234809Y-86784289D01*
X142233051Y-86789574D01*
X142229952Y-86796204D01*
X142217264Y-86857205D01*
X142215586Y-86865272D01*
X142214616Y-86869556D01*
X142197861Y-86938030D01*
X142197191Y-86948829D01*
X142197167Y-86948828D01*
X142196903Y-86953243D01*
X142196613Y-86956493D01*
X142195122Y-86963661D01*
X142195320Y-86970978D01*
X142197145Y-87038432D01*
X142197191Y-87041840D01*
X142197191Y-87446180D01*
X142177189Y-87514301D01*
X142123533Y-87560794D01*
X142071191Y-87572180D01*
X141749486Y-87572180D01*
X141730536Y-87570747D01*
X141717327Y-87568737D01*
X141717323Y-87568737D01*
X141710093Y-87567637D01*
X141702801Y-87568230D01*
X141702797Y-87568230D01*
X141659339Y-87571765D01*
X141649125Y-87572180D01*
X141641494Y-87572180D01*
X141637860Y-87572604D01*
X141637854Y-87572604D01*
X141626285Y-87573953D01*
X141614262Y-87575355D01*
X141609914Y-87575785D01*
X141539615Y-87581503D01*
X141532651Y-87583759D01*
X141527155Y-87584857D01*
X141521702Y-87586146D01*
X141514430Y-87586994D01*
X141448118Y-87611064D01*
X141443987Y-87612482D01*
X141424214Y-87618888D01*
X141383858Y-87631961D01*
X141383854Y-87631963D01*
X141376899Y-87634216D01*
X141370649Y-87638008D01*
X141365532Y-87640351D01*
X141360525Y-87642858D01*
X141353653Y-87645353D01*
X141347540Y-87649361D01*
X141347536Y-87649363D01*
X141294657Y-87684033D01*
X141290936Y-87686380D01*
X141230675Y-87722947D01*
X141222565Y-87730110D01*
X141222549Y-87730092D01*
X141219245Y-87733022D01*
X141216734Y-87735121D01*
X141210614Y-87739134D01*
X141185608Y-87765531D01*
X141159136Y-87793475D01*
X141156758Y-87795917D01*
X139727423Y-89225252D01*
X139713011Y-89237639D01*
X139696349Y-89249900D01*
X139691606Y-89255483D01*
X139663369Y-89288720D01*
X139656439Y-89296236D01*
X139651055Y-89301620D01*
X139648792Y-89304481D01*
X139648787Y-89304486D01*
X139634068Y-89323091D01*
X139631279Y-89326493D01*
X139590347Y-89374672D01*
X139590344Y-89374676D01*
X139585608Y-89380251D01*
X139582279Y-89386772D01*
X139579158Y-89391451D01*
X139576222Y-89396205D01*
X139571682Y-89401943D01*
X139568585Y-89408570D01*
X139568584Y-89408571D01*
X139541811Y-89465854D01*
X139539901Y-89469761D01*
X139507824Y-89532582D01*
X139506084Y-89539694D01*
X139504118Y-89544980D01*
X139502360Y-89550265D01*
X139499261Y-89556895D01*
X139491136Y-89595959D01*
X139484895Y-89625963D01*
X139483925Y-89630247D01*
X139467170Y-89698721D01*
X139466500Y-89709520D01*
X139466476Y-89709519D01*
X139466212Y-89713934D01*
X139465922Y-89717184D01*
X139464431Y-89724352D01*
X139464629Y-89731669D01*
X139466454Y-89799123D01*
X139466500Y-89802531D01*
X139466500Y-90680355D01*
X139446498Y-90748476D01*
X139429595Y-90769450D01*
X139037878Y-91161167D01*
X138975566Y-91195193D01*
X138966678Y-91196794D01*
X138897418Y-91206713D01*
X138764822Y-91267000D01*
X138758669Y-91271947D01*
X138758666Y-91271949D01*
X138732812Y-91292737D01*
X138716076Y-91306193D01*
X138597907Y-91424362D01*
X138535595Y-91458388D01*
X138508812Y-91461267D01*
X137800399Y-91461267D01*
X137781449Y-91459834D01*
X137768240Y-91457824D01*
X137768236Y-91457824D01*
X137761006Y-91456724D01*
X137753714Y-91457317D01*
X137753710Y-91457317D01*
X137710252Y-91460852D01*
X137700038Y-91461267D01*
X137692407Y-91461267D01*
X137688773Y-91461691D01*
X137688767Y-91461691D01*
X137676272Y-91463148D01*
X137665175Y-91464442D01*
X137660827Y-91464872D01*
X137590528Y-91470590D01*
X137583564Y-91472846D01*
X137578068Y-91473944D01*
X137572615Y-91475233D01*
X137565343Y-91476081D01*
X137499031Y-91500151D01*
X137494900Y-91501569D01*
X137475127Y-91507975D01*
X137434771Y-91521048D01*
X137434767Y-91521050D01*
X137427812Y-91523303D01*
X137421562Y-91527095D01*
X137416445Y-91529438D01*
X137411438Y-91531945D01*
X137404566Y-91534440D01*
X137398453Y-91538448D01*
X137398449Y-91538450D01*
X137345570Y-91573120D01*
X137341849Y-91575467D01*
X137281588Y-91612034D01*
X137273478Y-91619196D01*
X137273463Y-91619179D01*
X137270154Y-91622112D01*
X137267646Y-91624209D01*
X137261527Y-91628221D01*
X137256494Y-91633534D01*
X137210084Y-91682525D01*
X137207707Y-91684967D01*
X135797423Y-93095252D01*
X135783011Y-93107639D01*
X135766349Y-93119900D01*
X135761606Y-93125483D01*
X135733369Y-93158720D01*
X135726439Y-93166236D01*
X135721055Y-93171620D01*
X135718792Y-93174481D01*
X135718787Y-93174486D01*
X135704068Y-93193091D01*
X135701279Y-93196493D01*
X135660347Y-93244672D01*
X135660344Y-93244676D01*
X135655608Y-93250251D01*
X135652279Y-93256772D01*
X135649158Y-93261451D01*
X135646222Y-93266205D01*
X135641682Y-93271943D01*
X135638585Y-93278570D01*
X135638584Y-93278571D01*
X135611811Y-93335854D01*
X135609901Y-93339761D01*
X135577824Y-93402582D01*
X135576084Y-93409694D01*
X135574118Y-93414980D01*
X135572360Y-93420265D01*
X135569261Y-93426895D01*
X135556391Y-93488772D01*
X135554895Y-93495963D01*
X135553925Y-93500247D01*
X135537170Y-93568721D01*
X135536500Y-93579520D01*
X135536476Y-93579519D01*
X135536212Y-93583934D01*
X135535922Y-93587184D01*
X135534431Y-93594352D01*
X135534629Y-93601669D01*
X135536454Y-93669123D01*
X135536500Y-93672531D01*
X135536500Y-94610355D01*
X135516498Y-94678476D01*
X135499595Y-94699450D01*
X135148791Y-95050254D01*
X135086479Y-95084280D01*
X135077591Y-95085881D01*
X135008331Y-95095800D01*
X134875735Y-95156087D01*
X134869582Y-95161034D01*
X134869579Y-95161036D01*
X134862356Y-95166844D01*
X134826989Y-95195280D01*
X134708820Y-95313449D01*
X134646508Y-95347475D01*
X134619725Y-95350354D01*
X133911312Y-95350354D01*
X133892362Y-95348921D01*
X133879153Y-95346911D01*
X133879149Y-95346911D01*
X133871919Y-95345811D01*
X133864627Y-95346404D01*
X133864623Y-95346404D01*
X133821165Y-95349939D01*
X133810951Y-95350354D01*
X133803320Y-95350354D01*
X133799686Y-95350778D01*
X133799680Y-95350778D01*
X133787185Y-95352235D01*
X133776088Y-95353529D01*
X133771740Y-95353959D01*
X133701441Y-95359677D01*
X133694477Y-95361933D01*
X133688981Y-95363031D01*
X133683528Y-95364320D01*
X133676256Y-95365168D01*
X133609944Y-95389238D01*
X133605813Y-95390656D01*
X133597214Y-95393442D01*
X133545684Y-95410135D01*
X133545680Y-95410137D01*
X133538725Y-95412390D01*
X133532475Y-95416182D01*
X133527358Y-95418525D01*
X133522351Y-95421032D01*
X133515479Y-95423527D01*
X133509366Y-95427535D01*
X133509362Y-95427537D01*
X133456483Y-95462207D01*
X133452762Y-95464554D01*
X133397303Y-95498207D01*
X133392501Y-95501121D01*
X133384391Y-95508284D01*
X133384375Y-95508266D01*
X133381071Y-95511196D01*
X133378560Y-95513295D01*
X133372440Y-95517308D01*
X133367408Y-95522620D01*
X133320962Y-95571649D01*
X133318584Y-95574091D01*
X132207423Y-96685252D01*
X132193011Y-96697639D01*
X132176349Y-96709900D01*
X132165530Y-96722635D01*
X132143369Y-96748720D01*
X132136439Y-96756236D01*
X132131055Y-96761620D01*
X132128792Y-96764481D01*
X132128787Y-96764486D01*
X132114068Y-96783091D01*
X132111279Y-96786493D01*
X132070347Y-96834672D01*
X132070344Y-96834676D01*
X132065608Y-96840251D01*
X132062279Y-96846772D01*
X132059158Y-96851451D01*
X132056222Y-96856205D01*
X132051682Y-96861943D01*
X132048585Y-96868570D01*
X132048584Y-96868571D01*
X132021811Y-96925854D01*
X132019901Y-96929761D01*
X131987824Y-96992582D01*
X131986084Y-96999694D01*
X131984118Y-97004980D01*
X131982360Y-97010265D01*
X131979261Y-97016895D01*
X131971337Y-97054993D01*
X131964895Y-97085963D01*
X131963925Y-97090247D01*
X131947170Y-97158721D01*
X131946500Y-97169520D01*
X131946476Y-97169519D01*
X131946212Y-97173934D01*
X131945922Y-97177184D01*
X131944431Y-97184352D01*
X131944629Y-97191669D01*
X131946454Y-97259123D01*
X131946500Y-97262531D01*
X131946500Y-98253983D01*
X131926498Y-98322104D01*
X131909596Y-98343078D01*
X131294479Y-98958196D01*
X131232166Y-98992221D01*
X131170020Y-98990037D01*
X131165120Y-98988604D01*
X131156944Y-98984887D01*
X131012758Y-98964238D01*
X131003869Y-98965511D01*
X130877458Y-98983614D01*
X130877455Y-98983615D01*
X130868572Y-98984887D01*
X130860404Y-98988601D01*
X130860403Y-98988601D01*
X130796599Y-99017611D01*
X130735976Y-99045174D01*
X130729823Y-99050121D01*
X130729820Y-99050123D01*
X130703966Y-99070911D01*
X130687230Y-99084367D01*
X130124184Y-99647413D01*
X130122044Y-99650075D01*
X130089940Y-99690003D01*
X130089938Y-99690006D01*
X130084991Y-99696159D01*
X130024704Y-99828755D01*
X130004055Y-99972941D01*
X130024704Y-100117127D01*
X130028419Y-100125298D01*
X130028837Y-100126727D01*
X130028757Y-100197724D01*
X129990306Y-100257407D01*
X129925692Y-100286827D01*
X129872539Y-100283025D01*
X129871110Y-100282607D01*
X129862939Y-100278892D01*
X129854052Y-100277619D01*
X129854051Y-100277619D01*
X129727642Y-100259516D01*
X129718753Y-100258243D01*
X129709864Y-100259516D01*
X129583453Y-100277619D01*
X129583450Y-100277620D01*
X129574567Y-100278892D01*
X129566399Y-100282606D01*
X129566398Y-100282606D01*
X129532873Y-100297849D01*
X129441971Y-100339179D01*
X129435818Y-100344126D01*
X129435815Y-100344128D01*
X129411507Y-100363673D01*
X129393225Y-100378372D01*
X128830179Y-100941418D01*
X128828039Y-100944080D01*
X128795935Y-100984008D01*
X128795933Y-100984011D01*
X128790986Y-100990164D01*
X128787718Y-100997352D01*
X128753040Y-101073624D01*
X128730699Y-101122760D01*
X128729427Y-101131643D01*
X128729426Y-101131646D01*
X128723554Y-101172652D01*
X128710050Y-101266946D01*
X128730699Y-101411132D01*
X128790986Y-101543728D01*
X128795933Y-101549881D01*
X128795935Y-101549884D01*
X128816723Y-101575738D01*
X128830179Y-101592474D01*
X129393225Y-102155520D01*
X129395887Y-102157660D01*
X129435815Y-102189764D01*
X129435818Y-102189766D01*
X129441971Y-102194713D01*
X129449163Y-102197983D01*
X129486854Y-102215121D01*
X129540587Y-102261524D01*
X129549403Y-102277670D01*
X129565958Y-102314082D01*
X129574180Y-102327433D01*
X129606246Y-102367314D01*
X129610789Y-102372377D01*
X129697460Y-102459047D01*
X129711396Y-102466657D01*
X129713233Y-102466526D01*
X129719849Y-102462274D01*
X129966956Y-102215167D01*
X129989193Y-102197597D01*
X129995535Y-102194713D01*
X130001693Y-102189762D01*
X130001696Y-102189760D01*
X130041619Y-102157660D01*
X130044281Y-102155520D01*
X130416314Y-101783487D01*
X130478626Y-101749461D01*
X130549441Y-101754526D01*
X130594504Y-101783487D01*
X131270060Y-102459043D01*
X131284004Y-102466657D01*
X131285837Y-102466526D01*
X131292452Y-102462275D01*
X131382338Y-102372389D01*
X131386900Y-102367305D01*
X131418961Y-102327432D01*
X131427182Y-102314081D01*
X131480422Y-102196982D01*
X131485412Y-102179919D01*
X131503496Y-102053651D01*
X131503496Y-102035875D01*
X131485412Y-101909606D01*
X131479916Y-101890812D01*
X131479994Y-101819816D01*
X131518443Y-101760132D01*
X131583056Y-101730710D01*
X131636211Y-101734510D01*
X131638217Y-101735097D01*
X131646389Y-101738812D01*
X131790575Y-101759461D01*
X131799464Y-101758188D01*
X131925875Y-101740085D01*
X131925878Y-101740084D01*
X131934761Y-101738812D01*
X131944945Y-101734182D01*
X132060169Y-101681793D01*
X132067357Y-101678525D01*
X132073510Y-101673578D01*
X132073513Y-101673576D01*
X132113441Y-101641472D01*
X132116103Y-101639332D01*
X132679149Y-101076286D01*
X132692605Y-101059550D01*
X132713393Y-101033696D01*
X132713395Y-101033693D01*
X132718342Y-101027540D01*
X132748598Y-100960995D01*
X132774915Y-100903113D01*
X132774915Y-100903112D01*
X132778629Y-100894944D01*
X132779923Y-100885914D01*
X132798005Y-100759645D01*
X132799278Y-100750758D01*
X132798006Y-100741876D01*
X132798006Y-100741871D01*
X132794083Y-100714477D01*
X132804227Y-100644209D01*
X132829716Y-100607522D01*
X133742253Y-99694985D01*
X133750539Y-99687445D01*
X133757018Y-99683333D01*
X133803644Y-99633681D01*
X133806398Y-99630840D01*
X133826135Y-99611103D01*
X133828615Y-99607906D01*
X133836320Y-99598884D01*
X133845519Y-99589088D01*
X133866586Y-99566654D01*
X133870405Y-99559708D01*
X133870407Y-99559705D01*
X133876348Y-99548899D01*
X133887199Y-99532380D01*
X133894758Y-99522634D01*
X133899614Y-99516374D01*
X133902759Y-99509105D01*
X133902762Y-99509101D01*
X133917174Y-99475796D01*
X133922391Y-99465146D01*
X133943695Y-99426393D01*
X133948733Y-99406770D01*
X133955137Y-99388067D01*
X133960033Y-99376753D01*
X133960033Y-99376752D01*
X133963181Y-99369478D01*
X133964420Y-99361655D01*
X133964423Y-99361645D01*
X133970099Y-99325809D01*
X133972505Y-99314189D01*
X133981528Y-99279044D01*
X133981528Y-99279043D01*
X133983500Y-99271363D01*
X133983500Y-99251109D01*
X133985051Y-99231398D01*
X133986980Y-99219219D01*
X133988220Y-99211390D01*
X133984059Y-99167371D01*
X133983500Y-99155514D01*
X133983500Y-99020432D01*
X134003502Y-98952311D01*
X134057158Y-98905818D01*
X134127432Y-98895714D01*
X134192012Y-98925208D01*
X134198595Y-98931337D01*
X134308704Y-99041446D01*
X134313780Y-99046000D01*
X134353660Y-99078067D01*
X134367011Y-99086288D01*
X134484110Y-99139528D01*
X134501173Y-99144518D01*
X134627441Y-99162602D01*
X134645217Y-99162602D01*
X134771485Y-99144518D01*
X134788548Y-99139528D01*
X134905645Y-99086289D01*
X134918999Y-99078066D01*
X134958880Y-99046000D01*
X134963943Y-99041457D01*
X135050613Y-98954786D01*
X135058223Y-98940850D01*
X135058092Y-98939013D01*
X135053840Y-98932397D01*
X134375053Y-98253610D01*
X134341027Y-98191298D01*
X134346092Y-98120483D01*
X134375053Y-98075420D01*
X134556073Y-97894400D01*
X134618385Y-97860374D01*
X134689200Y-97865439D01*
X134734263Y-97894400D01*
X135409819Y-98569956D01*
X135423763Y-98577570D01*
X135425596Y-98577439D01*
X135432211Y-98573188D01*
X135522097Y-98483302D01*
X135526659Y-98478218D01*
X135558720Y-98438345D01*
X135566941Y-98424994D01*
X135620181Y-98307895D01*
X135625171Y-98290832D01*
X135643255Y-98164564D01*
X135643255Y-98146788D01*
X135625171Y-98020519D01*
X135619675Y-98001725D01*
X135619753Y-97930729D01*
X135658202Y-97871045D01*
X135722815Y-97841623D01*
X135775970Y-97845423D01*
X135777976Y-97846010D01*
X135786148Y-97849725D01*
X135930334Y-97870374D01*
X135939223Y-97869101D01*
X136065634Y-97850998D01*
X136065637Y-97850997D01*
X136074520Y-97849725D01*
X136084704Y-97845095D01*
X136199928Y-97792706D01*
X136207116Y-97789438D01*
X136213269Y-97784491D01*
X136213272Y-97784489D01*
X136239126Y-97763701D01*
X136255862Y-97750245D01*
X136818908Y-97187199D01*
X136833123Y-97169519D01*
X136853152Y-97144609D01*
X136853154Y-97144606D01*
X136858101Y-97138453D01*
X136888357Y-97071908D01*
X136914674Y-97014026D01*
X136914674Y-97014025D01*
X136918388Y-97005857D01*
X136919682Y-96996827D01*
X136937764Y-96870558D01*
X136939037Y-96861671D01*
X136937765Y-96852789D01*
X136937765Y-96852784D01*
X136933842Y-96825389D01*
X136943986Y-96755121D01*
X136969475Y-96718434D01*
X137552247Y-96135662D01*
X137560537Y-96128118D01*
X137567018Y-96124005D01*
X137613659Y-96074337D01*
X137616413Y-96071496D01*
X137636134Y-96051775D01*
X137638612Y-96048580D01*
X137646318Y-96039558D01*
X137654096Y-96031275D01*
X137676586Y-96007326D01*
X137683127Y-95995428D01*
X137686346Y-95989573D01*
X137697199Y-95973050D01*
X137704753Y-95963311D01*
X137709613Y-95957046D01*
X137727176Y-95916462D01*
X137732383Y-95905832D01*
X137753695Y-95867065D01*
X137755666Y-95859388D01*
X137755668Y-95859383D01*
X137758732Y-95847447D01*
X137765138Y-95828735D01*
X137770034Y-95817422D01*
X137773181Y-95810150D01*
X137780097Y-95766486D01*
X137782504Y-95754865D01*
X137791528Y-95719716D01*
X137791528Y-95719715D01*
X137793500Y-95712035D01*
X137793500Y-95691774D01*
X137795051Y-95672063D01*
X137796979Y-95659890D01*
X137798219Y-95652062D01*
X137794059Y-95608051D01*
X137793500Y-95596194D01*
X137793500Y-95052258D01*
X137813502Y-94984137D01*
X137867158Y-94937644D01*
X137937432Y-94927540D01*
X138002012Y-94957034D01*
X138008595Y-94963163D01*
X138197791Y-95152359D01*
X138202867Y-95156913D01*
X138242747Y-95188980D01*
X138256098Y-95197201D01*
X138373197Y-95250441D01*
X138390260Y-95255431D01*
X138516528Y-95273515D01*
X138534304Y-95273515D01*
X138660572Y-95255431D01*
X138677635Y-95250441D01*
X138794732Y-95197202D01*
X138808086Y-95188979D01*
X138847967Y-95156913D01*
X138853030Y-95152370D01*
X138939700Y-95065699D01*
X138947310Y-95051763D01*
X138947179Y-95049926D01*
X138942927Y-95043310D01*
X138264140Y-94364523D01*
X138230114Y-94302211D01*
X138235179Y-94231396D01*
X138264140Y-94186333D01*
X138445160Y-94005313D01*
X138507472Y-93971287D01*
X138578287Y-93976352D01*
X138623350Y-94005313D01*
X139298906Y-94680869D01*
X139312850Y-94688483D01*
X139314683Y-94688352D01*
X139321298Y-94684101D01*
X139411184Y-94594215D01*
X139415746Y-94589131D01*
X139447807Y-94549258D01*
X139456028Y-94535907D01*
X139509268Y-94418808D01*
X139514258Y-94401745D01*
X139532342Y-94275477D01*
X139532342Y-94257701D01*
X139514258Y-94131432D01*
X139508762Y-94112638D01*
X139508840Y-94041642D01*
X139547289Y-93981958D01*
X139611902Y-93952536D01*
X139665057Y-93956336D01*
X139667063Y-93956923D01*
X139675235Y-93960638D01*
X139819421Y-93981287D01*
X139828310Y-93980014D01*
X139954721Y-93961911D01*
X139954724Y-93961910D01*
X139963607Y-93960638D01*
X139973791Y-93956008D01*
X140089015Y-93903619D01*
X140096203Y-93900351D01*
X140102356Y-93895404D01*
X140102359Y-93895402D01*
X140142287Y-93863298D01*
X140144949Y-93861158D01*
X140707995Y-93298112D01*
X140721451Y-93281376D01*
X140742239Y-93255522D01*
X140742241Y-93255519D01*
X140747188Y-93249366D01*
X140784453Y-93167404D01*
X140803761Y-93124939D01*
X140803761Y-93124938D01*
X140807475Y-93116770D01*
X140808769Y-93107740D01*
X140826851Y-92981471D01*
X140828124Y-92972584D01*
X140826852Y-92963702D01*
X140826852Y-92963697D01*
X140822929Y-92936302D01*
X140833073Y-92866034D01*
X140858562Y-92829347D01*
X141362247Y-92325662D01*
X141370537Y-92318118D01*
X141377018Y-92314005D01*
X141423659Y-92264337D01*
X141426413Y-92261496D01*
X141446134Y-92241775D01*
X141448612Y-92238580D01*
X141456318Y-92229558D01*
X141458775Y-92226942D01*
X141486586Y-92197326D01*
X141496346Y-92179573D01*
X141507199Y-92163050D01*
X141514753Y-92153311D01*
X141519613Y-92147046D01*
X141537176Y-92106462D01*
X141542383Y-92095832D01*
X141563695Y-92057065D01*
X141565666Y-92049388D01*
X141565668Y-92049383D01*
X141568732Y-92037447D01*
X141575138Y-92018735D01*
X141580034Y-92007422D01*
X141583181Y-92000150D01*
X141586683Y-91978043D01*
X141590097Y-91956486D01*
X141592504Y-91944865D01*
X141601528Y-91909716D01*
X141601528Y-91909715D01*
X141603500Y-91902035D01*
X141603500Y-91881774D01*
X141605051Y-91862063D01*
X141606979Y-91849890D01*
X141608219Y-91842062D01*
X141604059Y-91798051D01*
X141603500Y-91786194D01*
X141603500Y-91164936D01*
X141992609Y-91164936D01*
X141992740Y-91166769D01*
X141996991Y-91173384D01*
X142086877Y-91263270D01*
X142091961Y-91267832D01*
X142131834Y-91299893D01*
X142145185Y-91308114D01*
X142262284Y-91361354D01*
X142279347Y-91366344D01*
X142405615Y-91384428D01*
X142423391Y-91384428D01*
X142549659Y-91366344D01*
X142566722Y-91361354D01*
X142683819Y-91308115D01*
X142697173Y-91299892D01*
X142737054Y-91267826D01*
X142742117Y-91263283D01*
X142828787Y-91176612D01*
X142836397Y-91162676D01*
X142836266Y-91160839D01*
X142832014Y-91154223D01*
X142427315Y-90749524D01*
X142413371Y-90741910D01*
X142411538Y-90742041D01*
X142404923Y-90746292D01*
X142000223Y-91150992D01*
X141992609Y-91164936D01*
X141603500Y-91164936D01*
X141603500Y-90881485D01*
X141623502Y-90813364D01*
X141640405Y-90792390D01*
X141884889Y-90547906D01*
X141907126Y-90530336D01*
X141913468Y-90527452D01*
X141919626Y-90522501D01*
X141919629Y-90522499D01*
X141959552Y-90490399D01*
X141962214Y-90488259D01*
X142334247Y-90116226D01*
X142396559Y-90082200D01*
X142467374Y-90087265D01*
X142512437Y-90116226D01*
X143187993Y-90791782D01*
X143201937Y-90799396D01*
X143203770Y-90799265D01*
X143210385Y-90795014D01*
X143300271Y-90705128D01*
X143304833Y-90700044D01*
X143336894Y-90660171D01*
X143345115Y-90646820D01*
X143398355Y-90529721D01*
X143403345Y-90512658D01*
X143421429Y-90386390D01*
X143421429Y-90368614D01*
X143403345Y-90242345D01*
X143397849Y-90223551D01*
X143397927Y-90152555D01*
X143436376Y-90092871D01*
X143500989Y-90063449D01*
X143554144Y-90067249D01*
X143556150Y-90067836D01*
X143564322Y-90071551D01*
X143708508Y-90092200D01*
X143717397Y-90090927D01*
X143843808Y-90072824D01*
X143843811Y-90072823D01*
X143852694Y-90071551D01*
X143862878Y-90066921D01*
X143924667Y-90038827D01*
X143985290Y-90011264D01*
X143991443Y-90006317D01*
X143991446Y-90006315D01*
X144031374Y-89974211D01*
X144034036Y-89972071D01*
X144597082Y-89409025D01*
X144624703Y-89374672D01*
X144631326Y-89366435D01*
X144631328Y-89366432D01*
X144636275Y-89360279D01*
X144672748Y-89280060D01*
X144692848Y-89235852D01*
X144692848Y-89235851D01*
X144696562Y-89227683D01*
X144697856Y-89218653D01*
X144712115Y-89119083D01*
X144717211Y-89083497D01*
X144715939Y-89074615D01*
X144715939Y-89074610D01*
X144712016Y-89047215D01*
X144722160Y-88976947D01*
X144747649Y-88940260D01*
X145172247Y-88515662D01*
X145180537Y-88508118D01*
X145187018Y-88504005D01*
X145233659Y-88454337D01*
X145236413Y-88451496D01*
X145256135Y-88431774D01*
X145258612Y-88428581D01*
X145266317Y-88419560D01*
X145291159Y-88393105D01*
X145296586Y-88387326D01*
X145303480Y-88374786D01*
X145306346Y-88369573D01*
X145317202Y-88353046D01*
X145324757Y-88343307D01*
X145324758Y-88343305D01*
X145329614Y-88337045D01*
X145347174Y-88296465D01*
X145352391Y-88285817D01*
X145369875Y-88254014D01*
X145369876Y-88254012D01*
X145373695Y-88247065D01*
X145378733Y-88227442D01*
X145385137Y-88208739D01*
X145390033Y-88197425D01*
X145390033Y-88197424D01*
X145393181Y-88190150D01*
X145394420Y-88182327D01*
X145394423Y-88182317D01*
X145400099Y-88146481D01*
X145402505Y-88134861D01*
X145411528Y-88099716D01*
X145411528Y-88099715D01*
X145413500Y-88092035D01*
X145413500Y-88071781D01*
X145415051Y-88052070D01*
X145416980Y-88039891D01*
X145418220Y-88032062D01*
X145414059Y-87988043D01*
X145413500Y-87976186D01*
X145413500Y-87275849D01*
X145881696Y-87275849D01*
X145881827Y-87277682D01*
X145886078Y-87284297D01*
X145975964Y-87374183D01*
X145981048Y-87378745D01*
X146020921Y-87410806D01*
X146034272Y-87419027D01*
X146151371Y-87472267D01*
X146168434Y-87477257D01*
X146294702Y-87495341D01*
X146312478Y-87495341D01*
X146438746Y-87477257D01*
X146455809Y-87472267D01*
X146572906Y-87419028D01*
X146586260Y-87410805D01*
X146626141Y-87378739D01*
X146631204Y-87374196D01*
X146717874Y-87287525D01*
X146725484Y-87273589D01*
X146725353Y-87271752D01*
X146721101Y-87265136D01*
X146316402Y-86860437D01*
X146302458Y-86852823D01*
X146300625Y-86852954D01*
X146294010Y-86857205D01*
X145889310Y-87261905D01*
X145881696Y-87275849D01*
X145413500Y-87275849D01*
X145413500Y-87035123D01*
X145433502Y-86967002D01*
X145487158Y-86920509D01*
X145515390Y-86913303D01*
X145526869Y-86905926D01*
X145773976Y-86658819D01*
X145796213Y-86641249D01*
X145802555Y-86638365D01*
X145808713Y-86633414D01*
X145808716Y-86633412D01*
X145848639Y-86601312D01*
X145851301Y-86599172D01*
X146223334Y-86227139D01*
X146285646Y-86193113D01*
X146356461Y-86198178D01*
X146401524Y-86227139D01*
X147077080Y-86902695D01*
X147091024Y-86910309D01*
X147092857Y-86910178D01*
X147099472Y-86905927D01*
X147189358Y-86816041D01*
X147193920Y-86810957D01*
X147225981Y-86771084D01*
X147234202Y-86757733D01*
X147287442Y-86640634D01*
X147292432Y-86623571D01*
X147310516Y-86497303D01*
X147310516Y-86479527D01*
X147292432Y-86353258D01*
X147286936Y-86334464D01*
X147287014Y-86263468D01*
X147325463Y-86203784D01*
X147390076Y-86174362D01*
X147443231Y-86178162D01*
X147445237Y-86178749D01*
X147453409Y-86182464D01*
X147597595Y-86203113D01*
X147606484Y-86201840D01*
X147732895Y-86183737D01*
X147732898Y-86183736D01*
X147741781Y-86182464D01*
X147751965Y-86177834D01*
X147813754Y-86149740D01*
X147874377Y-86122177D01*
X147880530Y-86117230D01*
X147880533Y-86117228D01*
X147920461Y-86085124D01*
X147923123Y-86082984D01*
X148486169Y-85519938D01*
X148513093Y-85486452D01*
X148520413Y-85477348D01*
X148520415Y-85477345D01*
X148525362Y-85471192D01*
X148557396Y-85400735D01*
X148581935Y-85346765D01*
X148581935Y-85346764D01*
X148585649Y-85338596D01*
X148586943Y-85329566D01*
X148605025Y-85203297D01*
X148606298Y-85194410D01*
X148605026Y-85185528D01*
X148605026Y-85185523D01*
X148601103Y-85158128D01*
X148611247Y-85087860D01*
X148636736Y-85051173D01*
X148839388Y-84848521D01*
X148847678Y-84840977D01*
X148854159Y-84836864D01*
X148869401Y-84820633D01*
X148930614Y-84784667D01*
X149001554Y-84787506D01*
X149059698Y-84828246D01*
X149086586Y-84893954D01*
X149075270Y-84960509D01*
X148969444Y-85185523D01*
X148925543Y-85278868D01*
X148922366Y-85285162D01*
X148655517Y-85778768D01*
X148628945Y-85827919D01*
X148607238Y-85857056D01*
X135331478Y-99143730D01*
X128476252Y-106004591D01*
X128461008Y-106017594D01*
X128442811Y-106030766D01*
X128437309Y-106037859D01*
X128431653Y-106045150D01*
X128415674Y-106062212D01*
X128217069Y-106238255D01*
X128206050Y-106246975D01*
X127966056Y-106416025D01*
X127954155Y-106423452D01*
X127696821Y-106564735D01*
X127684156Y-106570795D01*
X127496636Y-106647989D01*
X127412701Y-106682542D01*
X127399433Y-106687157D01*
X127117217Y-106767986D01*
X127103527Y-106771091D01*
X127004746Y-106787780D01*
X126814084Y-106819991D01*
X126800121Y-106821556D01*
X126714427Y-106826342D01*
X126507019Y-106837925D01*
X126492981Y-106837925D01*
X126285573Y-106826342D01*
X126199879Y-106821556D01*
X126185916Y-106819991D01*
X125995254Y-106787780D01*
X125896473Y-106771091D01*
X125882783Y-106767986D01*
X125600567Y-106687157D01*
X125587299Y-106682542D01*
X125503364Y-106647989D01*
X125315844Y-106570795D01*
X125303179Y-106564735D01*
X125045845Y-106423452D01*
X125033944Y-106416025D01*
X124893688Y-106317230D01*
X124793945Y-106246971D01*
X124782927Y-106238251D01*
X124589791Y-106067057D01*
X124571950Y-106047534D01*
X124571432Y-106046831D01*
X124571432Y-106046830D01*
X124566103Y-106039603D01*
X124547598Y-106025506D01*
X124542055Y-106021283D01*
X124529258Y-106010093D01*
X116180696Y-97650938D01*
X104401774Y-85857070D01*
X104380089Y-85827956D01*
X104353497Y-85778768D01*
X104088508Y-85288621D01*
X104086473Y-85284857D01*
X104083293Y-85278559D01*
X104047897Y-85203298D01*
X104645479Y-85203298D01*
X104663563Y-85329566D01*
X104668553Y-85346629D01*
X104721792Y-85463726D01*
X104730015Y-85477080D01*
X104762081Y-85516961D01*
X104766624Y-85522024D01*
X104853295Y-85608694D01*
X104867231Y-85616304D01*
X104869068Y-85616173D01*
X104875684Y-85611921D01*
X105280383Y-85207222D01*
X105287997Y-85193278D01*
X105287866Y-85191445D01*
X105283615Y-85184830D01*
X104878915Y-84780130D01*
X104864971Y-84772516D01*
X104863138Y-84772647D01*
X104856523Y-84776898D01*
X104766637Y-84866784D01*
X104762075Y-84871868D01*
X104730014Y-84911741D01*
X104721793Y-84925092D01*
X104668553Y-85042191D01*
X104663563Y-85059254D01*
X104645479Y-85185522D01*
X104645479Y-85203298D01*
X104047897Y-85203298D01*
X103788507Y-84651773D01*
X103785684Y-84645307D01*
X103526434Y-84002984D01*
X103523978Y-83996370D01*
X103301097Y-83340572D01*
X103299014Y-83333831D01*
X103113184Y-82666561D01*
X103111482Y-82659714D01*
X103048513Y-82372207D01*
X102963284Y-81983061D01*
X102961972Y-81976144D01*
X102961471Y-81973028D01*
X102851888Y-81292300D01*
X102850964Y-81285318D01*
X102840604Y-81185674D01*
X102830449Y-81088015D01*
X102843298Y-81018191D01*
X102891858Y-80966398D01*
X102949312Y-80951948D01*
X102949218Y-80950635D01*
X102956643Y-80950104D01*
X102960710Y-80949081D01*
X102962815Y-80949662D01*
X102987957Y-80947864D01*
X102994573Y-80943612D01*
X103399272Y-80538913D01*
X103406886Y-80524969D01*
X103406755Y-80523136D01*
X103402504Y-80516521D01*
X102997804Y-80111821D01*
X102983860Y-80104207D01*
X102982027Y-80104338D01*
X102975412Y-80108589D01*
X102967274Y-80116727D01*
X102904962Y-80150753D01*
X102834147Y-80145688D01*
X102777311Y-80103141D01*
X102752322Y-80033628D01*
X102745836Y-79897479D01*
X102745697Y-79890425D01*
X102749689Y-79414959D01*
X102751514Y-79197762D01*
X102751770Y-79190725D01*
X102753622Y-79162019D01*
X102796346Y-78499508D01*
X102796997Y-78492483D01*
X102880192Y-77804846D01*
X102881235Y-77797868D01*
X103002793Y-77115940D01*
X103004219Y-77109059D01*
X103163762Y-76434979D01*
X103165567Y-76428208D01*
X103170262Y-76412385D01*
X103342740Y-75831024D01*
X103362579Y-75764154D01*
X103364774Y-75757449D01*
X103398916Y-75662269D01*
X103440744Y-75604902D01*
X103506947Y-75579256D01*
X103576506Y-75593473D01*
X103611301Y-75620666D01*
X103614872Y-75624646D01*
X103701541Y-75711314D01*
X103715477Y-75718924D01*
X103717314Y-75718793D01*
X103723930Y-75714541D01*
X104402717Y-75035754D01*
X104465029Y-75001728D01*
X104535844Y-75006793D01*
X104580907Y-75035754D01*
X104761927Y-75216774D01*
X104795953Y-75279086D01*
X104790888Y-75349901D01*
X104761927Y-75394964D01*
X104086371Y-76070520D01*
X104078757Y-76084464D01*
X104078888Y-76086297D01*
X104083139Y-76092912D01*
X104173025Y-76182798D01*
X104178109Y-76187360D01*
X104217982Y-76219421D01*
X104231333Y-76227642D01*
X104348432Y-76280882D01*
X104365495Y-76285872D01*
X104491763Y-76303956D01*
X104509539Y-76303956D01*
X104635808Y-76285872D01*
X104654602Y-76280376D01*
X104725598Y-76280454D01*
X104785282Y-76318903D01*
X104814704Y-76383516D01*
X104810904Y-76436671D01*
X104810317Y-76438677D01*
X104806602Y-76446849D01*
X104785953Y-76591035D01*
X104787225Y-76599917D01*
X104787225Y-76599922D01*
X104791148Y-76627316D01*
X104781004Y-76697584D01*
X104755515Y-76734271D01*
X104156858Y-77332928D01*
X104148572Y-77340468D01*
X104142093Y-77344580D01*
X104136668Y-77350357D01*
X104095468Y-77394231D01*
X104092713Y-77397073D01*
X104072976Y-77416810D01*
X104070496Y-77420007D01*
X104062793Y-77429027D01*
X104032525Y-77461259D01*
X104028706Y-77468205D01*
X104028704Y-77468208D01*
X104022763Y-77479014D01*
X104011912Y-77495533D01*
X103999497Y-77511539D01*
X103996352Y-77518808D01*
X103996349Y-77518812D01*
X103981937Y-77552117D01*
X103976720Y-77562767D01*
X103955416Y-77601520D01*
X103953445Y-77609195D01*
X103953445Y-77609196D01*
X103950378Y-77621142D01*
X103943974Y-77639846D01*
X103935930Y-77658435D01*
X103934691Y-77666258D01*
X103934688Y-77666268D01*
X103929012Y-77702104D01*
X103926606Y-77713724D01*
X103923825Y-77724556D01*
X103915611Y-77756550D01*
X103915611Y-77776804D01*
X103914060Y-77796514D01*
X103910891Y-77816523D01*
X103913725Y-77846498D01*
X103915052Y-77860541D01*
X103915611Y-77872399D01*
X103915611Y-79115492D01*
X103895609Y-79183613D01*
X103878706Y-79204587D01*
X103660537Y-79422756D01*
X103647640Y-79438796D01*
X103626293Y-79465346D01*
X103626291Y-79465349D01*
X103621344Y-79471502D01*
X103618074Y-79478694D01*
X103600936Y-79516385D01*
X103554533Y-79570118D01*
X103538387Y-79578934D01*
X103501975Y-79595489D01*
X103488624Y-79603711D01*
X103448743Y-79635777D01*
X103443680Y-79640320D01*
X103357010Y-79726991D01*
X103349400Y-79740927D01*
X103349531Y-79742764D01*
X103353783Y-79749380D01*
X103600890Y-79996487D01*
X103618460Y-80018724D01*
X103621344Y-80025066D01*
X103626295Y-80031224D01*
X103626297Y-80031227D01*
X103646281Y-80056081D01*
X103660537Y-80073812D01*
X104032570Y-80445845D01*
X104066596Y-80508157D01*
X104061531Y-80578972D01*
X104032570Y-80624035D01*
X103357014Y-81299591D01*
X103349400Y-81313535D01*
X103349531Y-81315368D01*
X103353782Y-81321983D01*
X103443668Y-81411869D01*
X103448752Y-81416431D01*
X103488625Y-81448492D01*
X103501976Y-81456713D01*
X103619075Y-81509953D01*
X103636138Y-81514943D01*
X103762406Y-81533027D01*
X103780182Y-81533027D01*
X103906451Y-81514943D01*
X103925245Y-81509447D01*
X103996241Y-81509525D01*
X104055925Y-81547974D01*
X104085347Y-81612587D01*
X104081547Y-81665742D01*
X104080960Y-81667748D01*
X104077245Y-81675920D01*
X104056596Y-81820106D01*
X104057869Y-81828995D01*
X104072806Y-81933294D01*
X104077245Y-81964292D01*
X104080959Y-81972460D01*
X104080959Y-81972461D01*
X104084225Y-81979645D01*
X104137532Y-82096888D01*
X104142479Y-82103041D01*
X104142481Y-82103044D01*
X104142672Y-82103281D01*
X104176725Y-82145634D01*
X104739771Y-82708680D01*
X104756507Y-82722136D01*
X104782361Y-82742924D01*
X104782364Y-82742926D01*
X104788517Y-82747873D01*
X104921113Y-82808160D01*
X104929996Y-82809432D01*
X104929999Y-82809433D01*
X105005892Y-82820301D01*
X105065299Y-82828809D01*
X105074181Y-82827537D01*
X105074186Y-82827537D01*
X105101581Y-82823614D01*
X105171849Y-82833758D01*
X105208536Y-82859247D01*
X105759817Y-83410528D01*
X105793843Y-83472840D01*
X105796722Y-83499623D01*
X105796722Y-83783801D01*
X105776720Y-83851922D01*
X105759817Y-83872896D01*
X105541648Y-84091065D01*
X105531336Y-84103891D01*
X105507404Y-84133655D01*
X105507402Y-84133658D01*
X105502455Y-84139811D01*
X105499185Y-84147003D01*
X105482047Y-84184694D01*
X105435644Y-84238427D01*
X105419498Y-84247243D01*
X105383086Y-84263798D01*
X105369735Y-84272020D01*
X105329854Y-84304086D01*
X105324791Y-84308629D01*
X105238121Y-84395300D01*
X105230511Y-84409236D01*
X105230642Y-84411073D01*
X105234894Y-84417689D01*
X105482001Y-84664796D01*
X105499571Y-84687033D01*
X105502455Y-84693375D01*
X105507406Y-84699533D01*
X105507408Y-84699536D01*
X105524011Y-84720185D01*
X105541648Y-84742121D01*
X105913681Y-85114154D01*
X105947707Y-85176466D01*
X105942642Y-85247281D01*
X105913681Y-85292344D01*
X105238125Y-85967900D01*
X105230511Y-85981844D01*
X105230642Y-85983677D01*
X105234893Y-85990292D01*
X105324779Y-86080178D01*
X105329863Y-86084740D01*
X105369736Y-86116801D01*
X105383087Y-86125022D01*
X105500186Y-86178262D01*
X105517249Y-86183252D01*
X105643517Y-86201336D01*
X105661293Y-86201336D01*
X105787562Y-86183252D01*
X105806356Y-86177756D01*
X105877352Y-86177834D01*
X105937036Y-86216283D01*
X105966458Y-86280896D01*
X105962658Y-86334051D01*
X105962071Y-86336057D01*
X105958356Y-86344229D01*
X105937707Y-86488415D01*
X105938980Y-86497303D01*
X105938980Y-86497304D01*
X105957063Y-86623571D01*
X105958356Y-86632601D01*
X106018643Y-86765197D01*
X106023590Y-86771350D01*
X106023592Y-86771353D01*
X106036720Y-86787680D01*
X106057836Y-86813943D01*
X106620882Y-87376989D01*
X106623544Y-87379129D01*
X106663472Y-87411233D01*
X106663475Y-87411235D01*
X106669628Y-87416182D01*
X106730251Y-87443745D01*
X106789967Y-87470896D01*
X106802224Y-87476469D01*
X106811107Y-87477741D01*
X106811110Y-87477742D01*
X106887003Y-87488610D01*
X106946410Y-87497118D01*
X106955292Y-87495846D01*
X106955297Y-87495846D01*
X106982691Y-87491923D01*
X107052959Y-87502067D01*
X107089646Y-87527556D01*
X108012535Y-88450445D01*
X108020075Y-88458731D01*
X108024187Y-88465210D01*
X108029964Y-88470635D01*
X108073838Y-88511835D01*
X108076680Y-88514590D01*
X108096417Y-88534327D01*
X108099614Y-88536807D01*
X108108634Y-88544510D01*
X108140866Y-88574778D01*
X108147812Y-88578597D01*
X108147815Y-88578599D01*
X108158621Y-88584540D01*
X108175140Y-88595391D01*
X108191146Y-88607806D01*
X108198415Y-88610951D01*
X108198419Y-88610954D01*
X108231724Y-88625366D01*
X108242374Y-88630583D01*
X108281127Y-88651887D01*
X108288802Y-88653858D01*
X108288803Y-88653858D01*
X108300749Y-88656925D01*
X108319454Y-88663329D01*
X108338042Y-88671373D01*
X108345865Y-88672612D01*
X108345875Y-88672615D01*
X108381711Y-88678291D01*
X108393331Y-88680697D01*
X108428476Y-88689720D01*
X108436157Y-88691692D01*
X108456411Y-88691692D01*
X108476118Y-88693243D01*
X108489607Y-88695379D01*
X108553761Y-88725789D01*
X108591290Y-88786056D01*
X108590278Y-88857045D01*
X108584601Y-88871978D01*
X108557639Y-88931278D01*
X108552650Y-88948341D01*
X108534566Y-89074609D01*
X108534566Y-89092385D01*
X108552650Y-89218653D01*
X108557640Y-89235716D01*
X108610879Y-89352813D01*
X108619102Y-89366167D01*
X108651168Y-89406048D01*
X108655711Y-89411111D01*
X108742382Y-89497781D01*
X108756318Y-89505391D01*
X108758155Y-89505260D01*
X108764771Y-89501008D01*
X109443558Y-88822221D01*
X109505870Y-88788195D01*
X109576685Y-88793260D01*
X109621748Y-88822221D01*
X109802768Y-89003241D01*
X109836794Y-89065553D01*
X109831729Y-89136368D01*
X109802768Y-89181431D01*
X109127212Y-89856987D01*
X109119598Y-89870931D01*
X109119729Y-89872764D01*
X109123980Y-89879379D01*
X109213866Y-89969265D01*
X109218950Y-89973827D01*
X109258823Y-90005888D01*
X109272174Y-90014109D01*
X109389273Y-90067349D01*
X109406336Y-90072339D01*
X109532604Y-90090423D01*
X109550380Y-90090423D01*
X109676649Y-90072339D01*
X109695443Y-90066843D01*
X109766439Y-90066921D01*
X109826123Y-90105370D01*
X109855545Y-90169983D01*
X109851745Y-90223138D01*
X109851158Y-90225144D01*
X109847443Y-90233316D01*
X109826794Y-90377502D01*
X109828067Y-90386390D01*
X109828067Y-90386391D01*
X109846150Y-90512658D01*
X109847443Y-90521688D01*
X109907730Y-90654284D01*
X109912677Y-90660437D01*
X109912679Y-90660440D01*
X109928080Y-90679594D01*
X109946923Y-90703030D01*
X110509969Y-91266076D01*
X110526705Y-91279532D01*
X110552559Y-91300320D01*
X110552562Y-91300322D01*
X110558715Y-91305269D01*
X110691311Y-91365556D01*
X110700194Y-91366828D01*
X110700197Y-91366829D01*
X110776090Y-91377697D01*
X110835497Y-91386205D01*
X110844379Y-91384933D01*
X110844384Y-91384933D01*
X110871778Y-91381010D01*
X110942046Y-91391154D01*
X110978733Y-91416643D01*
X111901622Y-92339532D01*
X111909162Y-92347818D01*
X111913274Y-92354297D01*
X111919051Y-92359722D01*
X111962925Y-92400922D01*
X111965767Y-92403677D01*
X111985504Y-92423414D01*
X111988701Y-92425894D01*
X111997721Y-92433597D01*
X112029953Y-92463865D01*
X112036899Y-92467684D01*
X112036902Y-92467686D01*
X112047708Y-92473627D01*
X112064227Y-92484478D01*
X112080233Y-92496893D01*
X112087502Y-92500038D01*
X112087506Y-92500041D01*
X112120811Y-92514453D01*
X112131461Y-92519670D01*
X112170214Y-92540974D01*
X112177889Y-92542945D01*
X112177890Y-92542945D01*
X112189836Y-92546012D01*
X112208541Y-92552416D01*
X112227129Y-92560460D01*
X112234952Y-92561699D01*
X112234962Y-92561702D01*
X112270798Y-92567378D01*
X112282418Y-92569784D01*
X112317563Y-92578807D01*
X112325244Y-92580779D01*
X112345498Y-92580779D01*
X112365205Y-92582330D01*
X112378694Y-92584466D01*
X112442848Y-92614876D01*
X112480377Y-92675143D01*
X112479365Y-92746132D01*
X112473688Y-92761065D01*
X112446726Y-92820365D01*
X112441737Y-92837428D01*
X112423653Y-92963696D01*
X112423653Y-92981472D01*
X112441737Y-93107740D01*
X112446727Y-93124803D01*
X112499966Y-93241900D01*
X112508189Y-93255254D01*
X112540255Y-93295135D01*
X112544798Y-93300198D01*
X112631469Y-93386868D01*
X112645405Y-93394478D01*
X112647242Y-93394347D01*
X112653858Y-93390095D01*
X113332645Y-92711308D01*
X113394957Y-92677282D01*
X113465772Y-92682347D01*
X113510835Y-92711308D01*
X113691855Y-92892328D01*
X113725881Y-92954640D01*
X113720816Y-93025455D01*
X113691855Y-93070518D01*
X113016299Y-93746074D01*
X113008685Y-93760018D01*
X113008816Y-93761851D01*
X113013067Y-93768466D01*
X113102953Y-93858352D01*
X113108037Y-93862914D01*
X113147910Y-93894975D01*
X113161261Y-93903196D01*
X113278360Y-93956436D01*
X113295423Y-93961426D01*
X113421691Y-93979510D01*
X113439467Y-93979510D01*
X113565736Y-93961426D01*
X113584530Y-93955930D01*
X113655526Y-93956008D01*
X113715210Y-93994457D01*
X113744632Y-94059070D01*
X113740832Y-94112225D01*
X113740245Y-94114231D01*
X113736530Y-94122403D01*
X113715881Y-94266589D01*
X113717154Y-94275477D01*
X113717154Y-94275478D01*
X113735237Y-94401745D01*
X113736530Y-94410775D01*
X113740244Y-94418943D01*
X113740244Y-94418944D01*
X113759581Y-94461473D01*
X113796817Y-94543371D01*
X113801764Y-94549524D01*
X113801766Y-94549527D01*
X113807975Y-94557249D01*
X113836010Y-94592117D01*
X114399056Y-95155163D01*
X114413156Y-95166500D01*
X114441646Y-95189407D01*
X114441649Y-95189409D01*
X114447802Y-95194356D01*
X114580398Y-95254643D01*
X114589281Y-95255915D01*
X114589284Y-95255916D01*
X114665177Y-95266784D01*
X114724584Y-95275292D01*
X114733466Y-95274020D01*
X114733471Y-95274020D01*
X114760865Y-95270097D01*
X114831133Y-95280241D01*
X114867820Y-95305730D01*
X115790709Y-96228619D01*
X115798249Y-96236905D01*
X115802361Y-96243384D01*
X115808138Y-96248809D01*
X115852012Y-96290009D01*
X115854854Y-96292764D01*
X115874591Y-96312501D01*
X115877788Y-96314981D01*
X115886808Y-96322684D01*
X115919040Y-96352952D01*
X115925986Y-96356771D01*
X115925989Y-96356773D01*
X115936795Y-96362714D01*
X115953314Y-96373565D01*
X115969320Y-96385980D01*
X115976589Y-96389125D01*
X115976593Y-96389128D01*
X116009898Y-96403540D01*
X116020548Y-96408757D01*
X116059301Y-96430061D01*
X116066976Y-96432032D01*
X116066977Y-96432032D01*
X116078923Y-96435099D01*
X116097628Y-96441503D01*
X116116216Y-96449547D01*
X116124039Y-96450786D01*
X116124049Y-96450789D01*
X116159885Y-96456465D01*
X116171505Y-96458871D01*
X116206650Y-96467894D01*
X116214331Y-96469866D01*
X116234585Y-96469866D01*
X116254292Y-96471417D01*
X116267781Y-96473553D01*
X116331935Y-96503963D01*
X116369464Y-96564230D01*
X116368452Y-96635219D01*
X116362775Y-96650152D01*
X116335813Y-96709452D01*
X116330824Y-96726515D01*
X116312740Y-96852783D01*
X116312740Y-96870559D01*
X116330824Y-96996827D01*
X116335814Y-97013890D01*
X116389053Y-97130987D01*
X116397276Y-97144341D01*
X116429342Y-97184222D01*
X116433885Y-97189285D01*
X116520556Y-97275955D01*
X116534492Y-97283565D01*
X116536329Y-97283434D01*
X116542945Y-97279182D01*
X117221732Y-96600395D01*
X117284044Y-96566369D01*
X117354859Y-96571434D01*
X117399922Y-96600395D01*
X117580942Y-96781415D01*
X117614968Y-96843727D01*
X117609903Y-96914542D01*
X117580942Y-96959605D01*
X116905386Y-97635161D01*
X116897772Y-97649105D01*
X116897903Y-97650938D01*
X116902154Y-97657553D01*
X116992040Y-97747439D01*
X116997124Y-97752001D01*
X117036997Y-97784062D01*
X117050348Y-97792283D01*
X117167447Y-97845523D01*
X117184510Y-97850513D01*
X117310778Y-97868597D01*
X117328554Y-97868597D01*
X117454823Y-97850513D01*
X117473617Y-97845017D01*
X117544613Y-97845095D01*
X117604297Y-97883544D01*
X117633719Y-97948157D01*
X117629919Y-98001312D01*
X117629332Y-98003318D01*
X117625617Y-98011490D01*
X117604968Y-98155676D01*
X117606241Y-98164564D01*
X117606241Y-98164565D01*
X117624324Y-98290832D01*
X117625617Y-98299862D01*
X117629331Y-98308030D01*
X117629331Y-98308031D01*
X117645266Y-98343078D01*
X117685904Y-98432458D01*
X117690851Y-98438611D01*
X117690853Y-98438614D01*
X117693775Y-98442248D01*
X117725097Y-98481204D01*
X118288143Y-99044250D01*
X118304879Y-99057706D01*
X118330733Y-99078494D01*
X118330736Y-99078496D01*
X118336889Y-99083443D01*
X118469485Y-99143730D01*
X118478368Y-99145002D01*
X118478371Y-99145003D01*
X118551769Y-99155514D01*
X118613671Y-99164379D01*
X118622553Y-99163107D01*
X118622558Y-99163107D01*
X118649952Y-99159184D01*
X118720220Y-99169328D01*
X118756907Y-99194817D01*
X119679796Y-100117706D01*
X119687336Y-100125992D01*
X119691448Y-100132471D01*
X119697225Y-100137896D01*
X119741099Y-100179096D01*
X119743941Y-100181851D01*
X119763678Y-100201588D01*
X119766875Y-100204068D01*
X119775895Y-100211771D01*
X119808127Y-100242039D01*
X119815073Y-100245858D01*
X119815076Y-100245860D01*
X119825882Y-100251801D01*
X119842401Y-100262652D01*
X119858407Y-100275067D01*
X119865676Y-100278212D01*
X119865680Y-100278215D01*
X119898985Y-100292627D01*
X119909635Y-100297844D01*
X119948388Y-100319148D01*
X119956063Y-100321119D01*
X119956064Y-100321119D01*
X119968010Y-100324186D01*
X119986715Y-100330590D01*
X120005303Y-100338634D01*
X120013126Y-100339873D01*
X120013136Y-100339876D01*
X120048972Y-100345552D01*
X120060592Y-100347958D01*
X120095737Y-100356981D01*
X120103418Y-100358953D01*
X120123672Y-100358953D01*
X120143379Y-100360504D01*
X120156868Y-100362640D01*
X120221022Y-100393050D01*
X120258551Y-100453317D01*
X120257539Y-100524306D01*
X120251862Y-100539239D01*
X120224900Y-100598539D01*
X120219911Y-100615602D01*
X120201827Y-100741870D01*
X120201827Y-100759646D01*
X120219911Y-100885914D01*
X120224901Y-100902977D01*
X120278140Y-101020074D01*
X120286363Y-101033428D01*
X120318429Y-101073309D01*
X120322972Y-101078372D01*
X120409643Y-101165042D01*
X120423579Y-101172652D01*
X120425416Y-101172521D01*
X120432032Y-101168269D01*
X121110819Y-100489482D01*
X121173131Y-100455456D01*
X121243946Y-100460521D01*
X121289009Y-100489482D01*
X121470029Y-100670502D01*
X121504055Y-100732814D01*
X121498990Y-100803629D01*
X121470029Y-100848692D01*
X120794473Y-101524248D01*
X120786859Y-101538192D01*
X120786990Y-101540025D01*
X120791241Y-101546640D01*
X120881127Y-101636526D01*
X120886211Y-101641088D01*
X120926084Y-101673149D01*
X120939435Y-101681370D01*
X121056534Y-101734610D01*
X121073597Y-101739600D01*
X121199865Y-101757684D01*
X121217641Y-101757684D01*
X121343910Y-101739600D01*
X121362704Y-101734104D01*
X121433700Y-101734182D01*
X121493384Y-101772631D01*
X121522806Y-101837244D01*
X121519006Y-101890399D01*
X121518419Y-101892405D01*
X121514704Y-101900577D01*
X121494055Y-102044763D01*
X121495328Y-102053651D01*
X121495328Y-102053652D01*
X121513411Y-102179919D01*
X121514704Y-102188949D01*
X121518418Y-102197117D01*
X121518418Y-102197118D01*
X121526624Y-102215167D01*
X121574991Y-102321545D01*
X121579938Y-102327698D01*
X121579940Y-102327701D01*
X121600728Y-102353555D01*
X121614184Y-102370291D01*
X122177230Y-102933337D01*
X122179892Y-102935477D01*
X122219820Y-102967581D01*
X122219823Y-102967583D01*
X122225976Y-102972530D01*
X122358572Y-103032817D01*
X122367455Y-103034089D01*
X122367458Y-103034090D01*
X122443351Y-103044958D01*
X122502758Y-103053466D01*
X122511640Y-103052194D01*
X122511645Y-103052194D01*
X122539039Y-103048271D01*
X122609307Y-103058415D01*
X122645994Y-103083904D01*
X124782865Y-105220775D01*
X124790405Y-105229061D01*
X124794517Y-105235540D01*
X124800294Y-105240965D01*
X124844168Y-105282165D01*
X124847010Y-105284920D01*
X124866747Y-105304657D01*
X124869944Y-105307137D01*
X124878964Y-105314840D01*
X124911196Y-105345108D01*
X124918142Y-105348927D01*
X124918145Y-105348929D01*
X124928951Y-105354870D01*
X124945470Y-105365721D01*
X124961476Y-105378136D01*
X124968745Y-105381281D01*
X124968749Y-105381284D01*
X125002054Y-105395696D01*
X125012704Y-105400913D01*
X125051457Y-105422217D01*
X125059132Y-105424188D01*
X125059133Y-105424188D01*
X125071079Y-105427255D01*
X125089784Y-105433659D01*
X125108372Y-105441703D01*
X125116196Y-105442942D01*
X125116202Y-105442944D01*
X125118457Y-105443301D01*
X125120080Y-105444070D01*
X125123816Y-105445156D01*
X125123641Y-105445759D01*
X125182608Y-105473716D01*
X125199564Y-105492181D01*
X125236739Y-105541783D01*
X125353295Y-105629137D01*
X125489684Y-105680267D01*
X125551866Y-105687022D01*
X126348134Y-105687022D01*
X126410316Y-105680267D01*
X126456482Y-105662960D01*
X126527289Y-105657777D01*
X126544942Y-105662960D01*
X126582394Y-105677000D01*
X126597649Y-105680627D01*
X126648514Y-105686153D01*
X126655328Y-105686522D01*
X126777885Y-105686522D01*
X126793124Y-105682047D01*
X126794329Y-105680657D01*
X126796000Y-105672974D01*
X126796000Y-105668406D01*
X127304000Y-105668406D01*
X127308475Y-105683645D01*
X127309865Y-105684850D01*
X127317548Y-105686521D01*
X127444669Y-105686521D01*
X127451490Y-105686151D01*
X127502352Y-105680627D01*
X127517604Y-105677001D01*
X127638054Y-105631846D01*
X127653649Y-105623308D01*
X127755724Y-105546807D01*
X127768285Y-105534246D01*
X127844786Y-105432171D01*
X127853324Y-105416576D01*
X127898478Y-105296128D01*
X127902105Y-105280873D01*
X127907631Y-105230008D01*
X127908000Y-105223194D01*
X127908000Y-105100637D01*
X127903525Y-105085398D01*
X127902135Y-105084193D01*
X127894452Y-105082522D01*
X127322115Y-105082522D01*
X127306876Y-105086997D01*
X127305671Y-105088387D01*
X127304000Y-105096070D01*
X127304000Y-105668406D01*
X126796000Y-105668406D01*
X126796000Y-105323508D01*
X126799301Y-105295357D01*
X126801745Y-105288838D01*
X126808500Y-105226656D01*
X126808500Y-104700522D01*
X126828502Y-104632401D01*
X126882158Y-104585908D01*
X126934500Y-104574522D01*
X127889884Y-104574522D01*
X127905123Y-104570047D01*
X127906328Y-104568657D01*
X127907999Y-104560974D01*
X127907999Y-104433853D01*
X127907629Y-104427032D01*
X127902105Y-104376170D01*
X127898479Y-104360918D01*
X127853324Y-104240468D01*
X127844786Y-104224873D01*
X127768285Y-104122798D01*
X127755724Y-104110237D01*
X127653643Y-104033732D01*
X127636469Y-104024329D01*
X127586323Y-103974070D01*
X127571310Y-103904679D01*
X127596196Y-103838187D01*
X127636469Y-103803291D01*
X127638304Y-103802287D01*
X127646705Y-103799137D01*
X127763261Y-103711783D01*
X127850615Y-103595227D01*
X127901745Y-103458838D01*
X127908500Y-103396656D01*
X127908500Y-102832197D01*
X130074676Y-102832197D01*
X130074807Y-102834030D01*
X130079058Y-102840645D01*
X130168944Y-102930531D01*
X130174028Y-102935093D01*
X130213901Y-102967154D01*
X130227252Y-102975375D01*
X130344351Y-103028615D01*
X130361414Y-103033605D01*
X130487682Y-103051689D01*
X130505458Y-103051689D01*
X130631726Y-103033605D01*
X130648789Y-103028615D01*
X130765886Y-102975376D01*
X130779240Y-102967153D01*
X130819121Y-102935087D01*
X130824184Y-102930544D01*
X130910854Y-102843873D01*
X130918464Y-102829937D01*
X130918333Y-102828100D01*
X130914081Y-102821484D01*
X130509382Y-102416785D01*
X130495438Y-102409171D01*
X130493605Y-102409302D01*
X130486990Y-102413553D01*
X130082290Y-102818253D01*
X130074676Y-102832197D01*
X127908500Y-102832197D01*
X127908500Y-102600388D01*
X127901745Y-102538206D01*
X127850615Y-102401817D01*
X127763261Y-102285261D01*
X127646705Y-102197907D01*
X127622810Y-102188949D01*
X127590270Y-102176750D01*
X127533505Y-102134108D01*
X127508806Y-102067546D01*
X127508500Y-102058768D01*
X127508500Y-96806558D01*
X127528502Y-96738437D01*
X127582158Y-96691944D01*
X127652432Y-96681840D01*
X127717012Y-96711334D01*
X127728136Y-96722247D01*
X127728568Y-96722727D01*
X127732453Y-96728074D01*
X127737364Y-96732496D01*
X127737365Y-96732497D01*
X127870958Y-96852784D01*
X127878280Y-96859377D01*
X128048220Y-96957492D01*
X128125941Y-96982745D01*
X128228566Y-97016090D01*
X128228567Y-97016090D01*
X128234845Y-97018130D01*
X128241408Y-97018820D01*
X128241409Y-97018820D01*
X128264405Y-97021237D01*
X128381078Y-97033500D01*
X128478922Y-97033500D01*
X128595595Y-97021237D01*
X128618591Y-97018820D01*
X128618592Y-97018820D01*
X128625155Y-97018130D01*
X128631433Y-97016090D01*
X128631434Y-97016090D01*
X128734059Y-96982745D01*
X128811780Y-96957492D01*
X128981720Y-96859377D01*
X128989044Y-96852783D01*
X129122636Y-96732496D01*
X129122637Y-96732495D01*
X129127547Y-96728074D01*
X129139710Y-96711334D01*
X129239007Y-96574663D01*
X129239008Y-96574662D01*
X129242888Y-96569321D01*
X129257220Y-96537132D01*
X129320017Y-96396087D01*
X129320017Y-96396086D01*
X129322702Y-96390056D01*
X129343682Y-96291350D01*
X129362128Y-96204572D01*
X129362128Y-96204568D01*
X129363500Y-96198115D01*
X129363500Y-96001885D01*
X129361799Y-95993879D01*
X129336513Y-95874920D01*
X129322702Y-95809944D01*
X129275074Y-95702970D01*
X129245573Y-95636709D01*
X129245572Y-95636707D01*
X129242888Y-95630679D01*
X129226448Y-95608051D01*
X129131430Y-95477270D01*
X129131428Y-95477268D01*
X129127547Y-95471926D01*
X129078248Y-95427537D01*
X128986628Y-95345042D01*
X128986627Y-95345041D01*
X128981720Y-95340623D01*
X128877135Y-95280241D01*
X128817503Y-95245812D01*
X128817502Y-95245811D01*
X128811780Y-95242508D01*
X128648352Y-95189407D01*
X128631434Y-95183910D01*
X128631433Y-95183910D01*
X128625155Y-95181870D01*
X128618592Y-95181180D01*
X128618591Y-95181180D01*
X128595595Y-95178763D01*
X128478922Y-95166500D01*
X128381078Y-95166500D01*
X128264405Y-95178763D01*
X128241409Y-95181180D01*
X128241408Y-95181180D01*
X128234845Y-95181870D01*
X128228567Y-95183910D01*
X128228566Y-95183910D01*
X128211648Y-95189407D01*
X128048220Y-95242508D01*
X128042498Y-95245811D01*
X128042497Y-95245812D01*
X127982865Y-95280241D01*
X127878280Y-95340623D01*
X127873373Y-95345041D01*
X127873372Y-95345042D01*
X127786206Y-95423527D01*
X127732453Y-95471926D01*
X127728568Y-95477273D01*
X127728136Y-95477753D01*
X127667690Y-95514992D01*
X127596706Y-95513640D01*
X127537722Y-95474126D01*
X127509464Y-95408996D01*
X127508500Y-95393442D01*
X127508500Y-94529594D01*
X127528502Y-94461473D01*
X127545405Y-94440499D01*
X129516145Y-92469759D01*
X129578457Y-92435733D01*
X129649272Y-92440798D01*
X129706108Y-92483345D01*
X129730919Y-92549865D01*
X129723222Y-92603083D01*
X129701029Y-92662282D01*
X129701027Y-92662288D01*
X129698255Y-92669684D01*
X129691500Y-92731866D01*
X129691500Y-93478134D01*
X129698255Y-93540316D01*
X129749385Y-93676705D01*
X129836739Y-93793261D01*
X129953295Y-93880615D01*
X130089684Y-93931745D01*
X130151866Y-93938500D01*
X131948134Y-93938500D01*
X132010316Y-93931745D01*
X132146705Y-93880615D01*
X132263261Y-93793261D01*
X132350615Y-93676705D01*
X132401745Y-93540316D01*
X132408500Y-93478134D01*
X132408500Y-93219594D01*
X132428502Y-93151473D01*
X132445405Y-93130499D01*
X133157136Y-92418768D01*
X133165426Y-92411224D01*
X133171907Y-92407111D01*
X133188079Y-92389890D01*
X133218547Y-92357444D01*
X133221302Y-92354602D01*
X133241023Y-92334881D01*
X133243501Y-92331686D01*
X133251207Y-92322664D01*
X133276047Y-92296212D01*
X133281475Y-92290432D01*
X133291235Y-92272679D01*
X133302088Y-92256156D01*
X133309642Y-92246417D01*
X133314502Y-92240152D01*
X133332065Y-92199568D01*
X133337272Y-92188938D01*
X133358584Y-92150171D01*
X133360555Y-92142494D01*
X133360557Y-92142489D01*
X133363621Y-92130553D01*
X133370027Y-92111841D01*
X133374922Y-92100530D01*
X133378070Y-92093256D01*
X133379310Y-92085428D01*
X133379312Y-92085421D01*
X133384988Y-92049587D01*
X133387394Y-92037967D01*
X133396417Y-92002822D01*
X133396417Y-92002821D01*
X133398389Y-91995141D01*
X133398389Y-91974887D01*
X133399940Y-91955176D01*
X133401869Y-91942997D01*
X133403109Y-91935168D01*
X133398948Y-91891149D01*
X133398389Y-91879292D01*
X133398389Y-89170768D01*
X133398916Y-89159585D01*
X133400591Y-89152092D01*
X133398451Y-89084015D01*
X133398389Y-89080056D01*
X133398389Y-89052145D01*
X133397884Y-89048145D01*
X133396951Y-89036302D01*
X133396286Y-89015125D01*
X133395562Y-88992112D01*
X133389910Y-88972658D01*
X133385902Y-88953301D01*
X133384357Y-88941071D01*
X133384357Y-88941070D01*
X133383363Y-88933204D01*
X133377547Y-88918514D01*
X133367085Y-88892089D01*
X133363240Y-88880859D01*
X133353118Y-88846018D01*
X133353118Y-88846017D01*
X133350907Y-88838408D01*
X133346874Y-88831589D01*
X133346872Y-88831584D01*
X133340596Y-88820973D01*
X133331901Y-88803225D01*
X133324441Y-88784384D01*
X133298453Y-88748614D01*
X133291937Y-88738694D01*
X133273469Y-88707466D01*
X133273467Y-88707463D01*
X133269431Y-88700639D01*
X133255110Y-88686318D01*
X133242269Y-88671284D01*
X133230361Y-88654894D01*
X133196284Y-88626703D01*
X133187505Y-88618713D01*
X131877559Y-87308766D01*
X132917000Y-87308766D01*
X132917337Y-87315282D01*
X132927075Y-87409132D01*
X132929968Y-87422528D01*
X132980488Y-87573953D01*
X132986653Y-87587115D01*
X133070426Y-87722492D01*
X133079460Y-87733890D01*
X133192129Y-87846363D01*
X133203540Y-87855375D01*
X133339063Y-87938912D01*
X133352241Y-87945056D01*
X133503766Y-87995315D01*
X133517132Y-87998181D01*
X133609770Y-88007672D01*
X133616185Y-88008000D01*
X133627885Y-88008000D01*
X133643124Y-88003525D01*
X133644329Y-88002135D01*
X133646000Y-87994452D01*
X133646000Y-87234615D01*
X133641525Y-87219376D01*
X133640135Y-87218171D01*
X133632452Y-87216500D01*
X132935115Y-87216500D01*
X132919876Y-87220975D01*
X132918671Y-87222365D01*
X132917000Y-87230048D01*
X132917000Y-87308766D01*
X131877559Y-87308766D01*
X131482956Y-86914163D01*
X131448930Y-86851851D01*
X131451492Y-86788440D01*
X131452700Y-86784467D01*
X131512370Y-86588069D01*
X131541529Y-86366590D01*
X131541909Y-86351047D01*
X131543074Y-86303365D01*
X131543074Y-86303361D01*
X131543156Y-86300000D01*
X131524852Y-86077361D01*
X131470431Y-85860702D01*
X131381354Y-85655840D01*
X131338968Y-85590322D01*
X131262822Y-85472617D01*
X131262820Y-85472614D01*
X131260014Y-85468277D01*
X131109670Y-85303051D01*
X131105619Y-85299852D01*
X131105615Y-85299848D01*
X130938414Y-85167800D01*
X130938410Y-85167798D01*
X130934359Y-85164598D01*
X130892569Y-85141529D01*
X130842598Y-85091097D01*
X130827826Y-85021654D01*
X130852942Y-84955248D01*
X130880294Y-84928641D01*
X131055328Y-84803792D01*
X131063200Y-84797139D01*
X131214052Y-84646812D01*
X131220730Y-84638965D01*
X131345003Y-84466020D01*
X131350313Y-84457183D01*
X131444670Y-84266267D01*
X131448469Y-84256672D01*
X131510377Y-84052910D01*
X131512555Y-84042837D01*
X131513986Y-84031962D01*
X131511775Y-84017778D01*
X131498617Y-84014000D01*
X130052000Y-84014000D01*
X129983879Y-83993998D01*
X129937386Y-83940342D01*
X129926000Y-83888000D01*
X129926000Y-83487885D01*
X130434000Y-83487885D01*
X130438475Y-83503124D01*
X130439865Y-83504329D01*
X130447548Y-83506000D01*
X131498344Y-83506000D01*
X131511875Y-83502027D01*
X131513180Y-83492947D01*
X131471214Y-83325875D01*
X131467894Y-83316124D01*
X131382972Y-83120814D01*
X131378105Y-83111739D01*
X131262426Y-82932926D01*
X131256136Y-82924757D01*
X131112806Y-82767240D01*
X131105273Y-82760215D01*
X130938139Y-82628222D01*
X130929552Y-82622517D01*
X130743117Y-82519599D01*
X130733705Y-82515369D01*
X130532959Y-82444280D01*
X130522988Y-82441646D01*
X130451837Y-82428972D01*
X130438540Y-82430432D01*
X130434000Y-82444989D01*
X130434000Y-83487885D01*
X129926000Y-83487885D01*
X129926000Y-82443102D01*
X129922082Y-82429758D01*
X129907806Y-82427771D01*
X129869324Y-82433660D01*
X129859288Y-82436051D01*
X129656868Y-82502212D01*
X129647359Y-82506209D01*
X129458463Y-82604542D01*
X129449738Y-82610036D01*
X129279433Y-82737905D01*
X129271726Y-82744748D01*
X129124590Y-82898717D01*
X129118109Y-82906722D01*
X129013498Y-83060074D01*
X128958587Y-83105076D01*
X128888062Y-83113247D01*
X128824315Y-83081993D01*
X128803618Y-83057509D01*
X128722822Y-82932617D01*
X128722820Y-82932614D01*
X128720014Y-82928277D01*
X128569670Y-82763051D01*
X128565619Y-82759852D01*
X128565615Y-82759848D01*
X128398414Y-82627800D01*
X128398410Y-82627798D01*
X128394359Y-82624598D01*
X128358028Y-82604542D01*
X128340300Y-82594756D01*
X128198789Y-82516638D01*
X128193920Y-82514914D01*
X128193916Y-82514912D01*
X127993087Y-82443795D01*
X127993083Y-82443794D01*
X127988212Y-82442069D01*
X127983119Y-82441162D01*
X127983116Y-82441161D01*
X127827826Y-82413500D01*
X127773621Y-82403845D01*
X127710065Y-82372207D01*
X127673701Y-82311230D01*
X127676078Y-82240273D01*
X127706623Y-82190703D01*
X127826921Y-82070405D01*
X127889233Y-82036379D01*
X127916016Y-82033500D01*
X132143984Y-82033500D01*
X132212105Y-82053502D01*
X132233079Y-82070405D01*
X132354595Y-82191921D01*
X132388621Y-82254233D01*
X132391500Y-82281016D01*
X132391500Y-83898134D01*
X132398255Y-83960316D01*
X132449385Y-84096705D01*
X132536739Y-84213261D01*
X132653295Y-84300615D01*
X132789684Y-84351745D01*
X132851866Y-84358500D01*
X132917349Y-84358500D01*
X132985470Y-84378502D01*
X133031963Y-84432158D01*
X133042067Y-84502432D01*
X133024609Y-84550616D01*
X132985631Y-84613850D01*
X132981791Y-84620080D01*
X132927026Y-84785191D01*
X132926326Y-84792027D01*
X132926325Y-84792030D01*
X132925120Y-84803792D01*
X132916500Y-84887928D01*
X132916500Y-85587072D01*
X132916837Y-85590318D01*
X132916837Y-85590322D01*
X132925851Y-85677192D01*
X132927293Y-85691093D01*
X132929474Y-85697629D01*
X132929474Y-85697631D01*
X132956544Y-85778768D01*
X132982346Y-85856107D01*
X133073884Y-86004031D01*
X133079065Y-86009203D01*
X133081139Y-86011273D01*
X133082105Y-86013038D01*
X133083613Y-86014941D01*
X133083287Y-86015199D01*
X133115219Y-86073554D01*
X133110218Y-86144375D01*
X133081292Y-86189470D01*
X133078636Y-86192131D01*
X133069625Y-86203540D01*
X132986088Y-86339063D01*
X132979944Y-86352241D01*
X132929685Y-86503766D01*
X132926819Y-86517132D01*
X132917328Y-86609770D01*
X132917000Y-86616185D01*
X132917000Y-86690385D01*
X132921475Y-86705624D01*
X132922865Y-86706829D01*
X132930548Y-86708500D01*
X134028000Y-86708500D01*
X134096121Y-86728502D01*
X134142614Y-86782158D01*
X134154000Y-86834500D01*
X134154000Y-87989885D01*
X134158475Y-88005124D01*
X134159865Y-88006329D01*
X134167548Y-88008000D01*
X134183766Y-88008000D01*
X134190282Y-88007663D01*
X134284132Y-87997925D01*
X134297528Y-87995032D01*
X134448953Y-87944512D01*
X134462115Y-87938347D01*
X134597492Y-87854574D01*
X134608894Y-87845536D01*
X134610567Y-87843861D01*
X134611993Y-87843081D01*
X134614627Y-87840993D01*
X134614984Y-87841444D01*
X134672849Y-87809781D01*
X134743669Y-87814784D01*
X134788754Y-87843701D01*
X134791421Y-87846363D01*
X134796997Y-87851929D01*
X134803227Y-87855769D01*
X134803228Y-87855770D01*
X134915253Y-87924823D01*
X134945080Y-87943209D01*
X135110191Y-87997974D01*
X135117027Y-87998674D01*
X135117030Y-87998675D01*
X135158924Y-88002967D01*
X135212928Y-88008500D01*
X135787072Y-88008500D01*
X135790318Y-88008163D01*
X135790322Y-88008163D01*
X135884235Y-87998419D01*
X135884239Y-87998418D01*
X135891093Y-87997707D01*
X135897629Y-87995526D01*
X135897631Y-87995526D01*
X136030395Y-87951232D01*
X136056107Y-87942654D01*
X136204031Y-87851116D01*
X136211274Y-87843861D01*
X136213038Y-87842895D01*
X136214941Y-87841387D01*
X136215199Y-87841713D01*
X136273554Y-87809781D01*
X136344375Y-87814782D01*
X136389470Y-87843708D01*
X136392131Y-87846364D01*
X136403540Y-87855375D01*
X136539063Y-87938912D01*
X136552241Y-87945056D01*
X136703766Y-87995315D01*
X136717132Y-87998181D01*
X136809770Y-88007672D01*
X136816185Y-88008000D01*
X136827885Y-88008000D01*
X136843124Y-88003525D01*
X136844329Y-88002135D01*
X136846000Y-87994452D01*
X136846000Y-86884500D01*
X136866002Y-86816379D01*
X136919658Y-86769886D01*
X136972000Y-86758500D01*
X137228000Y-86758500D01*
X137296121Y-86778502D01*
X137342614Y-86832158D01*
X137354000Y-86884500D01*
X137354000Y-87989885D01*
X137358475Y-88005124D01*
X137359865Y-88006329D01*
X137367548Y-88008000D01*
X137383766Y-88008000D01*
X137390282Y-88007663D01*
X137484132Y-87997925D01*
X137497528Y-87995032D01*
X137648953Y-87944512D01*
X137662115Y-87938347D01*
X137797492Y-87854574D01*
X137808890Y-87845540D01*
X137921363Y-87732871D01*
X137930375Y-87721460D01*
X138013912Y-87585937D01*
X138020056Y-87572759D01*
X138070315Y-87421234D01*
X138073181Y-87407868D01*
X138082672Y-87315230D01*
X138083000Y-87308815D01*
X138083000Y-87217013D01*
X138103002Y-87148892D01*
X138156658Y-87102399D01*
X138226932Y-87092295D01*
X138235198Y-87093767D01*
X138298049Y-87107127D01*
X138298058Y-87107128D01*
X138304513Y-87108500D01*
X138391000Y-87108500D01*
X138459121Y-87128502D01*
X138505614Y-87182158D01*
X138517000Y-87234500D01*
X138517000Y-87308766D01*
X138517337Y-87315282D01*
X138527075Y-87409132D01*
X138529968Y-87422528D01*
X138580488Y-87573953D01*
X138586653Y-87587115D01*
X138670426Y-87722492D01*
X138679460Y-87733890D01*
X138792129Y-87846363D01*
X138803540Y-87855375D01*
X138939063Y-87938912D01*
X138952241Y-87945056D01*
X139103766Y-87995315D01*
X139117132Y-87998181D01*
X139209770Y-88007672D01*
X139216185Y-88008000D01*
X139227885Y-88008000D01*
X139243124Y-88003525D01*
X139244329Y-88002135D01*
X139246000Y-87994452D01*
X139246000Y-87989885D01*
X139754000Y-87989885D01*
X139758475Y-88005124D01*
X139759865Y-88006329D01*
X139767548Y-88008000D01*
X139783766Y-88008000D01*
X139790282Y-88007663D01*
X139884132Y-87997925D01*
X139897528Y-87995032D01*
X140048953Y-87944512D01*
X140062115Y-87938347D01*
X140197492Y-87854574D01*
X140208890Y-87845540D01*
X140321363Y-87732871D01*
X140330375Y-87721460D01*
X140413912Y-87585937D01*
X140420056Y-87572759D01*
X140470315Y-87421234D01*
X140473181Y-87407868D01*
X140482672Y-87315230D01*
X140483000Y-87308815D01*
X140483000Y-87234615D01*
X140478525Y-87219376D01*
X140477135Y-87218171D01*
X140469452Y-87216500D01*
X139772115Y-87216500D01*
X139756876Y-87220975D01*
X139755671Y-87222365D01*
X139754000Y-87230048D01*
X139754000Y-87989885D01*
X139246000Y-87989885D01*
X139246000Y-86834500D01*
X139266002Y-86766379D01*
X139319658Y-86719886D01*
X139372000Y-86708500D01*
X140464885Y-86708500D01*
X140480124Y-86704025D01*
X140481329Y-86702635D01*
X140483000Y-86694952D01*
X140483000Y-86616234D01*
X140482663Y-86609718D01*
X140472925Y-86515868D01*
X140470032Y-86502472D01*
X140419512Y-86351047D01*
X140413347Y-86337885D01*
X140329574Y-86202508D01*
X140320536Y-86191106D01*
X140318861Y-86189433D01*
X140318081Y-86188007D01*
X140315993Y-86185373D01*
X140316444Y-86185016D01*
X140284781Y-86127151D01*
X140289784Y-86056331D01*
X140318701Y-86011246D01*
X140321756Y-86008185D01*
X140326929Y-86003003D01*
X140411552Y-85865720D01*
X140414369Y-85861150D01*
X140414370Y-85861148D01*
X140418209Y-85854920D01*
X140472974Y-85689809D01*
X140483500Y-85587072D01*
X140483500Y-84887928D01*
X140482029Y-84873749D01*
X140473419Y-84790765D01*
X140473418Y-84790761D01*
X140472707Y-84783907D01*
X140468951Y-84772647D01*
X140419972Y-84625841D01*
X140417654Y-84618893D01*
X140326116Y-84470969D01*
X140320484Y-84465347D01*
X140320274Y-84464964D01*
X140316387Y-84460059D01*
X140317226Y-84459394D01*
X140286403Y-84403065D01*
X140283500Y-84376172D01*
X140283500Y-84351427D01*
X140303502Y-84283306D01*
X140346314Y-84242483D01*
X140353524Y-84239497D01*
X140475727Y-84145727D01*
X140569497Y-84023524D01*
X140628443Y-83881216D01*
X140635635Y-83826590D01*
X140642962Y-83770931D01*
X140642962Y-83770930D01*
X140643500Y-83766844D01*
X140643500Y-83333156D01*
X140642610Y-83326392D01*
X140629521Y-83226972D01*
X140628443Y-83218784D01*
X140569497Y-83076476D01*
X140475727Y-82954273D01*
X140353524Y-82860503D01*
X140346341Y-82857528D01*
X140297505Y-82806307D01*
X140283500Y-82748573D01*
X140283500Y-82451427D01*
X140303502Y-82383306D01*
X140346314Y-82342483D01*
X140353524Y-82339497D01*
X140475727Y-82245727D01*
X140569497Y-82123524D01*
X140628443Y-81981216D01*
X140643500Y-81866844D01*
X140643500Y-81639492D01*
X140663502Y-81571371D01*
X140673475Y-81557913D01*
X140709652Y-81515329D01*
X140709654Y-81515326D01*
X140714392Y-81509749D01*
X140717720Y-81503232D01*
X140720832Y-81498566D01*
X140723774Y-81493801D01*
X140728318Y-81488058D01*
X140758174Y-81424177D01*
X140760102Y-81420231D01*
X140788847Y-81363937D01*
X140792176Y-81357418D01*
X140793916Y-81350307D01*
X140795869Y-81345055D01*
X140797638Y-81339737D01*
X140800738Y-81333105D01*
X140815102Y-81264049D01*
X140816072Y-81259764D01*
X140819063Y-81247540D01*
X140832830Y-81191279D01*
X140833500Y-81180480D01*
X140833524Y-81180481D01*
X140833788Y-81176066D01*
X140834078Y-81172816D01*
X140835569Y-81165648D01*
X140833546Y-81090877D01*
X140833500Y-81087469D01*
X140833500Y-80317870D01*
X140853502Y-80249749D01*
X140907158Y-80203256D01*
X140915270Y-80199888D01*
X141038297Y-80153767D01*
X141046705Y-80150615D01*
X141163261Y-80063261D01*
X141250615Y-79946705D01*
X141301745Y-79810316D01*
X141308500Y-79748134D01*
X141308500Y-77251866D01*
X141301745Y-77189684D01*
X141250615Y-77053295D01*
X141163261Y-76936739D01*
X141046705Y-76849385D01*
X140910316Y-76798255D01*
X140854440Y-76792185D01*
X140851531Y-76791869D01*
X140848134Y-76791500D01*
X139351866Y-76791500D01*
X139348469Y-76791869D01*
X139345560Y-76792185D01*
X139289684Y-76798255D01*
X139153295Y-76849385D01*
X139036739Y-76936739D01*
X138949385Y-77053295D01*
X138898255Y-77189684D01*
X138891500Y-77251866D01*
X138891500Y-79748134D01*
X138898255Y-79810316D01*
X138949385Y-79946705D01*
X139036739Y-80063261D01*
X139153295Y-80150615D01*
X139161703Y-80153767D01*
X139284730Y-80199888D01*
X139341494Y-80242530D01*
X139366194Y-80309091D01*
X139366500Y-80317870D01*
X139366500Y-80743985D01*
X139346498Y-80812106D01*
X139329595Y-80833080D01*
X139313080Y-80849595D01*
X139250768Y-80883621D01*
X139223985Y-80886500D01*
X139003156Y-80886500D01*
X138999070Y-80887038D01*
X138999069Y-80887038D01*
X138929225Y-80896233D01*
X138888784Y-80901557D01*
X138881155Y-80904717D01*
X138875687Y-80906982D01*
X138746476Y-80960503D01*
X138624273Y-81054273D01*
X138530503Y-81176476D01*
X138471557Y-81318784D01*
X138456500Y-81433156D01*
X138456500Y-81866844D01*
X138471557Y-81981216D01*
X138530503Y-82123524D01*
X138624273Y-82245727D01*
X138746476Y-82339497D01*
X138753659Y-82342472D01*
X138802495Y-82393693D01*
X138816500Y-82451427D01*
X138816500Y-82748573D01*
X138796498Y-82816694D01*
X138753686Y-82857517D01*
X138746476Y-82860503D01*
X138624273Y-82954273D01*
X138530503Y-83076476D01*
X138471557Y-83218784D01*
X138470479Y-83226972D01*
X138457390Y-83326392D01*
X138456500Y-83333156D01*
X138456500Y-83766844D01*
X138457038Y-83770930D01*
X138457038Y-83770931D01*
X138464366Y-83826590D01*
X138471557Y-83881216D01*
X138530503Y-84023524D01*
X138624273Y-84145727D01*
X138719298Y-84218642D01*
X138722450Y-84221061D01*
X138764317Y-84278399D01*
X138768539Y-84349270D01*
X138734919Y-84410041D01*
X138673071Y-84471997D01*
X138669231Y-84478227D01*
X138669230Y-84478228D01*
X138586364Y-84612662D01*
X138581791Y-84620080D01*
X138527026Y-84785191D01*
X138526326Y-84792027D01*
X138526325Y-84792030D01*
X138525120Y-84803792D01*
X138516500Y-84887928D01*
X138516500Y-85131485D01*
X138496498Y-85199606D01*
X138479595Y-85220580D01*
X138445580Y-85254595D01*
X138383268Y-85288621D01*
X138356485Y-85291500D01*
X138304513Y-85291500D01*
X138298053Y-85292873D01*
X138298054Y-85292873D01*
X138235696Y-85306127D01*
X138164906Y-85300725D01*
X138108273Y-85257908D01*
X138083780Y-85191270D01*
X138083500Y-85182880D01*
X138083500Y-84887928D01*
X138082029Y-84873749D01*
X138073419Y-84790765D01*
X138073418Y-84790761D01*
X138072707Y-84783907D01*
X138068951Y-84772647D01*
X138019972Y-84625841D01*
X138017654Y-84618893D01*
X137926116Y-84470969D01*
X137920101Y-84464964D01*
X137893590Y-84438500D01*
X137865236Y-84410195D01*
X137831157Y-84347915D01*
X137836160Y-84277094D01*
X137877550Y-84221061D01*
X137880703Y-84218642D01*
X137975727Y-84145727D01*
X138069497Y-84023524D01*
X138128443Y-83881216D01*
X138135635Y-83826590D01*
X138142962Y-83770931D01*
X138142962Y-83770930D01*
X138143500Y-83766844D01*
X138143500Y-83333156D01*
X138142610Y-83326392D01*
X138129521Y-83226972D01*
X138128443Y-83218784D01*
X138123259Y-83206267D01*
X138088588Y-83122565D01*
X138080999Y-83051975D01*
X138088588Y-83026129D01*
X138124796Y-82938715D01*
X138129034Y-82922897D01*
X138135739Y-82871961D01*
X138133528Y-82857779D01*
X138120370Y-82854000D01*
X137862887Y-82854000D01*
X137814670Y-82844409D01*
X137727157Y-82808160D01*
X137718845Y-82804717D01*
X137711216Y-82801557D01*
X137596844Y-82786500D01*
X136503156Y-82786500D01*
X136388784Y-82801557D01*
X136381155Y-82804717D01*
X136372843Y-82808160D01*
X136285330Y-82844409D01*
X136237113Y-82854000D01*
X135980011Y-82854000D01*
X135966240Y-82858044D01*
X135964211Y-82871583D01*
X135970966Y-82922897D01*
X135975204Y-82938715D01*
X136011412Y-83026129D01*
X136019001Y-83096719D01*
X136011412Y-83122565D01*
X135976742Y-83206267D01*
X135971557Y-83218784D01*
X135970479Y-83226972D01*
X135957390Y-83326392D01*
X135956500Y-83333156D01*
X135956500Y-83766844D01*
X135957038Y-83770930D01*
X135957038Y-83770931D01*
X135964366Y-83826590D01*
X135971557Y-83881216D01*
X135974717Y-83888845D01*
X136027343Y-84015894D01*
X136030503Y-84023524D01*
X136029703Y-84023855D01*
X136044823Y-84086172D01*
X136021605Y-84153264D01*
X135965799Y-84197153D01*
X135893618Y-84203289D01*
X135889809Y-84202026D01*
X135787072Y-84191500D01*
X135296876Y-84191500D01*
X135228755Y-84171498D01*
X135182262Y-84117842D01*
X135172158Y-84047568D01*
X135178894Y-84021270D01*
X135180203Y-84017778D01*
X135201745Y-83960316D01*
X135208500Y-83898134D01*
X135208500Y-81301866D01*
X135201745Y-81239684D01*
X135150615Y-81103295D01*
X135063261Y-80986739D01*
X134946705Y-80899385D01*
X134810316Y-80848255D01*
X134748134Y-80841500D01*
X133135831Y-80841500D01*
X133067710Y-80821498D01*
X133044095Y-80801778D01*
X133040100Y-80796349D01*
X133001280Y-80763369D01*
X132993764Y-80756439D01*
X132988380Y-80751055D01*
X132985519Y-80748792D01*
X132985514Y-80748787D01*
X132966908Y-80734067D01*
X132963507Y-80731278D01*
X132915332Y-80690351D01*
X132915331Y-80690350D01*
X132909749Y-80685608D01*
X132903226Y-80682277D01*
X132898549Y-80679158D01*
X132893795Y-80676222D01*
X132888057Y-80671682D01*
X132824147Y-80641811D01*
X132820239Y-80639901D01*
X132757418Y-80607824D01*
X132750306Y-80606084D01*
X132745020Y-80604118D01*
X132739735Y-80602360D01*
X132733105Y-80599261D01*
X132664032Y-80584894D01*
X132659748Y-80583924D01*
X132591279Y-80567170D01*
X132585677Y-80566822D01*
X132585674Y-80566822D01*
X132580480Y-80566500D01*
X132580481Y-80566476D01*
X132576066Y-80566212D01*
X132572816Y-80565922D01*
X132565648Y-80564431D01*
X132504516Y-80566085D01*
X132490877Y-80566454D01*
X132487469Y-80566500D01*
X127625166Y-80566500D01*
X127606216Y-80565067D01*
X127593007Y-80563057D01*
X127593003Y-80563057D01*
X127585773Y-80561957D01*
X127578481Y-80562550D01*
X127578477Y-80562550D01*
X127535019Y-80566085D01*
X127524805Y-80566500D01*
X127517174Y-80566500D01*
X127513540Y-80566924D01*
X127513534Y-80566924D01*
X127501039Y-80568381D01*
X127489942Y-80569675D01*
X127485594Y-80570105D01*
X127415295Y-80575823D01*
X127408331Y-80578079D01*
X127402835Y-80579177D01*
X127397382Y-80580466D01*
X127390110Y-80581314D01*
X127323798Y-80605384D01*
X127319667Y-80606802D01*
X127306237Y-80611153D01*
X127259538Y-80626281D01*
X127259534Y-80626283D01*
X127252579Y-80628536D01*
X127246329Y-80632328D01*
X127241212Y-80634671D01*
X127236205Y-80637178D01*
X127229333Y-80639673D01*
X127223220Y-80643681D01*
X127223216Y-80643683D01*
X127170337Y-80678353D01*
X127166616Y-80680700D01*
X127106355Y-80717267D01*
X127098245Y-80724429D01*
X127098230Y-80724412D01*
X127094921Y-80727345D01*
X127092413Y-80729442D01*
X127086294Y-80733454D01*
X127081261Y-80738767D01*
X127034851Y-80787758D01*
X127032474Y-80790200D01*
X126458738Y-81363937D01*
X126023595Y-81799080D01*
X125961283Y-81833105D01*
X125890468Y-81828041D01*
X125833632Y-81785494D01*
X125808821Y-81718974D01*
X125808500Y-81709985D01*
X125808500Y-79898134D01*
X132391500Y-79898134D01*
X132398255Y-79960316D01*
X132449385Y-80096705D01*
X132536739Y-80213261D01*
X132653295Y-80300615D01*
X132789684Y-80351745D01*
X132851866Y-80358500D01*
X134748134Y-80358500D01*
X134810316Y-80351745D01*
X134946705Y-80300615D01*
X135063261Y-80213261D01*
X135150615Y-80096705D01*
X135201745Y-79960316D01*
X135208500Y-79898134D01*
X135208500Y-79459500D01*
X135228502Y-79391379D01*
X135282158Y-79344886D01*
X135334500Y-79333500D01*
X135565500Y-79333500D01*
X135633621Y-79353502D01*
X135680114Y-79407158D01*
X135691500Y-79459500D01*
X135691500Y-79748134D01*
X135698255Y-79810316D01*
X135749385Y-79946705D01*
X135836739Y-80063261D01*
X135953295Y-80150615D01*
X136089684Y-80201745D01*
X136151866Y-80208500D01*
X136190500Y-80208500D01*
X136258621Y-80228502D01*
X136305114Y-80282158D01*
X136316500Y-80334500D01*
X136316500Y-80848573D01*
X136296498Y-80916694D01*
X136253686Y-80957517D01*
X136246476Y-80960503D01*
X136124273Y-81054273D01*
X136030503Y-81176476D01*
X135971557Y-81318784D01*
X135956500Y-81433156D01*
X135956500Y-81866844D01*
X135971557Y-81981216D01*
X135974716Y-81988843D01*
X135974717Y-81988846D01*
X136011412Y-82077435D01*
X136019001Y-82148025D01*
X136011412Y-82173871D01*
X135975204Y-82261285D01*
X135970966Y-82277103D01*
X135964261Y-82328039D01*
X135966472Y-82342221D01*
X135979630Y-82346000D01*
X136237113Y-82346000D01*
X136285330Y-82355591D01*
X136369579Y-82390488D01*
X136377317Y-82393693D01*
X136388784Y-82398443D01*
X136396972Y-82399521D01*
X136482571Y-82410790D01*
X136503156Y-82413500D01*
X137596844Y-82413500D01*
X137617429Y-82410790D01*
X137703028Y-82399521D01*
X137711216Y-82398443D01*
X137722684Y-82393693D01*
X137730421Y-82390488D01*
X137814670Y-82355591D01*
X137862887Y-82346000D01*
X138119989Y-82346000D01*
X138133760Y-82341956D01*
X138135789Y-82328417D01*
X138129034Y-82277103D01*
X138124796Y-82261285D01*
X138088588Y-82173871D01*
X138080999Y-82103281D01*
X138088588Y-82077435D01*
X138125283Y-81988846D01*
X138125284Y-81988843D01*
X138128443Y-81981216D01*
X138143500Y-81866844D01*
X138143500Y-81433156D01*
X138128443Y-81318784D01*
X138069497Y-81176476D01*
X137975727Y-81054273D01*
X137853524Y-80960503D01*
X137846341Y-80957528D01*
X137797505Y-80906307D01*
X137783500Y-80848573D01*
X137783500Y-80258433D01*
X137803502Y-80190312D01*
X137845678Y-80151000D01*
X137846705Y-80150615D01*
X137963261Y-80063261D01*
X138050615Y-79946705D01*
X138101745Y-79810316D01*
X138108500Y-79748134D01*
X138108500Y-77251866D01*
X138101745Y-77189684D01*
X138050615Y-77053295D01*
X137963261Y-76936739D01*
X137846705Y-76849385D01*
X137710316Y-76798255D01*
X137654440Y-76792185D01*
X137651531Y-76791869D01*
X137648134Y-76791500D01*
X136151866Y-76791500D01*
X136148469Y-76791869D01*
X136145560Y-76792185D01*
X136089684Y-76798255D01*
X135953295Y-76849385D01*
X135836739Y-76936739D01*
X135749385Y-77053295D01*
X135698255Y-77189684D01*
X135691500Y-77251866D01*
X135691500Y-77740500D01*
X135671498Y-77808621D01*
X135617842Y-77855114D01*
X135565500Y-77866500D01*
X135334500Y-77866500D01*
X135266379Y-77846498D01*
X135219886Y-77792842D01*
X135208500Y-77740500D01*
X135208500Y-77301866D01*
X135201745Y-77239684D01*
X135150615Y-77103295D01*
X135063261Y-76986739D01*
X134946705Y-76899385D01*
X134810316Y-76848255D01*
X134748134Y-76841500D01*
X132851866Y-76841500D01*
X132789684Y-76848255D01*
X132653295Y-76899385D01*
X132536739Y-76986739D01*
X132449385Y-77103295D01*
X132398255Y-77239684D01*
X132391500Y-77301866D01*
X132391500Y-79898134D01*
X125808500Y-79898134D01*
X125808500Y-77384500D01*
X125828502Y-77316379D01*
X125882158Y-77269886D01*
X125934500Y-77258500D01*
X126374834Y-77258500D01*
X126393784Y-77259933D01*
X126406993Y-77261943D01*
X126406997Y-77261943D01*
X126414227Y-77263043D01*
X126421519Y-77262450D01*
X126421522Y-77262450D01*
X126464979Y-77258915D01*
X126475194Y-77258500D01*
X126482826Y-77258500D01*
X126486445Y-77258078D01*
X126486464Y-77258077D01*
X126510069Y-77255325D01*
X126514435Y-77254893D01*
X126541754Y-77252671D01*
X126577404Y-77249771D01*
X126577406Y-77249771D01*
X126584704Y-77249177D01*
X126591673Y-77246919D01*
X126597193Y-77245816D01*
X126602618Y-77244534D01*
X126609890Y-77243686D01*
X126676210Y-77219613D01*
X126680356Y-77218190D01*
X126740458Y-77198720D01*
X126740462Y-77198718D01*
X126747420Y-77196464D01*
X126753672Y-77192670D01*
X126758788Y-77190328D01*
X126763789Y-77187824D01*
X126770667Y-77185327D01*
X126776784Y-77181317D01*
X126776789Y-77181314D01*
X126829654Y-77146653D01*
X126833376Y-77144305D01*
X126888848Y-77110644D01*
X126888849Y-77110643D01*
X126893645Y-77107733D01*
X126901755Y-77100571D01*
X126901770Y-77100588D01*
X126905079Y-77097655D01*
X126907587Y-77095558D01*
X126913706Y-77091546D01*
X126965132Y-77037260D01*
X126967508Y-77034818D01*
X127522580Y-76479745D01*
X127536994Y-76467358D01*
X127547752Y-76459441D01*
X127553651Y-76455100D01*
X127586631Y-76416280D01*
X127593561Y-76408764D01*
X127598945Y-76403380D01*
X127601224Y-76400500D01*
X127615945Y-76381894D01*
X127618716Y-76378514D01*
X127664392Y-76324749D01*
X127667722Y-76318228D01*
X127670826Y-76313573D01*
X127673771Y-76308805D01*
X127678318Y-76303058D01*
X127708174Y-76239177D01*
X127710102Y-76235231D01*
X127734546Y-76187360D01*
X127742176Y-76172418D01*
X127743916Y-76165307D01*
X127745869Y-76160055D01*
X127747638Y-76154737D01*
X127750738Y-76148105D01*
X127765102Y-76079049D01*
X127766072Y-76074764D01*
X127782830Y-76006279D01*
X127783500Y-75995480D01*
X127783524Y-75995481D01*
X127783788Y-75991066D01*
X127784078Y-75987816D01*
X127785569Y-75980648D01*
X127785371Y-75973331D01*
X127786022Y-75966038D01*
X127788573Y-75966266D01*
X127803651Y-75909266D01*
X127856032Y-75861341D01*
X127911449Y-75848500D01*
X129694834Y-75848500D01*
X129713784Y-75849933D01*
X129726993Y-75851943D01*
X129726997Y-75851943D01*
X129734227Y-75853043D01*
X129741519Y-75852450D01*
X129741522Y-75852450D01*
X129784979Y-75848915D01*
X129795194Y-75848500D01*
X129802826Y-75848500D01*
X129806445Y-75848078D01*
X129806464Y-75848077D01*
X129830069Y-75845325D01*
X129834435Y-75844893D01*
X129861754Y-75842671D01*
X129897404Y-75839771D01*
X129897406Y-75839771D01*
X129904704Y-75839177D01*
X129911673Y-75836919D01*
X129917193Y-75835816D01*
X129922618Y-75834534D01*
X129929890Y-75833686D01*
X129996210Y-75809613D01*
X130000356Y-75808190D01*
X130060458Y-75788720D01*
X130060462Y-75788718D01*
X130067420Y-75786464D01*
X130073672Y-75782670D01*
X130078788Y-75780328D01*
X130083789Y-75777824D01*
X130090667Y-75775327D01*
X130096784Y-75771317D01*
X130096789Y-75771314D01*
X130146118Y-75738971D01*
X130149656Y-75736652D01*
X130153376Y-75734305D01*
X130208848Y-75700644D01*
X130208849Y-75700643D01*
X130213645Y-75697733D01*
X130221755Y-75690571D01*
X130221770Y-75690588D01*
X130225079Y-75687655D01*
X130227587Y-75685558D01*
X130233706Y-75681546D01*
X130285149Y-75627242D01*
X130287526Y-75624800D01*
X131963559Y-73948766D01*
X140397000Y-73948766D01*
X140397337Y-73955282D01*
X140407075Y-74049132D01*
X140409968Y-74062528D01*
X140460488Y-74213953D01*
X140466653Y-74227115D01*
X140550426Y-74362492D01*
X140559460Y-74373890D01*
X140672129Y-74486363D01*
X140683540Y-74495375D01*
X140819063Y-74578912D01*
X140832241Y-74585056D01*
X140983766Y-74635315D01*
X140997132Y-74638181D01*
X141089770Y-74647672D01*
X141096185Y-74648000D01*
X141107885Y-74648000D01*
X141123124Y-74643525D01*
X141124329Y-74642135D01*
X141126000Y-74634452D01*
X141126000Y-74629885D01*
X141634000Y-74629885D01*
X141638475Y-74645124D01*
X141639865Y-74646329D01*
X141647548Y-74648000D01*
X141663766Y-74648000D01*
X141670282Y-74647663D01*
X141764132Y-74637925D01*
X141777528Y-74635032D01*
X141928953Y-74584512D01*
X141942115Y-74578347D01*
X142077492Y-74494574D01*
X142088890Y-74485540D01*
X142201363Y-74372871D01*
X142210375Y-74361460D01*
X142293912Y-74225937D01*
X142300056Y-74212759D01*
X142350315Y-74061234D01*
X142353181Y-74047868D01*
X142362672Y-73955230D01*
X142363000Y-73948815D01*
X142363000Y-73874615D01*
X142358525Y-73859376D01*
X142357135Y-73858171D01*
X142349452Y-73856500D01*
X141652115Y-73856500D01*
X141636876Y-73860975D01*
X141635671Y-73862365D01*
X141634000Y-73870048D01*
X141634000Y-74629885D01*
X141126000Y-74629885D01*
X141126000Y-73874615D01*
X141121525Y-73859376D01*
X141120135Y-73858171D01*
X141112452Y-73856500D01*
X140415115Y-73856500D01*
X140399876Y-73860975D01*
X140398671Y-73862365D01*
X140397000Y-73870048D01*
X140397000Y-73948766D01*
X131963559Y-73948766D01*
X132147577Y-73764748D01*
X132161990Y-73752361D01*
X132172752Y-73744441D01*
X132178651Y-73740100D01*
X132211631Y-73701280D01*
X132218561Y-73693764D01*
X132223945Y-73688380D01*
X132226208Y-73685519D01*
X132226213Y-73685514D01*
X132240932Y-73666909D01*
X132243721Y-73663507D01*
X132284653Y-73615328D01*
X132284656Y-73615324D01*
X132289392Y-73609749D01*
X132292721Y-73603228D01*
X132295842Y-73598549D01*
X132298778Y-73593795D01*
X132303318Y-73588057D01*
X132313695Y-73565856D01*
X132333189Y-73524146D01*
X132335099Y-73520239D01*
X132367176Y-73457418D01*
X132368916Y-73450306D01*
X132370882Y-73445020D01*
X132372640Y-73439735D01*
X132375739Y-73433105D01*
X132390106Y-73364032D01*
X132391076Y-73359748D01*
X132394923Y-73344025D01*
X132407830Y-73291279D01*
X132408500Y-73280480D01*
X132408524Y-73280481D01*
X132408788Y-73276066D01*
X132409078Y-73272816D01*
X132410569Y-73265648D01*
X132408546Y-73190877D01*
X132408500Y-73187469D01*
X132408500Y-73032028D01*
X132428502Y-72963907D01*
X132482158Y-72917414D01*
X132534500Y-72906028D01*
X134687306Y-72906028D01*
X134706256Y-72907461D01*
X134719465Y-72909471D01*
X134719469Y-72909471D01*
X134726699Y-72910571D01*
X134733991Y-72909978D01*
X134733994Y-72909978D01*
X134777451Y-72906443D01*
X134787666Y-72906028D01*
X134795298Y-72906028D01*
X134798917Y-72905606D01*
X134798936Y-72905605D01*
X134822541Y-72902853D01*
X134826907Y-72902421D01*
X134859496Y-72899770D01*
X134889876Y-72897299D01*
X134889878Y-72897299D01*
X134897176Y-72896705D01*
X134904145Y-72894447D01*
X134909665Y-72893344D01*
X134915090Y-72892062D01*
X134922362Y-72891214D01*
X134988682Y-72867141D01*
X134992828Y-72865718D01*
X135052930Y-72846248D01*
X135052934Y-72846246D01*
X135059892Y-72843992D01*
X135066144Y-72840198D01*
X135071260Y-72837856D01*
X135076261Y-72835352D01*
X135083139Y-72832855D01*
X135089256Y-72828845D01*
X135089261Y-72828842D01*
X135142126Y-72794181D01*
X135145848Y-72791833D01*
X135201320Y-72758172D01*
X135201321Y-72758171D01*
X135206117Y-72755261D01*
X135214227Y-72748099D01*
X135214242Y-72748116D01*
X135217552Y-72745182D01*
X135220059Y-72743086D01*
X135226178Y-72739074D01*
X135277638Y-72684752D01*
X135280016Y-72682310D01*
X136362581Y-71599745D01*
X136376994Y-71587358D01*
X136393651Y-71575100D01*
X136426625Y-71536287D01*
X136433555Y-71528771D01*
X136438946Y-71523380D01*
X136455959Y-71501876D01*
X136458736Y-71498490D01*
X136499649Y-71450333D01*
X136499653Y-71450328D01*
X136504392Y-71444749D01*
X136507722Y-71438227D01*
X136510834Y-71433561D01*
X136513775Y-71428799D01*
X136518318Y-71423057D01*
X136548194Y-71359132D01*
X136550102Y-71355231D01*
X136578848Y-71298937D01*
X136578850Y-71298931D01*
X136582176Y-71292418D01*
X136583914Y-71285315D01*
X136585870Y-71280056D01*
X136587640Y-71274734D01*
X136590739Y-71268104D01*
X136598576Y-71230426D01*
X136605105Y-71199038D01*
X136606076Y-71194749D01*
X136621496Y-71131733D01*
X136621497Y-71131727D01*
X136622830Y-71126279D01*
X136623500Y-71115480D01*
X136623524Y-71115481D01*
X136623788Y-71111084D01*
X136624080Y-71107810D01*
X136625570Y-71100647D01*
X136623546Y-71025839D01*
X136623500Y-71022431D01*
X136623500Y-70721938D01*
X136643502Y-70653817D01*
X136697158Y-70607324D01*
X136749500Y-70595938D01*
X137993412Y-70595938D01*
X138061533Y-70615940D01*
G37*
G04 #@! TD.AperFunction*
G04 #@! TA.AperFunction,Conductor*
G36*
X128992026Y-86975144D02*
G01*
X129019875Y-87006994D01*
X129079987Y-87105088D01*
X129226250Y-87273938D01*
X129373610Y-87396279D01*
X129391109Y-87410806D01*
X129398126Y-87416632D01*
X129591000Y-87529338D01*
X129799692Y-87609030D01*
X129804760Y-87610061D01*
X129804763Y-87610062D01*
X129912379Y-87631957D01*
X130018597Y-87653567D01*
X130023772Y-87653757D01*
X130023774Y-87653757D01*
X130236673Y-87661564D01*
X130236677Y-87661564D01*
X130241837Y-87661753D01*
X130246957Y-87661097D01*
X130246959Y-87661097D01*
X130272221Y-87657861D01*
X130355019Y-87647254D01*
X130425127Y-87658438D01*
X130460122Y-87683138D01*
X131023889Y-88246905D01*
X131057915Y-88309217D01*
X131052850Y-88380032D01*
X131010303Y-88436868D01*
X130943783Y-88461679D01*
X130934794Y-88462000D01*
X130155331Y-88462001D01*
X130148510Y-88462371D01*
X130097648Y-88467895D01*
X130082396Y-88471521D01*
X129961946Y-88516676D01*
X129946351Y-88525214D01*
X129844276Y-88601715D01*
X129831715Y-88614276D01*
X129755214Y-88716351D01*
X129746676Y-88731946D01*
X129701522Y-88852394D01*
X129697895Y-88867649D01*
X129692369Y-88918514D01*
X129692000Y-88925328D01*
X129692000Y-89022885D01*
X129696475Y-89038124D01*
X129697865Y-89039329D01*
X129705548Y-89041000D01*
X131178000Y-89041000D01*
X131246121Y-89061002D01*
X131292614Y-89114658D01*
X131304000Y-89167000D01*
X131304000Y-89423000D01*
X131283998Y-89491121D01*
X131230342Y-89537614D01*
X131178000Y-89549000D01*
X129710116Y-89549000D01*
X129694877Y-89553475D01*
X129693672Y-89554865D01*
X129692001Y-89562548D01*
X129692001Y-89664669D01*
X129692371Y-89671490D01*
X129697895Y-89722352D01*
X129701521Y-89737604D01*
X129746677Y-89858058D01*
X129752649Y-89868965D01*
X129767818Y-89938322D01*
X129753153Y-89988268D01*
X129749385Y-89993295D01*
X129746236Y-90001696D01*
X129746234Y-90001699D01*
X129727387Y-90051974D01*
X129698255Y-90129684D01*
X129691500Y-90191866D01*
X129691500Y-90450406D01*
X129671498Y-90518527D01*
X129654595Y-90539501D01*
X128063695Y-92130400D01*
X126482747Y-93711348D01*
X126474461Y-93718888D01*
X126467982Y-93723000D01*
X126462557Y-93728777D01*
X126421357Y-93772651D01*
X126418602Y-93775493D01*
X126398865Y-93795230D01*
X126396385Y-93798427D01*
X126388682Y-93807447D01*
X126358414Y-93839679D01*
X126354595Y-93846625D01*
X126354593Y-93846628D01*
X126348652Y-93857434D01*
X126337801Y-93873953D01*
X126325386Y-93889959D01*
X126322241Y-93897228D01*
X126322238Y-93897232D01*
X126307826Y-93930537D01*
X126302609Y-93941187D01*
X126281305Y-93979940D01*
X126279334Y-93987615D01*
X126279334Y-93987616D01*
X126276267Y-93999562D01*
X126269863Y-94018266D01*
X126261819Y-94036855D01*
X126260580Y-94044678D01*
X126260577Y-94044688D01*
X126254901Y-94080524D01*
X126252495Y-94092144D01*
X126243472Y-94127289D01*
X126241500Y-94134970D01*
X126241500Y-94155224D01*
X126239949Y-94174934D01*
X126236780Y-94194943D01*
X126237526Y-94202835D01*
X126240941Y-94238961D01*
X126241500Y-94250819D01*
X126241500Y-95291530D01*
X126221498Y-95359651D01*
X126167842Y-95406144D01*
X126097568Y-95416248D01*
X126031190Y-95385166D01*
X125986628Y-95345042D01*
X125986627Y-95345041D01*
X125981720Y-95340623D01*
X125877135Y-95280241D01*
X125817503Y-95245812D01*
X125817502Y-95245811D01*
X125811780Y-95242508D01*
X125648352Y-95189407D01*
X125631434Y-95183910D01*
X125631433Y-95183910D01*
X125625155Y-95181870D01*
X125618592Y-95181180D01*
X125618591Y-95181180D01*
X125595595Y-95178763D01*
X125478922Y-95166500D01*
X125381078Y-95166500D01*
X125264405Y-95178763D01*
X125241409Y-95181180D01*
X125241408Y-95181180D01*
X125234845Y-95181870D01*
X125228567Y-95183910D01*
X125228566Y-95183910D01*
X125211648Y-95189407D01*
X125048220Y-95242508D01*
X125042498Y-95245811D01*
X125042497Y-95245812D01*
X124982865Y-95280241D01*
X124878280Y-95340623D01*
X124873373Y-95345041D01*
X124873372Y-95345042D01*
X124781752Y-95427537D01*
X124732453Y-95471926D01*
X124728572Y-95477268D01*
X124728570Y-95477270D01*
X124633552Y-95608051D01*
X124617112Y-95630679D01*
X124614428Y-95636707D01*
X124614427Y-95636709D01*
X124584926Y-95702970D01*
X124537298Y-95809944D01*
X124523487Y-95874920D01*
X124498202Y-95993879D01*
X124496500Y-96001885D01*
X124496500Y-96198115D01*
X124497872Y-96204568D01*
X124497872Y-96204572D01*
X124516318Y-96291350D01*
X124537298Y-96390056D01*
X124539983Y-96396086D01*
X124539983Y-96396087D01*
X124602781Y-96537132D01*
X124617112Y-96569321D01*
X124620992Y-96574662D01*
X124620993Y-96574663D01*
X124720291Y-96711334D01*
X124732453Y-96728074D01*
X124737363Y-96732495D01*
X124737364Y-96732496D01*
X124870957Y-96852783D01*
X124878280Y-96859377D01*
X125048220Y-96957492D01*
X125125941Y-96982745D01*
X125228566Y-97016090D01*
X125228567Y-97016090D01*
X125234845Y-97018130D01*
X125241408Y-97018820D01*
X125241409Y-97018820D01*
X125264405Y-97021237D01*
X125381078Y-97033500D01*
X125478922Y-97033500D01*
X125595595Y-97021237D01*
X125618591Y-97018820D01*
X125618592Y-97018820D01*
X125625155Y-97018130D01*
X125631433Y-97016090D01*
X125631434Y-97016090D01*
X125734059Y-96982745D01*
X125811780Y-96957492D01*
X125981720Y-96859377D01*
X125989044Y-96852783D01*
X126031190Y-96814834D01*
X126095197Y-96784117D01*
X126165651Y-96792881D01*
X126220182Y-96838344D01*
X126241500Y-96908470D01*
X126241500Y-102014022D01*
X126221498Y-102082143D01*
X126167842Y-102128636D01*
X126115500Y-102140022D01*
X125551866Y-102140022D01*
X125489684Y-102146777D01*
X125355400Y-102197118D01*
X125353298Y-102197906D01*
X125282490Y-102203089D01*
X125219973Y-102169019D01*
X124314175Y-101263221D01*
X124280149Y-101200909D01*
X124278548Y-101192022D01*
X124268629Y-101122760D01*
X124246289Y-101073624D01*
X124211610Y-100997352D01*
X124208342Y-100990164D01*
X124203395Y-100984011D01*
X124203393Y-100984008D01*
X124171289Y-100944080D01*
X124169149Y-100941418D01*
X124050980Y-100823249D01*
X124016954Y-100760937D01*
X124014075Y-100734154D01*
X124014075Y-100045741D01*
X124015508Y-100026791D01*
X124017518Y-100013582D01*
X124017518Y-100013578D01*
X124018618Y-100006348D01*
X124014490Y-99955594D01*
X124014075Y-99945380D01*
X124014075Y-99937749D01*
X124010900Y-99910517D01*
X124010469Y-99906158D01*
X124005345Y-99843166D01*
X124004752Y-99835870D01*
X124002496Y-99828906D01*
X124001398Y-99823410D01*
X124000109Y-99817957D01*
X123999261Y-99810685D01*
X123975191Y-99744373D01*
X123973768Y-99740228D01*
X123954294Y-99680113D01*
X123954292Y-99680109D01*
X123952039Y-99673154D01*
X123948247Y-99666904D01*
X123945904Y-99661787D01*
X123943397Y-99656780D01*
X123940902Y-99649908D01*
X123936894Y-99643795D01*
X123936892Y-99643791D01*
X123902222Y-99590912D01*
X123899875Y-99587191D01*
X123866216Y-99531723D01*
X123863308Y-99526930D01*
X123856146Y-99518820D01*
X123856163Y-99518805D01*
X123853230Y-99515496D01*
X123851133Y-99512988D01*
X123847121Y-99506869D01*
X123792817Y-99455426D01*
X123790375Y-99453049D01*
X123301564Y-98964238D01*
X122804748Y-98467423D01*
X122792361Y-98453010D01*
X122784441Y-98442248D01*
X122780100Y-98436349D01*
X122741280Y-98403369D01*
X122733764Y-98396439D01*
X122728380Y-98391055D01*
X122725519Y-98388792D01*
X122725514Y-98388787D01*
X122706909Y-98374068D01*
X122703507Y-98371279D01*
X122655328Y-98330347D01*
X122655324Y-98330344D01*
X122649749Y-98325608D01*
X122643228Y-98322279D01*
X122638549Y-98319158D01*
X122633795Y-98316222D01*
X122628057Y-98311682D01*
X122620246Y-98308031D01*
X122564146Y-98281811D01*
X122560239Y-98279901D01*
X122497418Y-98247824D01*
X122490306Y-98246084D01*
X122485020Y-98244118D01*
X122479734Y-98242360D01*
X122473105Y-98239261D01*
X122465940Y-98237771D01*
X122465938Y-98237770D01*
X122448567Y-98234157D01*
X122385947Y-98200702D01*
X122351354Y-98138703D01*
X122355772Y-98067844D01*
X122379000Y-98028285D01*
X122384329Y-98022135D01*
X122386000Y-98014452D01*
X122386000Y-98009885D01*
X122894000Y-98009885D01*
X122898475Y-98025124D01*
X122899865Y-98026329D01*
X122907548Y-98028000D01*
X122923766Y-98028000D01*
X122930282Y-98027663D01*
X123024132Y-98017925D01*
X123037528Y-98015032D01*
X123188953Y-97964512D01*
X123202115Y-97958347D01*
X123337492Y-97874574D01*
X123348890Y-97865540D01*
X123461363Y-97752871D01*
X123470375Y-97741460D01*
X123553912Y-97605937D01*
X123560056Y-97592759D01*
X123610315Y-97441234D01*
X123613181Y-97427868D01*
X123622672Y-97335230D01*
X123623000Y-97328815D01*
X123623000Y-97254615D01*
X123618525Y-97239376D01*
X123617135Y-97238171D01*
X123609452Y-97236500D01*
X122912115Y-97236500D01*
X122896876Y-97240975D01*
X122895671Y-97242365D01*
X122894000Y-97250048D01*
X122894000Y-98009885D01*
X122386000Y-98009885D01*
X122386000Y-97254615D01*
X122381525Y-97239376D01*
X122380135Y-97238171D01*
X122372452Y-97236500D01*
X121675115Y-97236500D01*
X121659876Y-97240975D01*
X121658671Y-97242365D01*
X121657000Y-97250048D01*
X121657000Y-97328766D01*
X121657337Y-97335282D01*
X121667075Y-97429132D01*
X121669968Y-97442528D01*
X121720488Y-97593953D01*
X121726653Y-97607115D01*
X121810426Y-97742492D01*
X121819460Y-97753890D01*
X121932129Y-97866363D01*
X121943540Y-97875375D01*
X122079063Y-97958912D01*
X122094918Y-97966305D01*
X122148204Y-98013222D01*
X122167665Y-98081499D01*
X122147124Y-98149459D01*
X122093101Y-98195525D01*
X122041669Y-98206500D01*
X121309646Y-98206500D01*
X121241525Y-98186498D01*
X121220551Y-98169596D01*
X120425088Y-97374134D01*
X120391063Y-97311821D01*
X120389456Y-97302900D01*
X120380815Y-97242559D01*
X120380814Y-97242556D01*
X120379542Y-97233673D01*
X120357202Y-97184537D01*
X120322523Y-97108265D01*
X120319255Y-97101077D01*
X120314308Y-97094924D01*
X120314306Y-97094921D01*
X120282202Y-97054993D01*
X120280062Y-97052331D01*
X120161893Y-96934162D01*
X120127867Y-96871850D01*
X120124988Y-96845067D01*
X120124988Y-96327504D01*
X120144990Y-96259383D01*
X120161893Y-96238409D01*
X120372397Y-96027905D01*
X120434709Y-95993879D01*
X120461492Y-95991000D01*
X121728669Y-95991000D01*
X121796790Y-96011002D01*
X121817685Y-96027826D01*
X121821112Y-96031246D01*
X121821141Y-96031275D01*
X121855220Y-96093558D01*
X121850217Y-96164378D01*
X121821292Y-96209470D01*
X121818636Y-96212131D01*
X121809625Y-96223540D01*
X121726088Y-96359063D01*
X121719944Y-96372241D01*
X121669685Y-96523766D01*
X121666819Y-96537132D01*
X121657328Y-96629770D01*
X121657000Y-96636185D01*
X121657000Y-96710385D01*
X121661475Y-96725624D01*
X121662865Y-96726829D01*
X121670548Y-96728500D01*
X123604885Y-96728500D01*
X123620124Y-96724025D01*
X123621329Y-96722635D01*
X123623000Y-96714952D01*
X123623000Y-96636234D01*
X123622663Y-96629718D01*
X123612925Y-96535868D01*
X123610032Y-96522472D01*
X123559512Y-96371047D01*
X123553347Y-96357885D01*
X123469574Y-96222508D01*
X123460536Y-96211106D01*
X123458861Y-96209433D01*
X123458081Y-96208007D01*
X123455993Y-96205373D01*
X123456444Y-96205016D01*
X123424781Y-96147151D01*
X123429784Y-96076331D01*
X123458701Y-96031246D01*
X123461756Y-96028185D01*
X123466929Y-96023003D01*
X123475876Y-96008488D01*
X123554369Y-95881150D01*
X123554370Y-95881148D01*
X123558209Y-95874920D01*
X123612974Y-95709809D01*
X123618089Y-95659890D01*
X123619699Y-95644170D01*
X123623500Y-95607072D01*
X123623500Y-95363517D01*
X123643502Y-95295396D01*
X123660404Y-95274422D01*
X124222580Y-94712245D01*
X124236994Y-94699858D01*
X124253651Y-94687600D01*
X124286631Y-94648780D01*
X124293561Y-94641264D01*
X124298945Y-94635880D01*
X124301208Y-94633019D01*
X124301213Y-94633014D01*
X124315932Y-94614409D01*
X124318721Y-94611007D01*
X124359653Y-94562828D01*
X124359656Y-94562824D01*
X124364392Y-94557249D01*
X124367721Y-94550728D01*
X124370842Y-94546049D01*
X124373778Y-94541295D01*
X124378318Y-94535557D01*
X124383522Y-94524424D01*
X124408189Y-94471646D01*
X124410099Y-94467739D01*
X124442176Y-94404918D01*
X124443916Y-94397806D01*
X124445882Y-94392520D01*
X124447640Y-94387235D01*
X124450739Y-94380605D01*
X124465106Y-94311532D01*
X124466076Y-94307248D01*
X124466270Y-94306454D01*
X124482830Y-94238779D01*
X124483500Y-94227980D01*
X124483524Y-94227981D01*
X124483788Y-94223566D01*
X124484078Y-94220316D01*
X124485569Y-94213148D01*
X124483546Y-94138377D01*
X124483500Y-94134969D01*
X124483500Y-94064500D01*
X124503502Y-93996379D01*
X124557158Y-93949886D01*
X124609500Y-93938500D01*
X124648134Y-93938500D01*
X124710316Y-93931745D01*
X124846705Y-93880615D01*
X124963261Y-93793261D01*
X125050615Y-93676705D01*
X125101745Y-93540316D01*
X125108500Y-93478134D01*
X125108500Y-92731866D01*
X125101745Y-92669684D01*
X125098973Y-92662288D01*
X125098971Y-92662282D01*
X125062857Y-92565949D01*
X125057674Y-92495142D01*
X125091595Y-92432773D01*
X125116693Y-92413270D01*
X125121030Y-92410706D01*
X125138776Y-92402012D01*
X125157617Y-92394552D01*
X125193387Y-92368564D01*
X125203307Y-92362048D01*
X125234535Y-92343580D01*
X125234538Y-92343578D01*
X125241362Y-92339542D01*
X125255683Y-92325221D01*
X125270717Y-92312380D01*
X125280694Y-92305131D01*
X125287107Y-92300472D01*
X125315298Y-92266395D01*
X125323288Y-92257616D01*
X128032253Y-89548652D01*
X128040539Y-89541112D01*
X128047018Y-89537000D01*
X128093644Y-89487348D01*
X128096398Y-89484507D01*
X128116135Y-89464770D01*
X128118615Y-89461573D01*
X128126320Y-89452551D01*
X128156586Y-89420321D01*
X128160405Y-89413375D01*
X128160407Y-89413372D01*
X128166348Y-89402566D01*
X128177199Y-89386047D01*
X128177559Y-89385583D01*
X128189614Y-89370041D01*
X128192759Y-89362772D01*
X128192762Y-89362768D01*
X128207174Y-89329463D01*
X128212391Y-89318813D01*
X128233695Y-89280060D01*
X128238733Y-89260437D01*
X128245137Y-89241734D01*
X128250033Y-89230420D01*
X128250033Y-89230419D01*
X128253181Y-89223145D01*
X128254420Y-89215322D01*
X128254423Y-89215312D01*
X128260099Y-89179476D01*
X128262505Y-89167856D01*
X128271528Y-89132711D01*
X128271528Y-89132710D01*
X128273500Y-89125030D01*
X128273500Y-89104776D01*
X128275051Y-89085065D01*
X128276980Y-89072886D01*
X128278220Y-89065057D01*
X128274059Y-89021038D01*
X128273500Y-89009181D01*
X128273500Y-87580427D01*
X128293502Y-87512306D01*
X128334618Y-87472550D01*
X128337994Y-87470896D01*
X128519860Y-87341173D01*
X128552381Y-87308766D01*
X128642083Y-87219376D01*
X128678096Y-87183489D01*
X128742568Y-87093767D01*
X128808453Y-87002077D01*
X128809776Y-87003028D01*
X128856645Y-86959857D01*
X128926580Y-86947625D01*
X128992026Y-86975144D01*
G37*
G04 #@! TD.AperFunction*
G04 #@! TA.AperFunction,Conductor*
G36*
X112919997Y-71527530D02*
G01*
X112929312Y-71531437D01*
X112960565Y-71546043D01*
X112964475Y-71547954D01*
X113027296Y-71580031D01*
X113034408Y-71581771D01*
X113039694Y-71583737D01*
X113044979Y-71585495D01*
X113051609Y-71588594D01*
X113117018Y-71602199D01*
X113120677Y-71602960D01*
X113124961Y-71603930D01*
X113193435Y-71620685D01*
X113199037Y-71621033D01*
X113199040Y-71621033D01*
X113204234Y-71621355D01*
X113204233Y-71621379D01*
X113208648Y-71621643D01*
X113211898Y-71621933D01*
X113219066Y-71623424D01*
X113293837Y-71621401D01*
X113297245Y-71621355D01*
X114460500Y-71621355D01*
X114528621Y-71641357D01*
X114575114Y-71695013D01*
X114586500Y-71747355D01*
X114586500Y-71877072D01*
X114586837Y-71880318D01*
X114586837Y-71880322D01*
X114592927Y-71939010D01*
X114597293Y-71981093D01*
X114599474Y-71987629D01*
X114599474Y-71987631D01*
X114629658Y-72078103D01*
X114652346Y-72146107D01*
X114743884Y-72294031D01*
X114749065Y-72299203D01*
X114751139Y-72301273D01*
X114752105Y-72303038D01*
X114753613Y-72304941D01*
X114753287Y-72305199D01*
X114785219Y-72363554D01*
X114780218Y-72434375D01*
X114751292Y-72479470D01*
X114748636Y-72482131D01*
X114739625Y-72493540D01*
X114656088Y-72629063D01*
X114649944Y-72642241D01*
X114599685Y-72793766D01*
X114596819Y-72807132D01*
X114587328Y-72899770D01*
X114587000Y-72906185D01*
X114587000Y-72980385D01*
X114591475Y-72995624D01*
X114592865Y-72996829D01*
X114600548Y-72998500D01*
X116534885Y-72998500D01*
X116550124Y-72994025D01*
X116551329Y-72992635D01*
X116553000Y-72984952D01*
X116553000Y-72906234D01*
X116552663Y-72899718D01*
X116542925Y-72805868D01*
X116540032Y-72792472D01*
X116489512Y-72641047D01*
X116483347Y-72627885D01*
X116399574Y-72492508D01*
X116390536Y-72481106D01*
X116388861Y-72479433D01*
X116388081Y-72478007D01*
X116385993Y-72475373D01*
X116386444Y-72475016D01*
X116354781Y-72417151D01*
X116359784Y-72346331D01*
X116388701Y-72301246D01*
X116391756Y-72298185D01*
X116396929Y-72293003D01*
X116464673Y-72183103D01*
X116484369Y-72151150D01*
X116484370Y-72151148D01*
X116488209Y-72144920D01*
X116542974Y-71979809D01*
X116553500Y-71877072D01*
X116553500Y-71747355D01*
X116573502Y-71679234D01*
X116627158Y-71632741D01*
X116679500Y-71621355D01*
X117769766Y-71621355D01*
X117788716Y-71622788D01*
X117801925Y-71624798D01*
X117801929Y-71624798D01*
X117809159Y-71625898D01*
X117816451Y-71625305D01*
X117816454Y-71625305D01*
X117859911Y-71621770D01*
X117870126Y-71621355D01*
X117877758Y-71621355D01*
X117881377Y-71620933D01*
X117881396Y-71620932D01*
X117881566Y-71620912D01*
X117881636Y-71620918D01*
X117885044Y-71620720D01*
X117885072Y-71621208D01*
X117930876Y-71625075D01*
X117938234Y-71628421D01*
X118082420Y-71649070D01*
X118091309Y-71647797D01*
X118217720Y-71629694D01*
X118217723Y-71629693D01*
X118226606Y-71628421D01*
X118234773Y-71624708D01*
X118234779Y-71624706D01*
X118287686Y-71600651D01*
X118357977Y-71590665D01*
X118422508Y-71620266D01*
X118428931Y-71626257D01*
X120471853Y-73669179D01*
X120484239Y-73683591D01*
X120496498Y-73700249D01*
X120502081Y-73704992D01*
X120535311Y-73733223D01*
X120542827Y-73740153D01*
X120548218Y-73745544D01*
X120569722Y-73762557D01*
X120573108Y-73765334D01*
X120621265Y-73806247D01*
X120621270Y-73806251D01*
X120626849Y-73810990D01*
X120633371Y-73814320D01*
X120638049Y-73817440D01*
X120642803Y-73820376D01*
X120648541Y-73824916D01*
X120655168Y-73828013D01*
X120655169Y-73828014D01*
X120712452Y-73854787D01*
X120716359Y-73856697D01*
X120779180Y-73888774D01*
X120786292Y-73890514D01*
X120791578Y-73892480D01*
X120796863Y-73894238D01*
X120803493Y-73897337D01*
X120872570Y-73911705D01*
X120876854Y-73912675D01*
X120945319Y-73929428D01*
X120950921Y-73929776D01*
X120950924Y-73929776D01*
X120956118Y-73930098D01*
X120956117Y-73930122D01*
X120960514Y-73930386D01*
X120963788Y-73930678D01*
X120970951Y-73932168D01*
X121045759Y-73930144D01*
X121049167Y-73930098D01*
X121473672Y-73930098D01*
X121541793Y-73950100D01*
X121588286Y-74003756D01*
X121593537Y-74017260D01*
X121596010Y-74024894D01*
X121599804Y-74031147D01*
X121602146Y-74036262D01*
X121604650Y-74041263D01*
X121607147Y-74048141D01*
X121611157Y-74054258D01*
X121611160Y-74054263D01*
X121645821Y-74107128D01*
X121648169Y-74110850D01*
X121673904Y-74153260D01*
X121684741Y-74171119D01*
X121688453Y-74175322D01*
X121691903Y-74179229D01*
X121691886Y-74179244D01*
X121694820Y-74182554D01*
X121696916Y-74185061D01*
X121700928Y-74191180D01*
X121741414Y-74229533D01*
X121755250Y-74242640D01*
X121757692Y-74245018D01*
X124304595Y-76791921D01*
X124338621Y-76854233D01*
X124341500Y-76881016D01*
X124341500Y-82567655D01*
X124321498Y-82635776D01*
X124291153Y-82668415D01*
X124199100Y-82737530D01*
X124194965Y-82740635D01*
X124191393Y-82744373D01*
X124083104Y-82857691D01*
X124040629Y-82902138D01*
X123914743Y-83086680D01*
X123898899Y-83120814D01*
X123834179Y-83260242D01*
X123820688Y-83289305D01*
X123760989Y-83504570D01*
X123737251Y-83726695D01*
X123737548Y-83731848D01*
X123737548Y-83731851D01*
X123747637Y-83906830D01*
X123750110Y-83949715D01*
X123754167Y-83967715D01*
X123759037Y-83989325D01*
X123754499Y-84060177D01*
X123712377Y-84117328D01*
X123646044Y-84142634D01*
X123576559Y-84128059D01*
X123547028Y-84106124D01*
X122853641Y-83412736D01*
X122846112Y-83404462D01*
X122842000Y-83397982D01*
X122792348Y-83351356D01*
X122789507Y-83348602D01*
X122769770Y-83328865D01*
X122766573Y-83326385D01*
X122757551Y-83318680D01*
X122731100Y-83293841D01*
X122725321Y-83288414D01*
X122718375Y-83284595D01*
X122718372Y-83284593D01*
X122707566Y-83278652D01*
X122691047Y-83267801D01*
X122690583Y-83267441D01*
X122675041Y-83255386D01*
X122667772Y-83252241D01*
X122667768Y-83252238D01*
X122634463Y-83237826D01*
X122623813Y-83232609D01*
X122585060Y-83211305D01*
X122565437Y-83206267D01*
X122546734Y-83199863D01*
X122535420Y-83194967D01*
X122535419Y-83194967D01*
X122528145Y-83191819D01*
X122520322Y-83190580D01*
X122520312Y-83190577D01*
X122484476Y-83184901D01*
X122472856Y-83182495D01*
X122437711Y-83173472D01*
X122437710Y-83173472D01*
X122430030Y-83171500D01*
X122409776Y-83171500D01*
X122390065Y-83169949D01*
X122377886Y-83168020D01*
X122370057Y-83166780D01*
X122362165Y-83167526D01*
X122326039Y-83170941D01*
X122314181Y-83171500D01*
X121074802Y-83171500D01*
X121006681Y-83151498D01*
X120973976Y-83121065D01*
X120938642Y-83073919D01*
X120933261Y-83066739D01*
X120816705Y-82979385D01*
X120680316Y-82928255D01*
X120618134Y-82921500D01*
X119521866Y-82921500D01*
X119459684Y-82928255D01*
X119323295Y-82979385D01*
X119206739Y-83066739D01*
X119201358Y-83073919D01*
X119166024Y-83121065D01*
X119109165Y-83163580D01*
X119065198Y-83171500D01*
X115074802Y-83171500D01*
X115006681Y-83151498D01*
X114973976Y-83121065D01*
X114938642Y-83073919D01*
X114933261Y-83066739D01*
X114816705Y-82979385D01*
X114680316Y-82928255D01*
X114618134Y-82921500D01*
X113521866Y-82921500D01*
X113459684Y-82928255D01*
X113323295Y-82979385D01*
X113206739Y-83066739D01*
X113119385Y-83183295D01*
X113068255Y-83319684D01*
X113061500Y-83381866D01*
X113061500Y-84228134D01*
X113068255Y-84290316D01*
X113119385Y-84426705D01*
X113206739Y-84543261D01*
X113323295Y-84630615D01*
X113459684Y-84681745D01*
X113521866Y-84688500D01*
X114618134Y-84688500D01*
X114680316Y-84681745D01*
X114816705Y-84630615D01*
X114933261Y-84543261D01*
X114973976Y-84488935D01*
X115030835Y-84446420D01*
X115074802Y-84438500D01*
X119065198Y-84438500D01*
X119133319Y-84458502D01*
X119166024Y-84488935D01*
X119206739Y-84543261D01*
X119323295Y-84630615D01*
X119459684Y-84681745D01*
X119521866Y-84688500D01*
X120618134Y-84688500D01*
X120680316Y-84681745D01*
X120816705Y-84630615D01*
X120933261Y-84543261D01*
X120973976Y-84488935D01*
X121030835Y-84446420D01*
X121074802Y-84438500D01*
X122035406Y-84438500D01*
X122103527Y-84458502D01*
X122124501Y-84475405D01*
X123704595Y-86055500D01*
X123738621Y-86117812D01*
X123741500Y-86144595D01*
X123741500Y-86460406D01*
X123721498Y-86528527D01*
X123704595Y-86549501D01*
X122942023Y-87312072D01*
X122182747Y-88071348D01*
X122174461Y-88078888D01*
X122167982Y-88083000D01*
X122162557Y-88088777D01*
X122121357Y-88132651D01*
X122118602Y-88135493D01*
X122098865Y-88155230D01*
X122096385Y-88158427D01*
X122088682Y-88167447D01*
X122058414Y-88199679D01*
X122054595Y-88206625D01*
X122054593Y-88206628D01*
X122048652Y-88217434D01*
X122037801Y-88233953D01*
X122025386Y-88249959D01*
X122022241Y-88257228D01*
X122022238Y-88257232D01*
X122007826Y-88290537D01*
X122002609Y-88301187D01*
X121981305Y-88339940D01*
X121979334Y-88347615D01*
X121979334Y-88347616D01*
X121976267Y-88359562D01*
X121969863Y-88378266D01*
X121965943Y-88387326D01*
X121961819Y-88396855D01*
X121960580Y-88404678D01*
X121960577Y-88404688D01*
X121954901Y-88440524D01*
X121952495Y-88452144D01*
X121948451Y-88467895D01*
X121941500Y-88494970D01*
X121941500Y-88515224D01*
X121939949Y-88534934D01*
X121936780Y-88554943D01*
X121940604Y-88595391D01*
X121940941Y-88598961D01*
X121941500Y-88610819D01*
X121941500Y-89836233D01*
X121940973Y-89847416D01*
X121939298Y-89854909D01*
X121939547Y-89862835D01*
X121939547Y-89862836D01*
X121941438Y-89922986D01*
X121941500Y-89926945D01*
X121941500Y-89954856D01*
X121941997Y-89958790D01*
X121941997Y-89958791D01*
X121942005Y-89958856D01*
X121942938Y-89970693D01*
X121944327Y-90014889D01*
X121949978Y-90034339D01*
X121953987Y-90053700D01*
X121956526Y-90073797D01*
X121959445Y-90081168D01*
X121959445Y-90081170D01*
X121972804Y-90114912D01*
X121976649Y-90126142D01*
X121986771Y-90160983D01*
X121988982Y-90168593D01*
X121993015Y-90175412D01*
X121993017Y-90175417D01*
X121999293Y-90186028D01*
X122007988Y-90203776D01*
X122015448Y-90222617D01*
X122020110Y-90229033D01*
X122020110Y-90229034D01*
X122041436Y-90258387D01*
X122047952Y-90268307D01*
X122070458Y-90306362D01*
X122084779Y-90320683D01*
X122097619Y-90335716D01*
X122109528Y-90352107D01*
X122115636Y-90357160D01*
X122143598Y-90380292D01*
X122152378Y-90388282D01*
X122354595Y-90590499D01*
X122388621Y-90652811D01*
X122391500Y-90679594D01*
X122391500Y-90938134D01*
X122398255Y-91000316D01*
X122449385Y-91136705D01*
X122452727Y-91141164D01*
X122467530Y-91208848D01*
X122452933Y-91258561D01*
X122449385Y-91263295D01*
X122446236Y-91271696D01*
X122446234Y-91271699D01*
X122415976Y-91352414D01*
X122398255Y-91399684D01*
X122391500Y-91461866D01*
X122391500Y-92130400D01*
X122371498Y-92198521D01*
X122317842Y-92245014D01*
X122247568Y-92255118D01*
X122214252Y-92245507D01*
X122098323Y-92193892D01*
X122098315Y-92193889D01*
X122092288Y-92191206D01*
X121996676Y-92170883D01*
X121911944Y-92152872D01*
X121911939Y-92152872D01*
X121905487Y-92151500D01*
X121714513Y-92151500D01*
X121708061Y-92152872D01*
X121708056Y-92152872D01*
X121623324Y-92170883D01*
X121527712Y-92191206D01*
X121521682Y-92193891D01*
X121521681Y-92193891D01*
X121359278Y-92266197D01*
X121359276Y-92266198D01*
X121353248Y-92268882D01*
X121347907Y-92272762D01*
X121347906Y-92272763D01*
X121323587Y-92290432D01*
X121198747Y-92381134D01*
X121194326Y-92386044D01*
X121194325Y-92386045D01*
X121098890Y-92492037D01*
X121070960Y-92523056D01*
X120975473Y-92688444D01*
X120916458Y-92870072D01*
X120915768Y-92876633D01*
X120915768Y-92876635D01*
X120904614Y-92982763D01*
X120896496Y-93060000D01*
X120897186Y-93066565D01*
X120912471Y-93211990D01*
X120916458Y-93249928D01*
X120975473Y-93431556D01*
X121070960Y-93596944D01*
X121198747Y-93738866D01*
X121276325Y-93795230D01*
X121337504Y-93839679D01*
X121353248Y-93851118D01*
X121359276Y-93853802D01*
X121359278Y-93853803D01*
X121521681Y-93926109D01*
X121527712Y-93928794D01*
X121596997Y-93943521D01*
X121708056Y-93967128D01*
X121708061Y-93967128D01*
X121714513Y-93968500D01*
X121905487Y-93968500D01*
X121911939Y-93967128D01*
X121911944Y-93967128D01*
X122023003Y-93943521D01*
X122092288Y-93928794D01*
X122098319Y-93926109D01*
X122260722Y-93853803D01*
X122260724Y-93853802D01*
X122266752Y-93851118D01*
X122282497Y-93839679D01*
X122312935Y-93817564D01*
X122379803Y-93793706D01*
X122386996Y-93793500D01*
X122495083Y-93793500D01*
X122563204Y-93813502D01*
X122570641Y-93818669D01*
X122653295Y-93880615D01*
X122661704Y-93883767D01*
X122661705Y-93883768D01*
X122707351Y-93900880D01*
X122764116Y-93943521D01*
X122788816Y-94010083D01*
X122773609Y-94079432D01*
X122752217Y-94107957D01*
X122685579Y-94174595D01*
X122623267Y-94208621D01*
X122596484Y-94211500D01*
X122352928Y-94211500D01*
X122349682Y-94211837D01*
X122349678Y-94211837D01*
X122255765Y-94221581D01*
X122255761Y-94221582D01*
X122248907Y-94222293D01*
X122242371Y-94224474D01*
X122242369Y-94224474D01*
X122181220Y-94244875D01*
X122083893Y-94277346D01*
X121935969Y-94368884D01*
X121930796Y-94374066D01*
X121818041Y-94487018D01*
X121755759Y-94521097D01*
X121728868Y-94524000D01*
X120170650Y-94524000D01*
X120151699Y-94522567D01*
X120138483Y-94520556D01*
X120138480Y-94520556D01*
X120131250Y-94519456D01*
X120123959Y-94520049D01*
X120123956Y-94520049D01*
X120080489Y-94523585D01*
X120070274Y-94524000D01*
X120062650Y-94524000D01*
X120035410Y-94527176D01*
X120031090Y-94527603D01*
X120003085Y-94529881D01*
X119968069Y-94532729D01*
X119968065Y-94532730D01*
X119960772Y-94533323D01*
X119953808Y-94535579D01*
X119948293Y-94536681D01*
X119942854Y-94537967D01*
X119935586Y-94538814D01*
X119928708Y-94541311D01*
X119928702Y-94541312D01*
X119869279Y-94562882D01*
X119865176Y-94564292D01*
X119798056Y-94586035D01*
X119791793Y-94589835D01*
X119786677Y-94592178D01*
X119781688Y-94594676D01*
X119774809Y-94597173D01*
X119768688Y-94601186D01*
X119768686Y-94601187D01*
X119715833Y-94635839D01*
X119712114Y-94638185D01*
X119651831Y-94674767D01*
X119643721Y-94681929D01*
X119643706Y-94681912D01*
X119640397Y-94684845D01*
X119637889Y-94686942D01*
X119631770Y-94690954D01*
X119626737Y-94696267D01*
X119580326Y-94745259D01*
X119577949Y-94747701D01*
X119480583Y-94845067D01*
X119418271Y-94879093D01*
X119347456Y-94874028D01*
X119302393Y-94845067D01*
X119024745Y-94567419D01*
X119012358Y-94553006D01*
X119006992Y-94545714D01*
X119000100Y-94536349D01*
X118961280Y-94503369D01*
X118953764Y-94496439D01*
X118948380Y-94491055D01*
X118945519Y-94488792D01*
X118945514Y-94488787D01*
X118926909Y-94474068D01*
X118923507Y-94471279D01*
X118875328Y-94430347D01*
X118875324Y-94430344D01*
X118869749Y-94425608D01*
X118863228Y-94422279D01*
X118858549Y-94419158D01*
X118853795Y-94416222D01*
X118848057Y-94411682D01*
X118827105Y-94401889D01*
X118784146Y-94381811D01*
X118780239Y-94379901D01*
X118717418Y-94347824D01*
X118710306Y-94346084D01*
X118705020Y-94344118D01*
X118699735Y-94342360D01*
X118693105Y-94339261D01*
X118624032Y-94324894D01*
X118619748Y-94323924D01*
X118551279Y-94307170D01*
X118545677Y-94306822D01*
X118545674Y-94306822D01*
X118540480Y-94306500D01*
X118540481Y-94306476D01*
X118536066Y-94306212D01*
X118532816Y-94305922D01*
X118525648Y-94304431D01*
X118459851Y-94306211D01*
X118450877Y-94306454D01*
X118447469Y-94306500D01*
X117409646Y-94306500D01*
X117341525Y-94286498D01*
X117320551Y-94269596D01*
X116536001Y-93485047D01*
X116501976Y-93422734D01*
X116500369Y-93413813D01*
X116491728Y-93353472D01*
X116491727Y-93353469D01*
X116490455Y-93344586D01*
X116468115Y-93295450D01*
X116433436Y-93219178D01*
X116430168Y-93211990D01*
X116425221Y-93205837D01*
X116425219Y-93205834D01*
X116400014Y-93174486D01*
X116390975Y-93163244D01*
X116272806Y-93045075D01*
X116238780Y-92982763D01*
X116235901Y-92955980D01*
X116235901Y-91987575D01*
X116237334Y-91968624D01*
X116239345Y-91955408D01*
X116239345Y-91955405D01*
X116240445Y-91948175D01*
X116236316Y-91897414D01*
X116235901Y-91887199D01*
X116235901Y-91879575D01*
X116232725Y-91852335D01*
X116232296Y-91847995D01*
X116231814Y-91842062D01*
X116227753Y-91792137D01*
X116227172Y-91784994D01*
X116227171Y-91784990D01*
X116226578Y-91777697D01*
X116224322Y-91770733D01*
X116223220Y-91765218D01*
X116221934Y-91759779D01*
X116221087Y-91752511D01*
X116218590Y-91745633D01*
X116218589Y-91745627D01*
X116197019Y-91686204D01*
X116195609Y-91682101D01*
X116173866Y-91614981D01*
X116170066Y-91608718D01*
X116167723Y-91603602D01*
X116165225Y-91598613D01*
X116162728Y-91591734D01*
X116151309Y-91574316D01*
X116124062Y-91532758D01*
X116121716Y-91529040D01*
X116088048Y-91473558D01*
X116085134Y-91468756D01*
X116077972Y-91460646D01*
X116077989Y-91460631D01*
X116075056Y-91457322D01*
X116072959Y-91454814D01*
X116068947Y-91448695D01*
X116014661Y-91397269D01*
X116012220Y-91394894D01*
X115104745Y-90487420D01*
X115092358Y-90473006D01*
X115084441Y-90462248D01*
X115080100Y-90456349D01*
X115041280Y-90423369D01*
X115033764Y-90416439D01*
X115028380Y-90411055D01*
X115025519Y-90408792D01*
X115025514Y-90408787D01*
X115006909Y-90394068D01*
X115003507Y-90391279D01*
X114955328Y-90350347D01*
X114955324Y-90350344D01*
X114949749Y-90345608D01*
X114943228Y-90342279D01*
X114938549Y-90339158D01*
X114933795Y-90336222D01*
X114928057Y-90331682D01*
X114864147Y-90301811D01*
X114860239Y-90299901D01*
X114797418Y-90267824D01*
X114790306Y-90266084D01*
X114785020Y-90264118D01*
X114779735Y-90262360D01*
X114773105Y-90259261D01*
X114704032Y-90244894D01*
X114699748Y-90243924D01*
X114692727Y-90242206D01*
X114631279Y-90227170D01*
X114625677Y-90226822D01*
X114625674Y-90226822D01*
X114620480Y-90226500D01*
X114620481Y-90226476D01*
X114616066Y-90226212D01*
X114612816Y-90225922D01*
X114605648Y-90224431D01*
X114539851Y-90226211D01*
X114530877Y-90226454D01*
X114527469Y-90226500D01*
X113329645Y-90226500D01*
X113261524Y-90206498D01*
X113240550Y-90189595D01*
X112646914Y-89595959D01*
X112612888Y-89533647D01*
X112611287Y-89524759D01*
X112601368Y-89455499D01*
X112541081Y-89322903D01*
X112536134Y-89316750D01*
X112536132Y-89316747D01*
X112504028Y-89276819D01*
X112501888Y-89274157D01*
X112383719Y-89155988D01*
X112349693Y-89093676D01*
X112346814Y-89066893D01*
X112346814Y-88308480D01*
X112348247Y-88289530D01*
X112350257Y-88276321D01*
X112350257Y-88276317D01*
X112351357Y-88269087D01*
X112349802Y-88249959D01*
X112347229Y-88218333D01*
X112346814Y-88208119D01*
X112346814Y-88200488D01*
X112343639Y-88173256D01*
X112343208Y-88168897D01*
X112337491Y-88098609D01*
X112335235Y-88091645D01*
X112334137Y-88086149D01*
X112332848Y-88080696D01*
X112332000Y-88073424D01*
X112307930Y-88007112D01*
X112306507Y-88002967D01*
X112306238Y-88002135D01*
X112297340Y-87974669D01*
X113062001Y-87974669D01*
X113062371Y-87981490D01*
X113067895Y-88032352D01*
X113071521Y-88047604D01*
X113116676Y-88168054D01*
X113125214Y-88183649D01*
X113201715Y-88285724D01*
X113214276Y-88298285D01*
X113316351Y-88374786D01*
X113331946Y-88383324D01*
X113452394Y-88428478D01*
X113467649Y-88432105D01*
X113518514Y-88437631D01*
X113525328Y-88438000D01*
X113797885Y-88438000D01*
X113813124Y-88433525D01*
X113814329Y-88432135D01*
X113816000Y-88424452D01*
X113816000Y-88419884D01*
X114324000Y-88419884D01*
X114328475Y-88435123D01*
X114329865Y-88436328D01*
X114337548Y-88437999D01*
X114614669Y-88437999D01*
X114621490Y-88437629D01*
X114672352Y-88432105D01*
X114687604Y-88428479D01*
X114808054Y-88383324D01*
X114823649Y-88374786D01*
X114925724Y-88298285D01*
X114938285Y-88285724D01*
X115014786Y-88183649D01*
X115023324Y-88168054D01*
X115068478Y-88047606D01*
X115072105Y-88032351D01*
X115077631Y-87981486D01*
X115078000Y-87974672D01*
X115078000Y-87974669D01*
X119062001Y-87974669D01*
X119062371Y-87981490D01*
X119067895Y-88032352D01*
X119071521Y-88047604D01*
X119116676Y-88168054D01*
X119125214Y-88183649D01*
X119201715Y-88285724D01*
X119214276Y-88298285D01*
X119316351Y-88374786D01*
X119331946Y-88383324D01*
X119452394Y-88428478D01*
X119467649Y-88432105D01*
X119518514Y-88437631D01*
X119525328Y-88438000D01*
X119797885Y-88438000D01*
X119813124Y-88433525D01*
X119814329Y-88432135D01*
X119816000Y-88424452D01*
X119816000Y-88419884D01*
X120324000Y-88419884D01*
X120328475Y-88435123D01*
X120329865Y-88436328D01*
X120337548Y-88437999D01*
X120614669Y-88437999D01*
X120621490Y-88437629D01*
X120672352Y-88432105D01*
X120687604Y-88428479D01*
X120808054Y-88383324D01*
X120823649Y-88374786D01*
X120925724Y-88298285D01*
X120938285Y-88285724D01*
X121014786Y-88183649D01*
X121023324Y-88168054D01*
X121068478Y-88047606D01*
X121072105Y-88032351D01*
X121077631Y-87981486D01*
X121078000Y-87974672D01*
X121078000Y-87827115D01*
X121073525Y-87811876D01*
X121072135Y-87810671D01*
X121064452Y-87809000D01*
X120342115Y-87809000D01*
X120326876Y-87813475D01*
X120325671Y-87814865D01*
X120324000Y-87822548D01*
X120324000Y-88419884D01*
X119816000Y-88419884D01*
X119816000Y-87827115D01*
X119811525Y-87811876D01*
X119810135Y-87810671D01*
X119802452Y-87809000D01*
X119080116Y-87809000D01*
X119064877Y-87813475D01*
X119063672Y-87814865D01*
X119062001Y-87822548D01*
X119062001Y-87974669D01*
X115078000Y-87974669D01*
X115078000Y-87827115D01*
X115073525Y-87811876D01*
X115072135Y-87810671D01*
X115064452Y-87809000D01*
X114342115Y-87809000D01*
X114326876Y-87813475D01*
X114325671Y-87814865D01*
X114324000Y-87822548D01*
X114324000Y-88419884D01*
X113816000Y-88419884D01*
X113816000Y-87827115D01*
X113811525Y-87811876D01*
X113810135Y-87810671D01*
X113802452Y-87809000D01*
X113080116Y-87809000D01*
X113064877Y-87813475D01*
X113063672Y-87814865D01*
X113062001Y-87822548D01*
X113062001Y-87974669D01*
X112297340Y-87974669D01*
X112295296Y-87968359D01*
X112287033Y-87942852D01*
X112287031Y-87942848D01*
X112284778Y-87935893D01*
X112280986Y-87929643D01*
X112278643Y-87924526D01*
X112276136Y-87919519D01*
X112273641Y-87912647D01*
X112269633Y-87906534D01*
X112269631Y-87906530D01*
X112234961Y-87853651D01*
X112232614Y-87849930D01*
X112198961Y-87794471D01*
X112198960Y-87794470D01*
X112196047Y-87789669D01*
X112188884Y-87781559D01*
X112188902Y-87781543D01*
X112185972Y-87778239D01*
X112183873Y-87775728D01*
X112179860Y-87769608D01*
X112125519Y-87718130D01*
X112123077Y-87715752D01*
X111690210Y-87282885D01*
X113062000Y-87282885D01*
X113066475Y-87298124D01*
X113067865Y-87299329D01*
X113075548Y-87301000D01*
X113797885Y-87301000D01*
X113813124Y-87296525D01*
X113814329Y-87295135D01*
X113816000Y-87287452D01*
X113816000Y-87282885D01*
X114324000Y-87282885D01*
X114328475Y-87298124D01*
X114329865Y-87299329D01*
X114337548Y-87301000D01*
X115059884Y-87301000D01*
X115075123Y-87296525D01*
X115076328Y-87295135D01*
X115077999Y-87287452D01*
X115077999Y-87282885D01*
X119062000Y-87282885D01*
X119066475Y-87298124D01*
X119067865Y-87299329D01*
X119075548Y-87301000D01*
X119797885Y-87301000D01*
X119813124Y-87296525D01*
X119814329Y-87295135D01*
X119816000Y-87287452D01*
X119816000Y-87282885D01*
X120324000Y-87282885D01*
X120328475Y-87298124D01*
X120329865Y-87299329D01*
X120337548Y-87301000D01*
X121059884Y-87301000D01*
X121075123Y-87296525D01*
X121076328Y-87295135D01*
X121077999Y-87287452D01*
X121077999Y-87135331D01*
X121077629Y-87128502D01*
X121072105Y-87077648D01*
X121068479Y-87062396D01*
X121023324Y-86941946D01*
X121014786Y-86926351D01*
X120938285Y-86824276D01*
X120925724Y-86811715D01*
X120823649Y-86735214D01*
X120808054Y-86726676D01*
X120687606Y-86681522D01*
X120672351Y-86677895D01*
X120621486Y-86672369D01*
X120614672Y-86672000D01*
X120342115Y-86672000D01*
X120326876Y-86676475D01*
X120325671Y-86677865D01*
X120324000Y-86685548D01*
X120324000Y-87282885D01*
X119816000Y-87282885D01*
X119816000Y-86690116D01*
X119811525Y-86674877D01*
X119810135Y-86673672D01*
X119802452Y-86672001D01*
X119525331Y-86672001D01*
X119518510Y-86672371D01*
X119467648Y-86677895D01*
X119452396Y-86681521D01*
X119331946Y-86726676D01*
X119316351Y-86735214D01*
X119214276Y-86811715D01*
X119201715Y-86824276D01*
X119125214Y-86926351D01*
X119116676Y-86941946D01*
X119071522Y-87062394D01*
X119067895Y-87077649D01*
X119062370Y-87128502D01*
X119062000Y-87135328D01*
X119062000Y-87282885D01*
X115077999Y-87282885D01*
X115077999Y-87135331D01*
X115077629Y-87128502D01*
X115072105Y-87077648D01*
X115068479Y-87062396D01*
X115023324Y-86941946D01*
X115014786Y-86926351D01*
X114938285Y-86824276D01*
X114925724Y-86811715D01*
X114823649Y-86735214D01*
X114808054Y-86726676D01*
X114687606Y-86681522D01*
X114672351Y-86677895D01*
X114621486Y-86672369D01*
X114614672Y-86672000D01*
X114342115Y-86672000D01*
X114326876Y-86676475D01*
X114325671Y-86677865D01*
X114324000Y-86685548D01*
X114324000Y-87282885D01*
X113816000Y-87282885D01*
X113816000Y-86690116D01*
X113811525Y-86674877D01*
X113810135Y-86673672D01*
X113802452Y-86672001D01*
X113525331Y-86672001D01*
X113518510Y-86672371D01*
X113467648Y-86677895D01*
X113452396Y-86681521D01*
X113331946Y-86726676D01*
X113316351Y-86735214D01*
X113214276Y-86811715D01*
X113201715Y-86824276D01*
X113125214Y-86926351D01*
X113116676Y-86941946D01*
X113071522Y-87062394D01*
X113067895Y-87077649D01*
X113062370Y-87128502D01*
X113062000Y-87135328D01*
X113062000Y-87282885D01*
X111690210Y-87282885D01*
X111164748Y-86757423D01*
X111152361Y-86743010D01*
X111144441Y-86732248D01*
X111140100Y-86726349D01*
X111101280Y-86693369D01*
X111093764Y-86686439D01*
X111088380Y-86681055D01*
X111085519Y-86678792D01*
X111085514Y-86678787D01*
X111066909Y-86664068D01*
X111063507Y-86661279D01*
X111015328Y-86620347D01*
X111015324Y-86620344D01*
X111009749Y-86615608D01*
X111003228Y-86612279D01*
X110998549Y-86609158D01*
X110993795Y-86606222D01*
X110988057Y-86601682D01*
X110977518Y-86596756D01*
X110924146Y-86571811D01*
X110920239Y-86569901D01*
X110857418Y-86537824D01*
X110850306Y-86536084D01*
X110845020Y-86534118D01*
X110839735Y-86532360D01*
X110833105Y-86529261D01*
X110764032Y-86514894D01*
X110759748Y-86513924D01*
X110754321Y-86512596D01*
X110691279Y-86497170D01*
X110685677Y-86496822D01*
X110685674Y-86496822D01*
X110680480Y-86496500D01*
X110680481Y-86496476D01*
X110676066Y-86496212D01*
X110672816Y-86495922D01*
X110665648Y-86494431D01*
X110599851Y-86496211D01*
X110590877Y-86496454D01*
X110587469Y-86496500D01*
X109599646Y-86496500D01*
X109531525Y-86476498D01*
X109510551Y-86459596D01*
X108757827Y-85706873D01*
X108723802Y-85644560D01*
X108722195Y-85635639D01*
X108713554Y-85575298D01*
X108713553Y-85575295D01*
X108712281Y-85566412D01*
X108695127Y-85528682D01*
X108671665Y-85477080D01*
X108651994Y-85433816D01*
X108647047Y-85427663D01*
X108647045Y-85427660D01*
X108614941Y-85387732D01*
X108612801Y-85385070D01*
X108240405Y-85012674D01*
X108206379Y-84950362D01*
X108203500Y-84923579D01*
X108203500Y-82734339D01*
X108204933Y-82715389D01*
X108206943Y-82702180D01*
X108206943Y-82702176D01*
X108208043Y-82694946D01*
X108205735Y-82666561D01*
X108203915Y-82644192D01*
X108203500Y-82633978D01*
X108203500Y-82626347D01*
X108200325Y-82599115D01*
X108199894Y-82594756D01*
X108194770Y-82531764D01*
X108194177Y-82524468D01*
X108191921Y-82517504D01*
X108190823Y-82512008D01*
X108189534Y-82506555D01*
X108188686Y-82499283D01*
X108164616Y-82432971D01*
X108163193Y-82428826D01*
X108143719Y-82368711D01*
X108143717Y-82368707D01*
X108141464Y-82361752D01*
X108137672Y-82355502D01*
X108135329Y-82350385D01*
X108132822Y-82345378D01*
X108130327Y-82338506D01*
X108126319Y-82332393D01*
X108126317Y-82332389D01*
X108091647Y-82279510D01*
X108089300Y-82275789D01*
X108055647Y-82220330D01*
X108055646Y-82220329D01*
X108052733Y-82215528D01*
X108045570Y-82207418D01*
X108045588Y-82207402D01*
X108042658Y-82204098D01*
X108040559Y-82201587D01*
X108036546Y-82195467D01*
X107982205Y-82143989D01*
X107979763Y-82141611D01*
X106876716Y-81038564D01*
X106842690Y-80976252D01*
X106841089Y-80967365D01*
X106831170Y-80898103D01*
X106810350Y-80852310D01*
X106774151Y-80772695D01*
X106770883Y-80765507D01*
X106765936Y-80759354D01*
X106765934Y-80759351D01*
X106737855Y-80724429D01*
X106731690Y-80716761D01*
X106613521Y-80598592D01*
X106579495Y-80536280D01*
X106576616Y-80509497D01*
X106576616Y-78522900D01*
X106596618Y-78454779D01*
X106613521Y-78433805D01*
X107292542Y-77754784D01*
X107306955Y-77742397D01*
X107317713Y-77734480D01*
X107323612Y-77730139D01*
X107356586Y-77691326D01*
X107363516Y-77683810D01*
X107368906Y-77678420D01*
X107385945Y-77656884D01*
X107388685Y-77653544D01*
X107429613Y-77605368D01*
X107429615Y-77605365D01*
X107434353Y-77599788D01*
X107437681Y-77593271D01*
X107440793Y-77588605D01*
X107443735Y-77583840D01*
X107448279Y-77578097D01*
X107478135Y-77514216D01*
X107480063Y-77510270D01*
X107508808Y-77453976D01*
X107512137Y-77447457D01*
X107513877Y-77440346D01*
X107515830Y-77435094D01*
X107517599Y-77429776D01*
X107520699Y-77423144D01*
X107535063Y-77354088D01*
X107536033Y-77349803D01*
X107540162Y-77332928D01*
X107552791Y-77281318D01*
X107553461Y-77270519D01*
X107553485Y-77270520D01*
X107553749Y-77266105D01*
X107554039Y-77262855D01*
X107555530Y-77255687D01*
X107553507Y-77180916D01*
X107553461Y-77177508D01*
X107553461Y-76125872D01*
X107554894Y-76106922D01*
X107556904Y-76093713D01*
X107556904Y-76093709D01*
X107558004Y-76086479D01*
X107553876Y-76035727D01*
X107553461Y-76025512D01*
X107553461Y-76017880D01*
X107553039Y-76014261D01*
X107553038Y-76014242D01*
X107553018Y-76014072D01*
X107553024Y-76014002D01*
X107552826Y-76010594D01*
X107553314Y-76010566D01*
X107557181Y-75964762D01*
X107560527Y-75957404D01*
X107581176Y-75813218D01*
X107572808Y-75754784D01*
X107569646Y-75732703D01*
X108990743Y-75732703D01*
X108991302Y-75736947D01*
X108991302Y-75736951D01*
X108997013Y-75780328D01*
X109028268Y-76017734D01*
X109029401Y-76021874D01*
X109029401Y-76021876D01*
X109033035Y-76035159D01*
X109104129Y-76295036D01*
X109105813Y-76298984D01*
X109182915Y-76479745D01*
X109216923Y-76559476D01*
X109277413Y-76660547D01*
X109361490Y-76801029D01*
X109364561Y-76806161D01*
X109544313Y-77030528D01*
X109665414Y-77145448D01*
X109742068Y-77218190D01*
X109752851Y-77228423D01*
X109986317Y-77396186D01*
X109990112Y-77398195D01*
X109990113Y-77398196D01*
X110031173Y-77419936D01*
X110240392Y-77530712D01*
X110342956Y-77568245D01*
X110506187Y-77627979D01*
X110510373Y-77629511D01*
X110791264Y-77690755D01*
X110819841Y-77693004D01*
X111014282Y-77708307D01*
X111014291Y-77708307D01*
X111016739Y-77708500D01*
X111172271Y-77708500D01*
X111174407Y-77708354D01*
X111174418Y-77708354D01*
X111382548Y-77694165D01*
X111382554Y-77694164D01*
X111386825Y-77693873D01*
X111391020Y-77693004D01*
X111391022Y-77693004D01*
X111557950Y-77658435D01*
X111668342Y-77635574D01*
X111939343Y-77539607D01*
X112161972Y-77424700D01*
X112191005Y-77409715D01*
X112191006Y-77409715D01*
X112194812Y-77407750D01*
X112198313Y-77405289D01*
X112198317Y-77405287D01*
X112366946Y-77286772D01*
X112430023Y-77242441D01*
X112570714Y-77111703D01*
X112637479Y-77049661D01*
X112637481Y-77049658D01*
X112640622Y-77046740D01*
X112822713Y-76824268D01*
X112965639Y-76591035D01*
X112970686Y-76582799D01*
X112972927Y-76579142D01*
X113036190Y-76435026D01*
X113086757Y-76319830D01*
X113088483Y-76315898D01*
X113167244Y-76039406D01*
X113204827Y-75775327D01*
X113207146Y-75759036D01*
X113207146Y-75759034D01*
X113207751Y-75754784D01*
X113207826Y-75740589D01*
X113209235Y-75471583D01*
X113209235Y-75471576D01*
X113209257Y-75467297D01*
X113201423Y-75407787D01*
X113184655Y-75280426D01*
X113171732Y-75182266D01*
X113095871Y-74904964D01*
X113070125Y-74844603D01*
X112984763Y-74644476D01*
X112984761Y-74644472D01*
X112983077Y-74640524D01*
X112895728Y-74494574D01*
X112837643Y-74397521D01*
X112837640Y-74397517D01*
X112835439Y-74393839D01*
X112655687Y-74169472D01*
X112514997Y-74035962D01*
X112450258Y-73974527D01*
X112450255Y-73974525D01*
X112447149Y-73971577D01*
X112231866Y-73816880D01*
X112217172Y-73806321D01*
X112217171Y-73806320D01*
X112213683Y-73803814D01*
X112191843Y-73792250D01*
X112103630Y-73745544D01*
X111959608Y-73669288D01*
X111783127Y-73604705D01*
X111766898Y-73598766D01*
X114587000Y-73598766D01*
X114587337Y-73605282D01*
X114597075Y-73699132D01*
X114599968Y-73712528D01*
X114650488Y-73863953D01*
X114656653Y-73877115D01*
X114740426Y-74012492D01*
X114749460Y-74023890D01*
X114862129Y-74136363D01*
X114873540Y-74145375D01*
X115009063Y-74228912D01*
X115022241Y-74235056D01*
X115173766Y-74285315D01*
X115187132Y-74288181D01*
X115279770Y-74297672D01*
X115286185Y-74298000D01*
X115297885Y-74298000D01*
X115313124Y-74293525D01*
X115314329Y-74292135D01*
X115316000Y-74284452D01*
X115316000Y-74279885D01*
X115824000Y-74279885D01*
X115828475Y-74295124D01*
X115829865Y-74296329D01*
X115837548Y-74298000D01*
X115853766Y-74298000D01*
X115860282Y-74297663D01*
X115954132Y-74287925D01*
X115967528Y-74285032D01*
X116118953Y-74234512D01*
X116132115Y-74228347D01*
X116267492Y-74144574D01*
X116278890Y-74135540D01*
X116391363Y-74022871D01*
X116400375Y-74011460D01*
X116483912Y-73875937D01*
X116490056Y-73862759D01*
X116540315Y-73711234D01*
X116543181Y-73697868D01*
X116552672Y-73605230D01*
X116553000Y-73598815D01*
X116553000Y-73524615D01*
X116548525Y-73509376D01*
X116547135Y-73508171D01*
X116539452Y-73506500D01*
X115842115Y-73506500D01*
X115826876Y-73510975D01*
X115825671Y-73512365D01*
X115824000Y-73520048D01*
X115824000Y-74279885D01*
X115316000Y-74279885D01*
X115316000Y-73524615D01*
X115311525Y-73509376D01*
X115310135Y-73508171D01*
X115302452Y-73506500D01*
X114605115Y-73506500D01*
X114589876Y-73510975D01*
X114588671Y-73512365D01*
X114587000Y-73520048D01*
X114587000Y-73598766D01*
X111766898Y-73598766D01*
X111693658Y-73571964D01*
X111693656Y-73571963D01*
X111689627Y-73570489D01*
X111408736Y-73509245D01*
X111373857Y-73506500D01*
X111185718Y-73491693D01*
X111185709Y-73491693D01*
X111183261Y-73491500D01*
X111027729Y-73491500D01*
X111025593Y-73491646D01*
X111025582Y-73491646D01*
X110817452Y-73505835D01*
X110817446Y-73505836D01*
X110813175Y-73506127D01*
X110808980Y-73506996D01*
X110808978Y-73506996D01*
X110672416Y-73535277D01*
X110531658Y-73564426D01*
X110260657Y-73660393D01*
X110246281Y-73667813D01*
X110097817Y-73744441D01*
X110005188Y-73792250D01*
X110001687Y-73794711D01*
X110001683Y-73794713D01*
X109938833Y-73838885D01*
X109769977Y-73957559D01*
X109754892Y-73971577D01*
X109605017Y-74110850D01*
X109559378Y-74153260D01*
X109377287Y-74375732D01*
X109227073Y-74620858D01*
X109225347Y-74624791D01*
X109225346Y-74624792D01*
X109180658Y-74726594D01*
X109111517Y-74884102D01*
X109032756Y-75160594D01*
X108992249Y-75445216D01*
X108992227Y-75449505D01*
X108992226Y-75449512D01*
X108990815Y-75718924D01*
X108990743Y-75732703D01*
X107569646Y-75732703D01*
X107561800Y-75677918D01*
X107561799Y-75677915D01*
X107560527Y-75669032D01*
X107541527Y-75627242D01*
X107503508Y-75543624D01*
X107500240Y-75536436D01*
X107495293Y-75530283D01*
X107495291Y-75530280D01*
X107463187Y-75490352D01*
X107461047Y-75487690D01*
X107342878Y-75369521D01*
X107308852Y-75307209D01*
X107305973Y-75280426D01*
X107305973Y-74302381D01*
X107325975Y-74234260D01*
X107342877Y-74213286D01*
X108186863Y-73369299D01*
X108249176Y-73335274D01*
X108258094Y-73333668D01*
X108271612Y-73331732D01*
X108318438Y-73325026D01*
X108318441Y-73325025D01*
X108327324Y-73323753D01*
X108358862Y-73309414D01*
X108433243Y-73275595D01*
X108459920Y-73263466D01*
X108466073Y-73258519D01*
X108466076Y-73258517D01*
X108506004Y-73226413D01*
X108508666Y-73224273D01*
X108626835Y-73106104D01*
X108689147Y-73072078D01*
X108715930Y-73069199D01*
X109689471Y-73069199D01*
X109708421Y-73070632D01*
X109721630Y-73072642D01*
X109721634Y-73072642D01*
X109728864Y-73073742D01*
X109736156Y-73073149D01*
X109736159Y-73073149D01*
X109779616Y-73069614D01*
X109789831Y-73069199D01*
X109797463Y-73069199D01*
X109801082Y-73068777D01*
X109801101Y-73068776D01*
X109824706Y-73066024D01*
X109829072Y-73065592D01*
X109856391Y-73063370D01*
X109892041Y-73060470D01*
X109892043Y-73060470D01*
X109899341Y-73059876D01*
X109906310Y-73057618D01*
X109911830Y-73056515D01*
X109917255Y-73055233D01*
X109924527Y-73054385D01*
X109990847Y-73030312D01*
X109994993Y-73028889D01*
X110055095Y-73009419D01*
X110055099Y-73009417D01*
X110062057Y-73007163D01*
X110068309Y-73003369D01*
X110073425Y-73001027D01*
X110078426Y-72998523D01*
X110085304Y-72996026D01*
X110091421Y-72992016D01*
X110091426Y-72992013D01*
X110144291Y-72957352D01*
X110148013Y-72955004D01*
X110203485Y-72921343D01*
X110203486Y-72921342D01*
X110208282Y-72918432D01*
X110216392Y-72911270D01*
X110216407Y-72911287D01*
X110219716Y-72908354D01*
X110222224Y-72906257D01*
X110228343Y-72902245D01*
X110279786Y-72847940D01*
X110282126Y-72845536D01*
X111237257Y-71890404D01*
X111299568Y-71856380D01*
X111326351Y-71853500D01*
X112120869Y-71853500D01*
X112139819Y-71854933D01*
X112153028Y-71856943D01*
X112153032Y-71856943D01*
X112160262Y-71858043D01*
X112167554Y-71857450D01*
X112167557Y-71857450D01*
X112211014Y-71853915D01*
X112221229Y-71853500D01*
X112228861Y-71853500D01*
X112232480Y-71853078D01*
X112232499Y-71853077D01*
X112256104Y-71850325D01*
X112260470Y-71849893D01*
X112287789Y-71847671D01*
X112323439Y-71844771D01*
X112323441Y-71844771D01*
X112330739Y-71844177D01*
X112337708Y-71841919D01*
X112343228Y-71840816D01*
X112348653Y-71839534D01*
X112355925Y-71838686D01*
X112422245Y-71814613D01*
X112426391Y-71813190D01*
X112486493Y-71793720D01*
X112486497Y-71793718D01*
X112493455Y-71791464D01*
X112499707Y-71787670D01*
X112504823Y-71785328D01*
X112509824Y-71782824D01*
X112516702Y-71780327D01*
X112522819Y-71776317D01*
X112522824Y-71776314D01*
X112575689Y-71741653D01*
X112579411Y-71739305D01*
X112634883Y-71705644D01*
X112634884Y-71705643D01*
X112639680Y-71702733D01*
X112647790Y-71695571D01*
X112647805Y-71695588D01*
X112651115Y-71692654D01*
X112653622Y-71690558D01*
X112659741Y-71686546D01*
X112711201Y-71632224D01*
X112713579Y-71629782D01*
X112786870Y-71556491D01*
X112849182Y-71522465D01*
X112919997Y-71527530D01*
G37*
G04 #@! TD.AperFunction*
G04 #@! TA.AperFunction,Conductor*
G36*
X145249133Y-69646925D02*
G01*
X145266656Y-69658486D01*
X145333554Y-69711117D01*
X145762515Y-70048594D01*
X145766155Y-70051458D01*
X145771570Y-70055969D01*
X146012672Y-70268540D01*
X146290879Y-70513825D01*
X146296037Y-70518637D01*
X146788877Y-71004806D01*
X146793757Y-71009897D01*
X147258238Y-71522465D01*
X147258631Y-71522899D01*
X147263212Y-71528248D01*
X147691847Y-72058057D01*
X147698651Y-72066467D01*
X147702933Y-72072073D01*
X148107571Y-72633818D01*
X148111532Y-72639655D01*
X148484093Y-73223155D01*
X148487721Y-73229204D01*
X148609079Y-73445020D01*
X148824444Y-73828014D01*
X148827046Y-73832642D01*
X148830328Y-73838881D01*
X149132189Y-74453921D01*
X149135348Y-74460358D01*
X149138274Y-74466767D01*
X149408058Y-75104390D01*
X149410616Y-75110944D01*
X149454441Y-75233172D01*
X149458605Y-75304046D01*
X149423789Y-75365920D01*
X149361049Y-75399149D01*
X149290304Y-75393184D01*
X149285791Y-75391088D01*
X149282588Y-75391317D01*
X149275972Y-75395569D01*
X148871273Y-75800268D01*
X148863659Y-75814212D01*
X148863790Y-75816045D01*
X148868041Y-75822660D01*
X149272741Y-76227360D01*
X149286685Y-76234974D01*
X149288518Y-76234843D01*
X149295133Y-76230592D01*
X149385019Y-76140706D01*
X149389581Y-76135622D01*
X149421642Y-76095749D01*
X149429863Y-76082398D01*
X149477549Y-75977517D01*
X149523952Y-75923783D01*
X149592039Y-75903667D01*
X149660193Y-75923555D01*
X149706776Y-75977133D01*
X149713048Y-75993839D01*
X149843288Y-76433031D01*
X149845101Y-76439838D01*
X150002050Y-77103295D01*
X150004478Y-77113559D01*
X150005908Y-77120462D01*
X150046765Y-77349803D01*
X150127330Y-77802039D01*
X150128372Y-77809016D01*
X150147971Y-77971135D01*
X150208365Y-78470710D01*
X150211457Y-78496291D01*
X150212108Y-78503315D01*
X150256602Y-79194197D01*
X150256858Y-79201246D01*
X150258441Y-79391379D01*
X150261492Y-79757852D01*
X150262621Y-79893523D01*
X150262482Y-79900563D01*
X150232154Y-80536280D01*
X150232043Y-80538617D01*
X150208817Y-80605707D01*
X150153007Y-80649591D01*
X150082332Y-80656334D01*
X150041459Y-80634641D01*
X150039970Y-80637369D01*
X150010132Y-80621076D01*
X150008295Y-80621207D01*
X150001679Y-80625459D01*
X149596980Y-81030158D01*
X149589366Y-81044102D01*
X149589497Y-81045935D01*
X149593748Y-81052550D01*
X149998449Y-81457251D01*
X150041399Y-81480704D01*
X150091601Y-81530906D01*
X150106692Y-81600281D01*
X150105411Y-81611321D01*
X150047079Y-81973582D01*
X150046337Y-81978187D01*
X150045023Y-81985107D01*
X149996329Y-82207402D01*
X149896883Y-82661383D01*
X149895181Y-82668229D01*
X149824639Y-82921500D01*
X149711123Y-83329069D01*
X149709433Y-83335135D01*
X149707353Y-83341869D01*
X149485708Y-83993998D01*
X149484569Y-83997348D01*
X149482118Y-84003948D01*
X149336422Y-84364921D01*
X149326605Y-84389243D01*
X149282560Y-84444926D01*
X149215403Y-84467957D01*
X149146455Y-84451024D01*
X149097607Y-84399503D01*
X149084322Y-84353940D01*
X149084085Y-84351427D01*
X149081200Y-84320910D01*
X149080641Y-84309053D01*
X149080641Y-82453579D01*
X149100643Y-82385458D01*
X149117546Y-82364484D01*
X149335715Y-82146315D01*
X149354040Y-82123524D01*
X149369959Y-82103725D01*
X149369961Y-82103722D01*
X149374908Y-82097569D01*
X149378486Y-82089700D01*
X149395316Y-82052686D01*
X149441719Y-81998953D01*
X149457865Y-81990137D01*
X149494277Y-81973582D01*
X149507628Y-81965360D01*
X149547509Y-81933294D01*
X149552572Y-81928751D01*
X149639242Y-81842080D01*
X149646852Y-81828144D01*
X149646721Y-81826307D01*
X149642469Y-81819691D01*
X149395362Y-81572584D01*
X149377792Y-81550347D01*
X149374908Y-81544005D01*
X149369957Y-81537847D01*
X149369955Y-81537844D01*
X149347185Y-81509525D01*
X149335715Y-81495259D01*
X148963682Y-81123226D01*
X148929656Y-81060914D01*
X148934721Y-80990099D01*
X148963682Y-80945036D01*
X149639238Y-80269480D01*
X149646852Y-80255536D01*
X149646721Y-80253703D01*
X149642470Y-80247088D01*
X149552584Y-80157202D01*
X149547500Y-80152640D01*
X149507627Y-80120579D01*
X149494276Y-80112358D01*
X149377177Y-80059118D01*
X149360114Y-80054128D01*
X149233846Y-80036044D01*
X149216070Y-80036044D01*
X149089801Y-80054128D01*
X149071007Y-80059624D01*
X149000011Y-80059546D01*
X148940327Y-80021097D01*
X148910905Y-79956484D01*
X148914705Y-79903329D01*
X148915292Y-79901323D01*
X148919007Y-79893151D01*
X148939656Y-79748965D01*
X148938384Y-79740083D01*
X148938384Y-79740078D01*
X148934461Y-79712683D01*
X148944605Y-79642415D01*
X148970094Y-79605728D01*
X148982247Y-79593575D01*
X148990537Y-79586031D01*
X148997018Y-79581918D01*
X149043659Y-79532250D01*
X149046413Y-79529409D01*
X149066134Y-79509688D01*
X149068612Y-79506493D01*
X149076318Y-79497471D01*
X149093951Y-79478694D01*
X149106586Y-79465239D01*
X149116346Y-79447486D01*
X149127199Y-79430963D01*
X149134753Y-79421224D01*
X149139613Y-79414959D01*
X149157176Y-79374375D01*
X149162383Y-79363745D01*
X149183695Y-79324978D01*
X149185666Y-79317301D01*
X149185668Y-79317296D01*
X149188732Y-79305360D01*
X149195138Y-79286648D01*
X149200033Y-79275337D01*
X149203181Y-79268063D01*
X149204421Y-79260235D01*
X149204423Y-79260228D01*
X149210099Y-79224394D01*
X149212505Y-79212774D01*
X149221528Y-79177629D01*
X149221528Y-79177628D01*
X149223500Y-79169948D01*
X149223500Y-79149694D01*
X149225051Y-79129983D01*
X149226980Y-79117804D01*
X149228220Y-79109975D01*
X149224059Y-79065956D01*
X149223500Y-79054099D01*
X149223500Y-77538230D01*
X149224027Y-77527047D01*
X149225702Y-77519554D01*
X149223562Y-77451463D01*
X149223500Y-77447506D01*
X149223500Y-77419607D01*
X149222996Y-77415616D01*
X149222063Y-77403774D01*
X149221853Y-77397073D01*
X149220674Y-77359574D01*
X149218462Y-77351960D01*
X149218461Y-77351955D01*
X149215023Y-77340122D01*
X149211012Y-77320758D01*
X149209467Y-77308527D01*
X149208474Y-77300666D01*
X149205557Y-77293299D01*
X149205556Y-77293294D01*
X149192198Y-77259555D01*
X149188354Y-77248328D01*
X149183298Y-77230926D01*
X149176018Y-77205870D01*
X149166483Y-77189748D01*
X149165707Y-77188435D01*
X149157012Y-77170687D01*
X149149552Y-77151846D01*
X149124230Y-77116992D01*
X149123564Y-77116076D01*
X149117048Y-77106156D01*
X149098580Y-77074928D01*
X149098578Y-77074925D01*
X149094542Y-77068101D01*
X149080221Y-77053780D01*
X149067380Y-77038746D01*
X149060131Y-77028769D01*
X149055472Y-77022356D01*
X149049367Y-77017305D01*
X149049362Y-77017300D01*
X149021396Y-76994164D01*
X149012618Y-76986176D01*
X148865179Y-76838737D01*
X148831153Y-76776425D01*
X148836218Y-76705610D01*
X148865179Y-76660547D01*
X148913534Y-76612192D01*
X148921145Y-76598254D01*
X148921014Y-76596417D01*
X148916762Y-76589801D01*
X148669655Y-76342694D01*
X148652085Y-76320457D01*
X148649201Y-76314115D01*
X148644250Y-76307957D01*
X148644248Y-76307954D01*
X148612148Y-76268031D01*
X148610008Y-76265369D01*
X148237975Y-75893336D01*
X148203949Y-75831024D01*
X148209014Y-75760209D01*
X148237975Y-75715146D01*
X148913531Y-75039590D01*
X148921145Y-75025646D01*
X148921014Y-75023813D01*
X148916763Y-75017198D01*
X148826877Y-74927312D01*
X148821793Y-74922750D01*
X148781920Y-74890689D01*
X148768569Y-74882468D01*
X148651470Y-74829228D01*
X148634407Y-74824238D01*
X148508139Y-74806154D01*
X148490363Y-74806154D01*
X148364094Y-74824238D01*
X148345300Y-74829734D01*
X148274304Y-74829656D01*
X148214620Y-74791207D01*
X148185198Y-74726594D01*
X148188998Y-74673439D01*
X148189585Y-74671433D01*
X148193300Y-74663261D01*
X148213949Y-74519075D01*
X148209264Y-74486363D01*
X148194573Y-74383775D01*
X148194572Y-74383772D01*
X148193300Y-74374889D01*
X148187664Y-74362492D01*
X148157581Y-74296329D01*
X148133013Y-74242293D01*
X148128066Y-74236140D01*
X148128064Y-74236137D01*
X148096071Y-74196347D01*
X148093820Y-74193547D01*
X147530774Y-73630501D01*
X147499408Y-73605282D01*
X147488184Y-73596257D01*
X147488181Y-73596255D01*
X147482028Y-73591308D01*
X147474844Y-73588042D01*
X147474838Y-73588038D01*
X147471309Y-73586434D01*
X147434364Y-73560828D01*
X146631283Y-72757747D01*
X146623743Y-72749461D01*
X146619631Y-72742982D01*
X146569979Y-72696356D01*
X146567138Y-72693602D01*
X146547401Y-72673865D01*
X146544204Y-72671385D01*
X146535182Y-72663680D01*
X146534741Y-72663266D01*
X146502952Y-72633414D01*
X146496006Y-72629595D01*
X146496003Y-72629593D01*
X146485197Y-72623652D01*
X146468678Y-72612801D01*
X146463772Y-72608996D01*
X146452672Y-72600386D01*
X146445403Y-72597241D01*
X146445399Y-72597238D01*
X146412094Y-72582826D01*
X146401444Y-72577609D01*
X146362691Y-72556305D01*
X146343068Y-72551267D01*
X146324365Y-72544863D01*
X146313051Y-72539967D01*
X146313050Y-72539967D01*
X146305776Y-72536819D01*
X146297953Y-72535580D01*
X146297943Y-72535577D01*
X146262107Y-72529901D01*
X146250487Y-72527495D01*
X146215342Y-72518472D01*
X146215341Y-72518472D01*
X146207661Y-72516500D01*
X146187407Y-72516500D01*
X146167696Y-72514949D01*
X146155517Y-72513020D01*
X146147688Y-72511780D01*
X146139796Y-72512526D01*
X146133333Y-72512323D01*
X146065874Y-72490191D01*
X146021089Y-72435102D01*
X146013197Y-72364546D01*
X146018396Y-72349706D01*
X146017728Y-72340359D01*
X146013476Y-72333743D01*
X145766369Y-72086636D01*
X145748799Y-72064399D01*
X145745915Y-72058057D01*
X145740964Y-72051899D01*
X145740962Y-72051896D01*
X145708862Y-72011973D01*
X145706722Y-72009311D01*
X145334689Y-71637278D01*
X145300663Y-71574966D01*
X145301865Y-71558154D01*
X145960373Y-71558154D01*
X145960504Y-71559987D01*
X145964755Y-71566602D01*
X146369455Y-71971302D01*
X146383399Y-71978916D01*
X146385232Y-71978785D01*
X146391847Y-71974534D01*
X146481733Y-71884648D01*
X146486295Y-71879564D01*
X146518356Y-71839691D01*
X146526577Y-71826340D01*
X146579817Y-71709241D01*
X146584807Y-71692178D01*
X146602891Y-71565910D01*
X146602891Y-71548134D01*
X146584807Y-71421866D01*
X146579817Y-71404803D01*
X146526578Y-71287706D01*
X146518355Y-71274352D01*
X146486289Y-71234471D01*
X146481746Y-71229408D01*
X146395075Y-71142738D01*
X146381139Y-71135128D01*
X146379302Y-71135259D01*
X146372686Y-71139511D01*
X145967987Y-71544210D01*
X145960373Y-71558154D01*
X145301865Y-71558154D01*
X145305728Y-71504151D01*
X145334689Y-71459088D01*
X146010245Y-70783532D01*
X146017859Y-70769588D01*
X146017728Y-70767755D01*
X146013477Y-70761140D01*
X145923591Y-70671254D01*
X145918507Y-70666692D01*
X145878634Y-70634631D01*
X145865283Y-70626410D01*
X145748184Y-70573170D01*
X145731121Y-70568180D01*
X145604853Y-70550096D01*
X145587077Y-70550096D01*
X145460808Y-70568180D01*
X145442014Y-70573676D01*
X145371018Y-70573598D01*
X145311334Y-70535149D01*
X145281912Y-70470536D01*
X145285712Y-70417381D01*
X145286299Y-70415375D01*
X145290014Y-70407203D01*
X145310663Y-70263017D01*
X145306224Y-70232018D01*
X145291287Y-70127717D01*
X145291286Y-70127714D01*
X145290014Y-70118831D01*
X145271531Y-70078178D01*
X145232995Y-69993423D01*
X145229727Y-69986235D01*
X145224780Y-69980082D01*
X145224778Y-69980079D01*
X145197251Y-69945843D01*
X145190534Y-69937489D01*
X145099653Y-69846608D01*
X145065627Y-69784296D01*
X145070692Y-69713481D01*
X145113239Y-69656645D01*
X145179759Y-69631834D01*
X145249133Y-69646925D01*
G37*
G04 #@! TD.AperFunction*
G04 #@! TA.AperFunction,Conductor*
G36*
X124788930Y-71591266D02*
G01*
X124790233Y-71592736D01*
X124803843Y-71611249D01*
X124812123Y-71624979D01*
X124818731Y-71631057D01*
X124820613Y-71633361D01*
X124834901Y-71649488D01*
X124836615Y-71651875D01*
X124836621Y-71651882D01*
X124839458Y-71655832D01*
X124848263Y-71664779D01*
X124853136Y-71668399D01*
X124853138Y-71668401D01*
X124861182Y-71674906D01*
X125061732Y-71851198D01*
X125064857Y-71853340D01*
X125064858Y-71853341D01*
X125292324Y-72009270D01*
X125295443Y-72011408D01*
X125411758Y-72072073D01*
X125538108Y-72137972D01*
X125546678Y-72142442D01*
X125550211Y-72143774D01*
X125550213Y-72143775D01*
X125654520Y-72183103D01*
X125711203Y-72225852D01*
X125735777Y-72292460D01*
X125720439Y-72361780D01*
X125670058Y-72411803D01*
X125610067Y-72427001D01*
X125555331Y-72427001D01*
X125548510Y-72427371D01*
X125497648Y-72432895D01*
X125482396Y-72436521D01*
X125361946Y-72481676D01*
X125346351Y-72490214D01*
X125244276Y-72566715D01*
X125231715Y-72579276D01*
X125155214Y-72681351D01*
X125146676Y-72696946D01*
X125101522Y-72817394D01*
X125097895Y-72832649D01*
X125092369Y-72883514D01*
X125092000Y-72890328D01*
X125092000Y-73012885D01*
X125096475Y-73028124D01*
X125097865Y-73029329D01*
X125105548Y-73031000D01*
X126065500Y-73031000D01*
X126133621Y-73051002D01*
X126180114Y-73104658D01*
X126191500Y-73157000D01*
X126191500Y-73413000D01*
X126171498Y-73481121D01*
X126117842Y-73527614D01*
X126065500Y-73539000D01*
X125110116Y-73539000D01*
X125080997Y-73547550D01*
X125044623Y-73570926D01*
X124973626Y-73570926D01*
X124920030Y-73539125D01*
X124231884Y-72850979D01*
X124197858Y-72788667D01*
X124194979Y-72761884D01*
X124194979Y-72287897D01*
X124214981Y-72219776D01*
X124231884Y-72198802D01*
X124450053Y-71980633D01*
X124483519Y-71939010D01*
X124484297Y-71938043D01*
X124484299Y-71938040D01*
X124489246Y-71931887D01*
X124530939Y-71840186D01*
X124545819Y-71807460D01*
X124545819Y-71807459D01*
X124549533Y-71799291D01*
X124557788Y-71741653D01*
X124568381Y-71667682D01*
X124569913Y-71656981D01*
X124599370Y-71592385D01*
X124659074Y-71553968D01*
X124730071Y-71553928D01*
X124788930Y-71591266D01*
G37*
G04 #@! TD.AperFunction*
G04 #@! TA.AperFunction,Conductor*
G36*
X129474004Y-71366103D02*
G01*
X129519067Y-71395064D01*
X129700087Y-71576084D01*
X129734113Y-71638396D01*
X129729048Y-71709211D01*
X129700087Y-71754274D01*
X129024531Y-72429830D01*
X129016917Y-72443774D01*
X129017048Y-72445607D01*
X129021299Y-72452222D01*
X129111185Y-72542108D01*
X129116269Y-72546670D01*
X129156142Y-72578731D01*
X129169493Y-72586952D01*
X129286592Y-72640192D01*
X129303655Y-72645182D01*
X129429923Y-72663266D01*
X129447699Y-72663266D01*
X129573968Y-72645182D01*
X129592762Y-72639686D01*
X129663758Y-72639764D01*
X129723442Y-72678213D01*
X129752864Y-72742826D01*
X129749064Y-72795981D01*
X129748477Y-72797987D01*
X129744762Y-72806159D01*
X129743489Y-72815048D01*
X129728693Y-72918363D01*
X129699236Y-72982960D01*
X129639531Y-73021376D01*
X129603966Y-73026500D01*
X128034500Y-73026500D01*
X127966379Y-73006498D01*
X127919886Y-72952842D01*
X127908500Y-72900500D01*
X127908500Y-72886866D01*
X127901745Y-72824684D01*
X127850615Y-72688295D01*
X127763261Y-72571739D01*
X127646705Y-72484385D01*
X127510316Y-72433255D01*
X127448134Y-72426500D01*
X127411262Y-72426500D01*
X127343141Y-72406498D01*
X127296648Y-72352842D01*
X127286544Y-72282568D01*
X127316038Y-72217988D01*
X127366809Y-72182602D01*
X127469787Y-72143775D01*
X127469789Y-72143774D01*
X127473322Y-72142442D01*
X127481893Y-72137972D01*
X127608242Y-72072073D01*
X127724557Y-72011408D01*
X127727676Y-72009270D01*
X127955142Y-71853341D01*
X127955143Y-71853340D01*
X127958268Y-71851198D01*
X128145953Y-71686214D01*
X128156491Y-71677903D01*
X128158742Y-71676315D01*
X128158749Y-71676309D01*
X128162717Y-71673509D01*
X128171737Y-71664779D01*
X128174670Y-71660900D01*
X128174675Y-71660894D01*
X128176345Y-71658685D01*
X128190665Y-71643304D01*
X128192892Y-71640712D01*
X128199650Y-71634800D01*
X128204478Y-71627227D01*
X128210325Y-71620422D01*
X128211919Y-71621792D01*
X128256437Y-71582929D01*
X128326674Y-71572568D01*
X128391362Y-71601823D01*
X128429965Y-71661408D01*
X128433927Y-71679487D01*
X128449969Y-71791496D01*
X128454959Y-71808559D01*
X128508198Y-71925656D01*
X128516421Y-71939010D01*
X128548487Y-71978891D01*
X128553030Y-71983954D01*
X128639701Y-72070624D01*
X128653637Y-72078234D01*
X128655474Y-72078103D01*
X128662090Y-72073851D01*
X129340877Y-71395064D01*
X129403189Y-71361038D01*
X129474004Y-71366103D01*
G37*
G04 #@! TD.AperFunction*
G04 #@! TA.AperFunction,Conductor*
G36*
X119483262Y-67900680D02*
G01*
X119750962Y-67995878D01*
X119757533Y-67998424D01*
X120396151Y-68266676D01*
X120402575Y-68269589D01*
X121025163Y-68573159D01*
X121031389Y-68576413D01*
X121636052Y-68914378D01*
X121642090Y-68917980D01*
X122190241Y-69265994D01*
X122226851Y-69289237D01*
X122232697Y-69293182D01*
X122739423Y-69656224D01*
X122783149Y-69712157D01*
X122789694Y-69782851D01*
X122756980Y-69845861D01*
X122695393Y-69881182D01*
X122683904Y-69883376D01*
X122648506Y-69888446D01*
X122631443Y-69893436D01*
X122514346Y-69946675D01*
X122500992Y-69954898D01*
X122461111Y-69986964D01*
X122456048Y-69991507D01*
X122369378Y-70078178D01*
X122361768Y-70092114D01*
X122361899Y-70093951D01*
X122366151Y-70100567D01*
X123044938Y-70779354D01*
X123078964Y-70841666D01*
X123073899Y-70912481D01*
X123044938Y-70957544D01*
X122863918Y-71138564D01*
X122801606Y-71172590D01*
X122730791Y-71167525D01*
X122685728Y-71138564D01*
X122010172Y-70463008D01*
X121996228Y-70455394D01*
X121994395Y-70455525D01*
X121987780Y-70459776D01*
X121897896Y-70549660D01*
X121893332Y-70554746D01*
X121861271Y-70594619D01*
X121853050Y-70607970D01*
X121799810Y-70725069D01*
X121794820Y-70742132D01*
X121776736Y-70868400D01*
X121776736Y-70886176D01*
X121794820Y-71012445D01*
X121800316Y-71031239D01*
X121800238Y-71102235D01*
X121761789Y-71161919D01*
X121697176Y-71191341D01*
X121644021Y-71187541D01*
X121642015Y-71186954D01*
X121633843Y-71183239D01*
X121489657Y-71162590D01*
X121480775Y-71163862D01*
X121480770Y-71163862D01*
X121453376Y-71167785D01*
X121383108Y-71157641D01*
X121346421Y-71132152D01*
X120164674Y-69950405D01*
X120130648Y-69888093D01*
X120135713Y-69817278D01*
X120164674Y-69772215D01*
X120264999Y-69671890D01*
X120278455Y-69655154D01*
X120299243Y-69629300D01*
X120299245Y-69629297D01*
X120304192Y-69623144D01*
X120364479Y-69490548D01*
X120365789Y-69481406D01*
X120383855Y-69355251D01*
X120385128Y-69346362D01*
X120380153Y-69311622D01*
X120365752Y-69211062D01*
X120365751Y-69211059D01*
X120364479Y-69202176D01*
X120360564Y-69193564D01*
X120308209Y-69078416D01*
X120304192Y-69069580D01*
X120299245Y-69063427D01*
X120299243Y-69063424D01*
X120269338Y-69026231D01*
X120264999Y-69020834D01*
X119701953Y-68457788D01*
X119660237Y-68424247D01*
X119659363Y-68423544D01*
X119659360Y-68423542D01*
X119653207Y-68418595D01*
X119646015Y-68415325D01*
X119608324Y-68398187D01*
X119554591Y-68351784D01*
X119545775Y-68335638D01*
X119529220Y-68299226D01*
X119520998Y-68285875D01*
X119488938Y-68246001D01*
X119484377Y-68240919D01*
X119351950Y-68108492D01*
X119317924Y-68046180D01*
X119322989Y-67975365D01*
X119365536Y-67918529D01*
X119432056Y-67893718D01*
X119483262Y-67900680D01*
G37*
G04 #@! TD.AperFunction*
G04 #@! TA.AperFunction,Conductor*
G36*
X133630720Y-67949574D02*
G01*
X133663760Y-68012414D01*
X133657581Y-68083141D01*
X133629328Y-68126351D01*
X133512774Y-68242905D01*
X133499318Y-68259641D01*
X133478530Y-68285495D01*
X133478528Y-68285498D01*
X133473581Y-68291651D01*
X133470311Y-68298843D01*
X133453173Y-68336534D01*
X133406770Y-68390267D01*
X133390624Y-68399083D01*
X133354212Y-68415638D01*
X133340861Y-68423860D01*
X133300980Y-68455926D01*
X133295917Y-68460469D01*
X133209247Y-68547140D01*
X133201637Y-68561076D01*
X133201768Y-68562913D01*
X133206020Y-68569529D01*
X133453127Y-68816636D01*
X133470697Y-68838873D01*
X133473581Y-68845215D01*
X133478532Y-68851373D01*
X133478534Y-68851376D01*
X133491882Y-68867977D01*
X133512774Y-68893961D01*
X133884807Y-69265994D01*
X133918833Y-69328306D01*
X133913768Y-69399121D01*
X133884807Y-69444184D01*
X133209251Y-70119740D01*
X133201637Y-70133684D01*
X133201768Y-70135517D01*
X133206019Y-70142132D01*
X133295905Y-70232018D01*
X133300989Y-70236580D01*
X133340862Y-70268641D01*
X133354213Y-70276862D01*
X133471312Y-70330102D01*
X133488375Y-70335092D01*
X133528041Y-70340773D01*
X133592638Y-70370230D01*
X133631055Y-70429935D01*
X133631094Y-70500932D01*
X133592743Y-70560679D01*
X133528178Y-70590208D01*
X133510178Y-70591500D01*
X131195733Y-70591500D01*
X131127612Y-70571498D01*
X131105513Y-70552684D01*
X131105202Y-70552995D01*
X130542156Y-69989949D01*
X130517358Y-69970011D01*
X130499566Y-69955705D01*
X130499563Y-69955703D01*
X130493410Y-69950756D01*
X130397197Y-69907011D01*
X130368983Y-69894183D01*
X130368982Y-69894183D01*
X130360814Y-69890469D01*
X130334288Y-69886670D01*
X130269695Y-69857215D01*
X130231277Y-69797511D01*
X130231237Y-69726515D01*
X130269586Y-69666767D01*
X130278818Y-69659485D01*
X130704032Y-69355138D01*
X132616605Y-69355138D01*
X132634689Y-69481406D01*
X132639679Y-69498469D01*
X132692918Y-69615566D01*
X132701141Y-69628920D01*
X132733207Y-69668801D01*
X132737750Y-69673864D01*
X132824421Y-69760534D01*
X132838357Y-69768144D01*
X132840194Y-69768013D01*
X132846810Y-69763761D01*
X133251509Y-69359062D01*
X133259123Y-69345118D01*
X133258992Y-69343285D01*
X133254741Y-69336670D01*
X132850041Y-68931970D01*
X132836097Y-68924356D01*
X132834264Y-68924487D01*
X132827649Y-68928738D01*
X132737763Y-69018624D01*
X132733201Y-69023708D01*
X132701140Y-69063581D01*
X132692919Y-69076932D01*
X132639679Y-69194031D01*
X132634689Y-69211094D01*
X132616605Y-69337362D01*
X132616605Y-69355138D01*
X130704032Y-69355138D01*
X130786907Y-69295820D01*
X130792755Y-69291876D01*
X131377396Y-68921063D01*
X131383457Y-68917453D01*
X131821539Y-68672848D01*
X131987915Y-68579951D01*
X131994166Y-68576687D01*
X131998238Y-68574704D01*
X132099194Y-68525532D01*
X132616557Y-68273545D01*
X132622982Y-68270635D01*
X132997633Y-68113447D01*
X133261387Y-68002787D01*
X133267941Y-68000251D01*
X133498065Y-67918522D01*
X133568951Y-67914572D01*
X133630720Y-67949574D01*
G37*
G04 #@! TD.AperFunction*
G04 #@! TA.AperFunction,Conductor*
G36*
X115656331Y-67159964D02*
G01*
X115663382Y-67160201D01*
X116354734Y-67202883D01*
X116361761Y-67203515D01*
X116580921Y-67229421D01*
X117049637Y-67284827D01*
X117056587Y-67285847D01*
X117484123Y-67360849D01*
X117738840Y-67405534D01*
X117745752Y-67406947D01*
X118174399Y-67507161D01*
X118236178Y-67542146D01*
X118269235Y-67604977D01*
X118263076Y-67675706D01*
X118234810Y-67718948D01*
X118184325Y-67769433D01*
X118176714Y-67783371D01*
X118176845Y-67785208D01*
X118181097Y-67791824D01*
X118859884Y-68470611D01*
X118893910Y-68532923D01*
X118888845Y-68603738D01*
X118859884Y-68648801D01*
X118678864Y-68829821D01*
X118616552Y-68863847D01*
X118545737Y-68858782D01*
X118500674Y-68829821D01*
X117825118Y-68154265D01*
X117811174Y-68146651D01*
X117809341Y-68146782D01*
X117802726Y-68151033D01*
X117712840Y-68240919D01*
X117708278Y-68246003D01*
X117676217Y-68285876D01*
X117667996Y-68299227D01*
X117614756Y-68416326D01*
X117609766Y-68433389D01*
X117591682Y-68559657D01*
X117591682Y-68577433D01*
X117609766Y-68703702D01*
X117615262Y-68722496D01*
X117615184Y-68793492D01*
X117576735Y-68853176D01*
X117512122Y-68882598D01*
X117458967Y-68878798D01*
X117456961Y-68878211D01*
X117448789Y-68874496D01*
X117304603Y-68853847D01*
X117295721Y-68855119D01*
X117295716Y-68855119D01*
X117268322Y-68859042D01*
X117198054Y-68848898D01*
X117161367Y-68823409D01*
X117106288Y-68768330D01*
X117098748Y-68760044D01*
X117094636Y-68753565D01*
X117044984Y-68706939D01*
X117042143Y-68704185D01*
X117022406Y-68684448D01*
X117019209Y-68681968D01*
X117010187Y-68674263D01*
X117003590Y-68668068D01*
X116977957Y-68643997D01*
X116971011Y-68640178D01*
X116971008Y-68640176D01*
X116960202Y-68634235D01*
X116943683Y-68623384D01*
X116943219Y-68623024D01*
X116927677Y-68610969D01*
X116920408Y-68607824D01*
X116920404Y-68607821D01*
X116887099Y-68593409D01*
X116876449Y-68588192D01*
X116837696Y-68566888D01*
X116818073Y-68561850D01*
X116799370Y-68555446D01*
X116788056Y-68550550D01*
X116788055Y-68550550D01*
X116780781Y-68547402D01*
X116772958Y-68546163D01*
X116772948Y-68546160D01*
X116737112Y-68540484D01*
X116725492Y-68538078D01*
X116690347Y-68529055D01*
X116690346Y-68529055D01*
X116682666Y-68527083D01*
X116662412Y-68527083D01*
X116642701Y-68525532D01*
X116630522Y-68523603D01*
X116622693Y-68522363D01*
X116614801Y-68523109D01*
X116578675Y-68526524D01*
X116566817Y-68527083D01*
X114778244Y-68527083D01*
X114710123Y-68507081D01*
X114689149Y-68490178D01*
X114470980Y-68272009D01*
X114440634Y-68247610D01*
X114428390Y-68237765D01*
X114428387Y-68237763D01*
X114422234Y-68232816D01*
X114415042Y-68229546D01*
X114377351Y-68212408D01*
X114323618Y-68166005D01*
X114314802Y-68149859D01*
X114298247Y-68113447D01*
X114290025Y-68100096D01*
X114257959Y-68060215D01*
X114253416Y-68055152D01*
X114166745Y-67968482D01*
X114152809Y-67960872D01*
X114150972Y-67961003D01*
X114144356Y-67965255D01*
X113897249Y-68212362D01*
X113875012Y-68229932D01*
X113868670Y-68232816D01*
X113862515Y-68237765D01*
X113862509Y-68237769D01*
X113850270Y-68247610D01*
X113819924Y-68272009D01*
X113447891Y-68644042D01*
X113385579Y-68678068D01*
X113314764Y-68673003D01*
X113269701Y-68644042D01*
X112594145Y-67968486D01*
X112580201Y-67960872D01*
X112578368Y-67961003D01*
X112571753Y-67965254D01*
X112481867Y-68055140D01*
X112477305Y-68060224D01*
X112445244Y-68100097D01*
X112437023Y-68113448D01*
X112383783Y-68230547D01*
X112378793Y-68247610D01*
X112360709Y-68373878D01*
X112360709Y-68391654D01*
X112378793Y-68517923D01*
X112384289Y-68536717D01*
X112384211Y-68607713D01*
X112345762Y-68667397D01*
X112281149Y-68696819D01*
X112227994Y-68693019D01*
X112225988Y-68692432D01*
X112217816Y-68688717D01*
X112073630Y-68668068D01*
X112064741Y-68669341D01*
X111938330Y-68687444D01*
X111938327Y-68687445D01*
X111929444Y-68688717D01*
X111921276Y-68692431D01*
X111921275Y-68692431D01*
X111889364Y-68706940D01*
X111796848Y-68749004D01*
X111790695Y-68753951D01*
X111790692Y-68753953D01*
X111772811Y-68768330D01*
X111748102Y-68788197D01*
X111529933Y-69006366D01*
X111467621Y-69040392D01*
X111440838Y-69043271D01*
X110920834Y-69043271D01*
X110909651Y-69042744D01*
X110902158Y-69041069D01*
X110894232Y-69041318D01*
X110894231Y-69041318D01*
X110834068Y-69043209D01*
X110830110Y-69043271D01*
X110802210Y-69043271D01*
X110798220Y-69043775D01*
X110786386Y-69044707D01*
X110742177Y-69046097D01*
X110734561Y-69048310D01*
X110734559Y-69048310D01*
X110722718Y-69051750D01*
X110703359Y-69055759D01*
X110702049Y-69055925D01*
X110683269Y-69058297D01*
X110675903Y-69061213D01*
X110675897Y-69061215D01*
X110642164Y-69074571D01*
X110630934Y-69078416D01*
X110596083Y-69088541D01*
X110588473Y-69090752D01*
X110581650Y-69094787D01*
X110571032Y-69101066D01*
X110553279Y-69109763D01*
X110545634Y-69112790D01*
X110534449Y-69117219D01*
X110518319Y-69128938D01*
X110498678Y-69143208D01*
X110488761Y-69149722D01*
X110450704Y-69172229D01*
X110436383Y-69186550D01*
X110421350Y-69199390D01*
X110404959Y-69211299D01*
X110399909Y-69217403D01*
X110399904Y-69217408D01*
X110376773Y-69245369D01*
X110368783Y-69254150D01*
X109724983Y-69897949D01*
X109662671Y-69931974D01*
X109591855Y-69926909D01*
X109546793Y-69897949D01*
X109498436Y-69849593D01*
X109484500Y-69841983D01*
X109482663Y-69842114D01*
X109476047Y-69846366D01*
X109228940Y-70093473D01*
X109206703Y-70111043D01*
X109200361Y-70113927D01*
X109194203Y-70118878D01*
X109194200Y-70118880D01*
X109171221Y-70137356D01*
X109151615Y-70153120D01*
X108779582Y-70525153D01*
X108717270Y-70559179D01*
X108646455Y-70554114D01*
X108601392Y-70525153D01*
X108429211Y-70352972D01*
X108395185Y-70290660D01*
X108400250Y-70219845D01*
X108429211Y-70174782D01*
X109113606Y-69490387D01*
X109121220Y-69476443D01*
X109121089Y-69474610D01*
X109116838Y-69467995D01*
X109026952Y-69378109D01*
X109021868Y-69373547D01*
X108981995Y-69341486D01*
X108968644Y-69333265D01*
X108851545Y-69280025D01*
X108834482Y-69275035D01*
X108716153Y-69258088D01*
X108651556Y-69228631D01*
X108613139Y-69168926D01*
X108613100Y-69097929D01*
X108651451Y-69038182D01*
X108667689Y-69026231D01*
X108958443Y-68846218D01*
X108964544Y-68842674D01*
X108999946Y-68823409D01*
X109572938Y-68511601D01*
X109579211Y-68508411D01*
X110205220Y-68211892D01*
X110211674Y-68209054D01*
X110446695Y-68113447D01*
X110853263Y-67948054D01*
X110859867Y-67945580D01*
X110938751Y-67918529D01*
X111515090Y-67720891D01*
X111521803Y-67718797D01*
X112162490Y-67538476D01*
X112188573Y-67531135D01*
X112195415Y-67529415D01*
X112424439Y-67478597D01*
X112820710Y-67390669D01*
X112891544Y-67395440D01*
X112948556Y-67437750D01*
X112973643Y-67504166D01*
X112958590Y-67574062D01*
X112945741Y-67597594D01*
X112945872Y-67599429D01*
X112950124Y-67606045D01*
X113354823Y-68010744D01*
X113368767Y-68018358D01*
X113370600Y-68018227D01*
X113377215Y-68013976D01*
X113781915Y-67609276D01*
X113789529Y-67595332D01*
X113789398Y-67593499D01*
X113785147Y-67586884D01*
X113695261Y-67496998D01*
X113690185Y-67492443D01*
X113664104Y-67471472D01*
X113623551Y-67413197D01*
X113620940Y-67342249D01*
X113657102Y-67281152D01*
X113720555Y-67249304D01*
X113729678Y-67247991D01*
X114257840Y-67191610D01*
X114264854Y-67191060D01*
X114828325Y-67162668D01*
X114956633Y-67156203D01*
X114963687Y-67156045D01*
X115656331Y-67159964D01*
G37*
G04 #@! TD.AperFunction*
G04 #@! TA.AperFunction,Conductor*
G36*
X140184609Y-67395594D02*
G01*
X140819843Y-67536753D01*
X140826684Y-67538476D01*
X141493020Y-67726233D01*
X141499753Y-67728335D01*
X142154552Y-67953093D01*
X142161158Y-67955569D01*
X142802362Y-68216624D01*
X142808818Y-68219466D01*
X143434398Y-68515990D01*
X143440685Y-68519189D01*
X144048672Y-68850248D01*
X144054771Y-68853793D01*
X144331459Y-69025194D01*
X144378835Y-69078071D01*
X144390103Y-69148168D01*
X144361685Y-69213229D01*
X144302603Y-69252598D01*
X144282967Y-69257034D01*
X144198727Y-69269098D01*
X144134481Y-69261523D01*
X144130955Y-69260127D01*
X144124003Y-69256305D01*
X144104380Y-69251267D01*
X144085677Y-69244863D01*
X144074363Y-69239967D01*
X144074362Y-69239967D01*
X144067088Y-69236819D01*
X144059265Y-69235580D01*
X144059255Y-69235577D01*
X144023419Y-69229901D01*
X144011799Y-69227495D01*
X143976654Y-69218472D01*
X143976653Y-69218472D01*
X143968973Y-69216500D01*
X143948719Y-69216500D01*
X143929008Y-69214949D01*
X143926477Y-69214548D01*
X143909000Y-69211780D01*
X143901108Y-69212526D01*
X143864982Y-69215941D01*
X143853124Y-69216500D01*
X142318763Y-69216500D01*
X142307579Y-69215973D01*
X142300091Y-69214299D01*
X142292168Y-69214548D01*
X142232033Y-69216438D01*
X142228075Y-69216500D01*
X142200144Y-69216500D01*
X142196229Y-69216995D01*
X142196225Y-69216995D01*
X142196167Y-69217003D01*
X142196138Y-69217006D01*
X142184296Y-69217939D01*
X142140110Y-69219327D01*
X142122744Y-69224372D01*
X142120658Y-69224978D01*
X142101306Y-69228986D01*
X142094235Y-69229880D01*
X142081203Y-69231526D01*
X142073834Y-69234443D01*
X142073832Y-69234444D01*
X142040097Y-69247800D01*
X142028869Y-69251645D01*
X141986407Y-69263982D01*
X141979585Y-69268016D01*
X141979579Y-69268019D01*
X141968968Y-69274294D01*
X141951218Y-69282990D01*
X141939756Y-69287528D01*
X141939751Y-69287531D01*
X141932383Y-69290448D01*
X141913944Y-69303845D01*
X141847078Y-69327703D01*
X141777927Y-69311622D01*
X141750791Y-69291005D01*
X141725275Y-69265490D01*
X141711339Y-69257880D01*
X141709502Y-69258011D01*
X141702886Y-69262263D01*
X141024099Y-69941050D01*
X140961787Y-69975076D01*
X140890972Y-69970011D01*
X140845909Y-69941050D01*
X140664889Y-69760030D01*
X140630863Y-69697718D01*
X140635928Y-69626903D01*
X140664889Y-69581840D01*
X141340445Y-68906284D01*
X141348059Y-68892340D01*
X141347928Y-68890507D01*
X141343677Y-68883892D01*
X141253791Y-68794006D01*
X141248707Y-68789444D01*
X141208834Y-68757383D01*
X141195483Y-68749162D01*
X141078384Y-68695922D01*
X141061321Y-68690932D01*
X140935053Y-68672848D01*
X140917277Y-68672848D01*
X140791008Y-68690932D01*
X140772214Y-68696428D01*
X140701218Y-68696350D01*
X140641534Y-68657901D01*
X140612112Y-68593288D01*
X140615912Y-68540133D01*
X140616499Y-68538127D01*
X140620214Y-68529955D01*
X140640863Y-68385769D01*
X140633684Y-68335638D01*
X140621487Y-68250469D01*
X140621486Y-68250466D01*
X140620214Y-68241583D01*
X140615201Y-68230556D01*
X140563195Y-68116175D01*
X140559927Y-68108987D01*
X140554980Y-68102834D01*
X140554978Y-68102831D01*
X140522874Y-68062903D01*
X140520734Y-68060241D01*
X140068182Y-67607689D01*
X140034156Y-67545377D01*
X140039221Y-67474562D01*
X140081768Y-67417726D01*
X140148288Y-67392915D01*
X140184609Y-67395594D01*
G37*
G04 #@! TD.AperFunction*
M02*
