G04 #@! TF.GenerationSoftware,KiCad,Pcbnew,(6.0.7)*
G04 #@! TF.CreationDate,2023-02-05T15:19:58+01:00*
G04 #@! TF.ProjectId,heart,68656172-742e-46b6-9963-61645f706362,v1.0.0*
G04 #@! TF.SameCoordinates,Original*
G04 #@! TF.FileFunction,Legend,Bot*
G04 #@! TF.FilePolarity,Positive*
%FSLAX46Y46*%
G04 Gerber Fmt 4.6, Leading zero omitted, Abs format (unit mm)*
G04 Created by KiCad (PCBNEW (6.0.7)) date 2023-02-05 15:19:58*
%MOMM*%
%LPD*%
G01*
G04 APERTURE LIST*
%ADD10C,0.150000*%
%ADD11C,0.010000*%
%ADD12C,0.127000*%
%ADD13C,0.100000*%
%ADD14C,0.200000*%
%ADD15C,3.200000*%
%ADD16R,1.700000X1.700000*%
%ADD17O,1.700000X1.700000*%
%ADD18R,3.000000X4.200000*%
%ADD19C,0.850000*%
%ADD20R,0.800000X1.600000*%
%ADD21R,1.700000X0.800000*%
%ADD22R,1.800000X0.800000*%
G04 APERTURE END LIST*
D10*
X132059047Y-77232380D02*
X132059047Y-77946666D01*
X132106666Y-78089523D01*
X132201904Y-78184761D01*
X132344761Y-78232380D01*
X132440000Y-78232380D01*
X131106666Y-78232380D02*
X131582857Y-78232380D01*
X131582857Y-77232380D01*
X130201904Y-78137142D02*
X130249523Y-78184761D01*
X130392380Y-78232380D01*
X130487619Y-78232380D01*
X130630476Y-78184761D01*
X130725714Y-78089523D01*
X130773333Y-77994285D01*
X130820952Y-77803809D01*
X130820952Y-77660952D01*
X130773333Y-77470476D01*
X130725714Y-77375238D01*
X130630476Y-77280000D01*
X130487619Y-77232380D01*
X130392380Y-77232380D01*
X130249523Y-77280000D01*
X130201904Y-77327619D01*
X129487619Y-77232380D02*
X129487619Y-77946666D01*
X129535238Y-78089523D01*
X129630476Y-78184761D01*
X129773333Y-78232380D01*
X129868571Y-78232380D01*
X128535238Y-78232380D02*
X129011428Y-78232380D01*
X129011428Y-77232380D01*
X127630476Y-78137142D02*
X127678095Y-78184761D01*
X127820952Y-78232380D01*
X127916190Y-78232380D01*
X128059047Y-78184761D01*
X128154285Y-78089523D01*
X128201904Y-77994285D01*
X128249523Y-77803809D01*
X128249523Y-77660952D01*
X128201904Y-77470476D01*
X128154285Y-77375238D01*
X128059047Y-77280000D01*
X127916190Y-77232380D01*
X127820952Y-77232380D01*
X127678095Y-77280000D01*
X127630476Y-77327619D01*
X126916190Y-77232380D02*
X126916190Y-77946666D01*
X126963809Y-78089523D01*
X127059047Y-78184761D01*
X127201904Y-78232380D01*
X127297142Y-78232380D01*
X125963809Y-78232380D02*
X126440000Y-78232380D01*
X126440000Y-77232380D01*
X125059047Y-78137142D02*
X125106666Y-78184761D01*
X125249523Y-78232380D01*
X125344761Y-78232380D01*
X125487619Y-78184761D01*
X125582857Y-78089523D01*
X125630476Y-77994285D01*
X125678095Y-77803809D01*
X125678095Y-77660952D01*
X125630476Y-77470476D01*
X125582857Y-77375238D01*
X125487619Y-77280000D01*
X125344761Y-77232380D01*
X125249523Y-77232380D01*
X125106666Y-77280000D01*
X125059047Y-77327619D01*
X124344761Y-77232380D02*
X124344761Y-77946666D01*
X124392380Y-78089523D01*
X124487619Y-78184761D01*
X124630476Y-78232380D01*
X124725714Y-78232380D01*
X123392380Y-78232380D02*
X123868571Y-78232380D01*
X123868571Y-77232380D01*
X122487619Y-78137142D02*
X122535238Y-78184761D01*
X122678095Y-78232380D01*
X122773333Y-78232380D01*
X122916190Y-78184761D01*
X123011428Y-78089523D01*
X123059047Y-77994285D01*
X123106666Y-77803809D01*
X123106666Y-77660952D01*
X123059047Y-77470476D01*
X123011428Y-77375238D01*
X122916190Y-77280000D01*
X122773333Y-77232380D01*
X122678095Y-77232380D01*
X122535238Y-77280000D01*
X122487619Y-77327619D01*
X141785714Y-74861904D02*
X141785714Y-74061904D01*
X141442857Y-74861904D02*
X141442857Y-74442857D01*
X141480952Y-74366666D01*
X141557142Y-74328571D01*
X141671428Y-74328571D01*
X141747619Y-74366666D01*
X141785714Y-74404761D01*
X141176190Y-74328571D02*
X140871428Y-74328571D01*
X141061904Y-74061904D02*
X141061904Y-74747619D01*
X141023809Y-74823809D01*
X140947619Y-74861904D01*
X140871428Y-74861904D01*
X140719047Y-74328571D02*
X140414285Y-74328571D01*
X140604761Y-74061904D02*
X140604761Y-74747619D01*
X140566666Y-74823809D01*
X140490476Y-74861904D01*
X140414285Y-74861904D01*
X140147619Y-74328571D02*
X140147619Y-75128571D01*
X140147619Y-74366666D02*
X140071428Y-74328571D01*
X139919047Y-74328571D01*
X139842857Y-74366666D01*
X139804761Y-74404761D01*
X139766666Y-74480952D01*
X139766666Y-74709523D01*
X139804761Y-74785714D01*
X139842857Y-74823809D01*
X139919047Y-74861904D01*
X140071428Y-74861904D01*
X140147619Y-74823809D01*
X139461904Y-74823809D02*
X139385714Y-74861904D01*
X139233333Y-74861904D01*
X139157142Y-74823809D01*
X139119047Y-74747619D01*
X139119047Y-74709523D01*
X139157142Y-74633333D01*
X139233333Y-74595238D01*
X139347619Y-74595238D01*
X139423809Y-74557142D01*
X139461904Y-74480952D01*
X139461904Y-74442857D01*
X139423809Y-74366666D01*
X139347619Y-74328571D01*
X139233333Y-74328571D01*
X139157142Y-74366666D01*
X138776190Y-74785714D02*
X138738095Y-74823809D01*
X138776190Y-74861904D01*
X138814285Y-74823809D01*
X138776190Y-74785714D01*
X138776190Y-74861904D01*
X138776190Y-74366666D02*
X138738095Y-74404761D01*
X138776190Y-74442857D01*
X138814285Y-74404761D01*
X138776190Y-74366666D01*
X138776190Y-74442857D01*
X137823809Y-74023809D02*
X138509523Y-75052380D01*
X136985714Y-74023809D02*
X137671428Y-75052380D01*
X136376190Y-74823809D02*
X136452380Y-74861904D01*
X136604761Y-74861904D01*
X136680952Y-74823809D01*
X136719047Y-74785714D01*
X136757142Y-74709523D01*
X136757142Y-74480952D01*
X136719047Y-74404761D01*
X136680952Y-74366666D01*
X136604761Y-74328571D01*
X136452380Y-74328571D01*
X136376190Y-74366666D01*
X136033333Y-74861904D02*
X136033333Y-74328571D01*
X136033333Y-74480952D02*
X135995238Y-74404761D01*
X135957142Y-74366666D01*
X135880952Y-74328571D01*
X135804761Y-74328571D01*
X135233333Y-74823809D02*
X135309523Y-74861904D01*
X135461904Y-74861904D01*
X135538095Y-74823809D01*
X135576190Y-74747619D01*
X135576190Y-74442857D01*
X135538095Y-74366666D01*
X135461904Y-74328571D01*
X135309523Y-74328571D01*
X135233333Y-74366666D01*
X135195238Y-74442857D01*
X135195238Y-74519047D01*
X135576190Y-74595238D01*
X134509523Y-74861904D02*
X134509523Y-74442857D01*
X134547619Y-74366666D01*
X134623809Y-74328571D01*
X134776190Y-74328571D01*
X134852380Y-74366666D01*
X134509523Y-74823809D02*
X134585714Y-74861904D01*
X134776190Y-74861904D01*
X134852380Y-74823809D01*
X134890476Y-74747619D01*
X134890476Y-74671428D01*
X134852380Y-74595238D01*
X134776190Y-74557142D01*
X134585714Y-74557142D01*
X134509523Y-74519047D01*
X134242857Y-74328571D02*
X133938095Y-74328571D01*
X134128571Y-74061904D02*
X134128571Y-74747619D01*
X134090476Y-74823809D01*
X134014285Y-74861904D01*
X133938095Y-74861904D01*
X133671428Y-74861904D02*
X133671428Y-74328571D01*
X133671428Y-74061904D02*
X133709523Y-74100000D01*
X133671428Y-74138095D01*
X133633333Y-74100000D01*
X133671428Y-74061904D01*
X133671428Y-74138095D01*
X133366666Y-74328571D02*
X133176190Y-74861904D01*
X132985714Y-74328571D01*
X132376190Y-74823809D02*
X132452380Y-74861904D01*
X132604761Y-74861904D01*
X132680952Y-74823809D01*
X132719047Y-74747619D01*
X132719047Y-74442857D01*
X132680952Y-74366666D01*
X132604761Y-74328571D01*
X132452380Y-74328571D01*
X132376190Y-74366666D01*
X132338095Y-74442857D01*
X132338095Y-74519047D01*
X132719047Y-74595238D01*
X131652380Y-74823809D02*
X131728571Y-74861904D01*
X131880952Y-74861904D01*
X131957142Y-74823809D01*
X131995238Y-74785714D01*
X132033333Y-74709523D01*
X132033333Y-74480952D01*
X131995238Y-74404761D01*
X131957142Y-74366666D01*
X131880952Y-74328571D01*
X131728571Y-74328571D01*
X131652380Y-74366666D01*
X131195238Y-74861904D02*
X131271428Y-74823809D01*
X131309523Y-74785714D01*
X131347619Y-74709523D01*
X131347619Y-74480952D01*
X131309523Y-74404761D01*
X131271428Y-74366666D01*
X131195238Y-74328571D01*
X131080952Y-74328571D01*
X131004761Y-74366666D01*
X130966666Y-74404761D01*
X130928571Y-74480952D01*
X130928571Y-74709523D01*
X130966666Y-74785714D01*
X131004761Y-74823809D01*
X131080952Y-74861904D01*
X131195238Y-74861904D01*
X130585714Y-74861904D02*
X130585714Y-74328571D01*
X130585714Y-74404761D02*
X130547619Y-74366666D01*
X130471428Y-74328571D01*
X130357142Y-74328571D01*
X130280952Y-74366666D01*
X130242857Y-74442857D01*
X130242857Y-74861904D01*
X130242857Y-74442857D02*
X130204761Y-74366666D01*
X130128571Y-74328571D01*
X130014285Y-74328571D01*
X129938095Y-74366666D01*
X129900000Y-74442857D01*
X129900000Y-74861904D01*
X129519047Y-74861904D02*
X129519047Y-74328571D01*
X129519047Y-74404761D02*
X129480952Y-74366666D01*
X129404761Y-74328571D01*
X129290476Y-74328571D01*
X129214285Y-74366666D01*
X129176190Y-74442857D01*
X129176190Y-74861904D01*
X129176190Y-74442857D02*
X129138095Y-74366666D01*
X129061904Y-74328571D01*
X128947619Y-74328571D01*
X128871428Y-74366666D01*
X128833333Y-74442857D01*
X128833333Y-74861904D01*
X128338095Y-74861904D02*
X128414285Y-74823809D01*
X128452380Y-74785714D01*
X128490476Y-74709523D01*
X128490476Y-74480952D01*
X128452380Y-74404761D01*
X128414285Y-74366666D01*
X128338095Y-74328571D01*
X128223809Y-74328571D01*
X128147619Y-74366666D01*
X128109523Y-74404761D01*
X128071428Y-74480952D01*
X128071428Y-74709523D01*
X128109523Y-74785714D01*
X128147619Y-74823809D01*
X128223809Y-74861904D01*
X128338095Y-74861904D01*
X127728571Y-74328571D02*
X127728571Y-74861904D01*
X127728571Y-74404761D02*
X127690476Y-74366666D01*
X127614285Y-74328571D01*
X127500000Y-74328571D01*
X127423809Y-74366666D01*
X127385714Y-74442857D01*
X127385714Y-74861904D01*
X127042857Y-74823809D02*
X126966666Y-74861904D01*
X126814285Y-74861904D01*
X126738095Y-74823809D01*
X126700000Y-74747619D01*
X126700000Y-74709523D01*
X126738095Y-74633333D01*
X126814285Y-74595238D01*
X126928571Y-74595238D01*
X127004761Y-74557142D01*
X127042857Y-74480952D01*
X127042857Y-74442857D01*
X127004761Y-74366666D01*
X126928571Y-74328571D01*
X126814285Y-74328571D01*
X126738095Y-74366666D01*
X126357142Y-74785714D02*
X126319047Y-74823809D01*
X126357142Y-74861904D01*
X126395238Y-74823809D01*
X126357142Y-74785714D01*
X126357142Y-74861904D01*
X125861904Y-74861904D02*
X125938095Y-74823809D01*
X125976190Y-74785714D01*
X126014285Y-74709523D01*
X126014285Y-74480952D01*
X125976190Y-74404761D01*
X125938095Y-74366666D01*
X125861904Y-74328571D01*
X125747619Y-74328571D01*
X125671428Y-74366666D01*
X125633333Y-74404761D01*
X125595238Y-74480952D01*
X125595238Y-74709523D01*
X125633333Y-74785714D01*
X125671428Y-74823809D01*
X125747619Y-74861904D01*
X125861904Y-74861904D01*
X125252380Y-74861904D02*
X125252380Y-74328571D01*
X125252380Y-74480952D02*
X125214285Y-74404761D01*
X125176190Y-74366666D01*
X125100000Y-74328571D01*
X125023809Y-74328571D01*
X124414285Y-74328571D02*
X124414285Y-74976190D01*
X124452380Y-75052380D01*
X124490476Y-75090476D01*
X124566666Y-75128571D01*
X124680952Y-75128571D01*
X124757142Y-75090476D01*
X124414285Y-74823809D02*
X124490476Y-74861904D01*
X124642857Y-74861904D01*
X124719047Y-74823809D01*
X124757142Y-74785714D01*
X124795238Y-74709523D01*
X124795238Y-74480952D01*
X124757142Y-74404761D01*
X124719047Y-74366666D01*
X124642857Y-74328571D01*
X124490476Y-74328571D01*
X124414285Y-74366666D01*
G36*
X118682255Y-72965536D02*
G01*
X118712332Y-72966546D01*
X118734725Y-72969757D01*
X118754755Y-72976255D01*
X118777739Y-72987124D01*
X118801557Y-73000947D01*
X118830211Y-73025586D01*
X118849598Y-73056151D01*
X118861159Y-73095215D01*
X118866336Y-73145353D01*
X118866958Y-73191168D01*
X118863428Y-73229264D01*
X118854618Y-73259656D01*
X118839543Y-73285649D01*
X118817222Y-73310548D01*
X118806069Y-73320662D01*
X118778721Y-73340466D01*
X118754398Y-73351526D01*
X118747619Y-73353133D01*
X118711572Y-73358001D01*
X118669533Y-73359460D01*
X118628101Y-73357488D01*
X118593875Y-73352065D01*
X118588499Y-73350541D01*
X118554804Y-73334053D01*
X118523285Y-73308247D01*
X118497984Y-73277049D01*
X118482945Y-73244382D01*
X118482573Y-73242928D01*
X118478668Y-73217279D01*
X118476749Y-73182971D01*
X118477129Y-73145353D01*
X118479775Y-73111912D01*
X118488864Y-73069145D01*
X118505258Y-73035807D01*
X118530398Y-73009325D01*
X118565726Y-72987124D01*
X118572766Y-72983577D01*
X118594387Y-72974041D01*
X118614542Y-72968573D01*
X118638551Y-72966088D01*
X118671732Y-72965501D01*
X118682255Y-72965536D01*
G37*
D11*
X118682255Y-72965536D02*
X118712332Y-72966546D01*
X118734725Y-72969757D01*
X118754755Y-72976255D01*
X118777739Y-72987124D01*
X118801557Y-73000947D01*
X118830211Y-73025586D01*
X118849598Y-73056151D01*
X118861159Y-73095215D01*
X118866336Y-73145353D01*
X118866958Y-73191168D01*
X118863428Y-73229264D01*
X118854618Y-73259656D01*
X118839543Y-73285649D01*
X118817222Y-73310548D01*
X118806069Y-73320662D01*
X118778721Y-73340466D01*
X118754398Y-73351526D01*
X118747619Y-73353133D01*
X118711572Y-73358001D01*
X118669533Y-73359460D01*
X118628101Y-73357488D01*
X118593875Y-73352065D01*
X118588499Y-73350541D01*
X118554804Y-73334053D01*
X118523285Y-73308247D01*
X118497984Y-73277049D01*
X118482945Y-73244382D01*
X118482573Y-73242928D01*
X118478668Y-73217279D01*
X118476749Y-73182971D01*
X118477129Y-73145353D01*
X118479775Y-73111912D01*
X118488864Y-73069145D01*
X118505258Y-73035807D01*
X118530398Y-73009325D01*
X118565726Y-72987124D01*
X118572766Y-72983577D01*
X118594387Y-72974041D01*
X118614542Y-72968573D01*
X118638551Y-72966088D01*
X118671732Y-72965501D01*
X118682255Y-72965536D01*
G36*
X122936055Y-73930196D02*
G01*
X122934915Y-73981942D01*
X122933547Y-74023107D01*
X122931800Y-74055805D01*
X122929527Y-74082155D01*
X122926577Y-74104271D01*
X122922803Y-74124270D01*
X122918055Y-74144268D01*
X122900771Y-74207055D01*
X122853179Y-74344638D01*
X122794396Y-74473242D01*
X122724137Y-74593381D01*
X122642114Y-74705571D01*
X122548042Y-74810327D01*
X122537533Y-74820701D01*
X122513657Y-74843163D01*
X122486614Y-74867562D01*
X122458709Y-74891931D01*
X122432245Y-74914306D01*
X122409526Y-74932721D01*
X122392854Y-74945211D01*
X122384535Y-74949811D01*
X122378939Y-74952580D01*
X122363382Y-74961927D01*
X122340599Y-74976313D01*
X122313208Y-74994113D01*
X122296001Y-75005242D01*
X122183996Y-75069174D01*
X122066444Y-75122519D01*
X121946261Y-75164089D01*
X121826365Y-75192693D01*
X121809155Y-75195134D01*
X121771566Y-75198274D01*
X121721238Y-75200667D01*
X121659234Y-75202266D01*
X121586615Y-75203026D01*
X121569429Y-75203089D01*
X121512577Y-75203103D01*
X121467139Y-75202658D01*
X121430663Y-75201621D01*
X121400699Y-75199859D01*
X121374794Y-75197241D01*
X121350498Y-75193634D01*
X121325358Y-75188905D01*
X121247328Y-75170263D01*
X121142837Y-75137298D01*
X121039232Y-75096178D01*
X120940968Y-75048715D01*
X120852504Y-74996720D01*
X120832035Y-74983421D01*
X120805141Y-74966197D01*
X120783637Y-74952715D01*
X120770886Y-74945103D01*
X120755567Y-74935691D01*
X120724445Y-74912929D01*
X120687724Y-74882712D01*
X120647908Y-74847136D01*
X120607501Y-74808298D01*
X120552440Y-74750186D01*
X120465095Y-74641915D01*
X120390322Y-74526396D01*
X120328157Y-74403696D01*
X120278634Y-74273879D01*
X120241790Y-74137011D01*
X120240735Y-74131760D01*
X120236175Y-74098326D01*
X120232530Y-74053533D01*
X120229802Y-73999966D01*
X120227993Y-73940210D01*
X120227107Y-73876848D01*
X120227120Y-73853988D01*
X120487859Y-73853988D01*
X120488214Y-73901624D01*
X120489199Y-73947012D01*
X120490784Y-73987086D01*
X120492941Y-74018783D01*
X120495641Y-74039039D01*
X120496559Y-74043481D01*
X120500133Y-74062816D01*
X120504088Y-74086211D01*
X120505102Y-74092057D01*
X120514240Y-74131179D01*
X120528197Y-74178102D01*
X120545493Y-74228466D01*
X120564646Y-74277908D01*
X120584175Y-74322068D01*
X120598237Y-74350203D01*
X120659524Y-74452757D01*
X120733049Y-74548895D01*
X120817751Y-74637589D01*
X120912564Y-74717810D01*
X121016427Y-74788528D01*
X121128275Y-74848715D01*
X121155635Y-74861215D01*
X121237179Y-74892758D01*
X121319961Y-74915465D01*
X121410131Y-74931134D01*
X121435498Y-74934212D01*
X121533770Y-74941066D01*
X121633430Y-74940591D01*
X121730869Y-74933032D01*
X121822477Y-74918632D01*
X121904644Y-74897637D01*
X121935619Y-74886862D01*
X121986680Y-74866209D01*
X122040696Y-74841613D01*
X122093458Y-74815119D01*
X122140755Y-74788771D01*
X122178379Y-74764617D01*
X122183646Y-74760849D01*
X122274373Y-74691170D01*
X122352961Y-74620587D01*
X122421587Y-74546770D01*
X122482425Y-74467393D01*
X122537652Y-74380125D01*
X122572102Y-74315155D01*
X122618409Y-74203476D01*
X122651680Y-74086928D01*
X122671611Y-73967020D01*
X122677895Y-73845262D01*
X122670230Y-73723163D01*
X122669572Y-73717734D01*
X122664468Y-73676389D01*
X122660363Y-73645739D01*
X122656672Y-73622432D01*
X122652807Y-73603118D01*
X122648182Y-73584446D01*
X122642211Y-73563064D01*
X122613202Y-73476278D01*
X122562742Y-73363523D01*
X122500091Y-73256272D01*
X122426355Y-73155841D01*
X122342640Y-73063549D01*
X122250051Y-72980712D01*
X122149694Y-72908649D01*
X122042675Y-72848677D01*
X121966615Y-72815768D01*
X121880625Y-72788263D01*
X121789531Y-72769264D01*
X121690787Y-72758253D01*
X121581847Y-72754711D01*
X121539074Y-72755212D01*
X121424892Y-72762275D01*
X121319993Y-72778296D01*
X121222236Y-72804065D01*
X121129477Y-72840369D01*
X121039573Y-72887997D01*
X120950382Y-72947737D01*
X120859761Y-73020378D01*
X120805811Y-73070180D01*
X120723792Y-73160858D01*
X120652782Y-73259550D01*
X120593466Y-73364974D01*
X120546524Y-73475850D01*
X120512641Y-73590899D01*
X120492500Y-73708839D01*
X120490865Y-73728224D01*
X120489156Y-73764223D01*
X120488163Y-73807166D01*
X120487859Y-73853988D01*
X120227120Y-73853988D01*
X120227145Y-73812465D01*
X120228109Y-73749644D01*
X120230002Y-73690971D01*
X120232826Y-73639029D01*
X120236584Y-73596402D01*
X120241277Y-73565676D01*
X120257494Y-73498456D01*
X120299429Y-73367138D01*
X120353308Y-73241875D01*
X120418421Y-73124214D01*
X120494057Y-73015702D01*
X120513210Y-72991692D01*
X120603811Y-72890857D01*
X120703062Y-72799342D01*
X120809614Y-72718012D01*
X120922115Y-72647730D01*
X121039217Y-72589361D01*
X121159567Y-72543769D01*
X121281815Y-72511816D01*
X121290578Y-72510079D01*
X121312529Y-72506174D01*
X121334697Y-72503117D01*
X121359122Y-72500807D01*
X121387849Y-72499147D01*
X121422919Y-72498036D01*
X121466375Y-72497376D01*
X121520260Y-72497067D01*
X121586615Y-72497010D01*
X121601565Y-72497021D01*
X121665476Y-72497195D01*
X121717273Y-72497639D01*
X121758944Y-72498450D01*
X121792477Y-72499721D01*
X121819859Y-72501549D01*
X121843079Y-72504028D01*
X121864123Y-72507255D01*
X121884981Y-72511325D01*
X121926433Y-72521014D01*
X122017192Y-72548040D01*
X122107992Y-72582316D01*
X122194005Y-72621918D01*
X122270406Y-72664922D01*
X122300204Y-72684148D01*
X122417524Y-72769716D01*
X122524606Y-72864277D01*
X122620906Y-72967068D01*
X122705879Y-73077328D01*
X122778982Y-73194292D01*
X122839670Y-73317198D01*
X122887400Y-73445284D01*
X122921627Y-73577787D01*
X122926273Y-73601059D01*
X122930657Y-73625090D01*
X122933932Y-73647439D01*
X122936218Y-73670419D01*
X122937632Y-73696343D01*
X122938295Y-73727525D01*
X122938325Y-73766279D01*
X122937842Y-73814917D01*
X122937404Y-73845262D01*
X122936964Y-73875754D01*
X122936055Y-73930196D01*
G37*
X122936055Y-73930196D02*
X122934915Y-73981942D01*
X122933547Y-74023107D01*
X122931800Y-74055805D01*
X122929527Y-74082155D01*
X122926577Y-74104271D01*
X122922803Y-74124270D01*
X122918055Y-74144268D01*
X122900771Y-74207055D01*
X122853179Y-74344638D01*
X122794396Y-74473242D01*
X122724137Y-74593381D01*
X122642114Y-74705571D01*
X122548042Y-74810327D01*
X122537533Y-74820701D01*
X122513657Y-74843163D01*
X122486614Y-74867562D01*
X122458709Y-74891931D01*
X122432245Y-74914306D01*
X122409526Y-74932721D01*
X122392854Y-74945211D01*
X122384535Y-74949811D01*
X122378939Y-74952580D01*
X122363382Y-74961927D01*
X122340599Y-74976313D01*
X122313208Y-74994113D01*
X122296001Y-75005242D01*
X122183996Y-75069174D01*
X122066444Y-75122519D01*
X121946261Y-75164089D01*
X121826365Y-75192693D01*
X121809155Y-75195134D01*
X121771566Y-75198274D01*
X121721238Y-75200667D01*
X121659234Y-75202266D01*
X121586615Y-75203026D01*
X121569429Y-75203089D01*
X121512577Y-75203103D01*
X121467139Y-75202658D01*
X121430663Y-75201621D01*
X121400699Y-75199859D01*
X121374794Y-75197241D01*
X121350498Y-75193634D01*
X121325358Y-75188905D01*
X121247328Y-75170263D01*
X121142837Y-75137298D01*
X121039232Y-75096178D01*
X120940968Y-75048715D01*
X120852504Y-74996720D01*
X120832035Y-74983421D01*
X120805141Y-74966197D01*
X120783637Y-74952715D01*
X120770886Y-74945103D01*
X120755567Y-74935691D01*
X120724445Y-74912929D01*
X120687724Y-74882712D01*
X120647908Y-74847136D01*
X120607501Y-74808298D01*
X120552440Y-74750186D01*
X120465095Y-74641915D01*
X120390322Y-74526396D01*
X120328157Y-74403696D01*
X120278634Y-74273879D01*
X120241790Y-74137011D01*
X120240735Y-74131760D01*
X120236175Y-74098326D01*
X120232530Y-74053533D01*
X120229802Y-73999966D01*
X120227993Y-73940210D01*
X120227107Y-73876848D01*
X120227120Y-73853988D01*
X120487859Y-73853988D01*
X120488214Y-73901624D01*
X120489199Y-73947012D01*
X120490784Y-73987086D01*
X120492941Y-74018783D01*
X120495641Y-74039039D01*
X120496559Y-74043481D01*
X120500133Y-74062816D01*
X120504088Y-74086211D01*
X120505102Y-74092057D01*
X120514240Y-74131179D01*
X120528197Y-74178102D01*
X120545493Y-74228466D01*
X120564646Y-74277908D01*
X120584175Y-74322068D01*
X120598237Y-74350203D01*
X120659524Y-74452757D01*
X120733049Y-74548895D01*
X120817751Y-74637589D01*
X120912564Y-74717810D01*
X121016427Y-74788528D01*
X121128275Y-74848715D01*
X121155635Y-74861215D01*
X121237179Y-74892758D01*
X121319961Y-74915465D01*
X121410131Y-74931134D01*
X121435498Y-74934212D01*
X121533770Y-74941066D01*
X121633430Y-74940591D01*
X121730869Y-74933032D01*
X121822477Y-74918632D01*
X121904644Y-74897637D01*
X121935619Y-74886862D01*
X121986680Y-74866209D01*
X122040696Y-74841613D01*
X122093458Y-74815119D01*
X122140755Y-74788771D01*
X122178379Y-74764617D01*
X122183646Y-74760849D01*
X122274373Y-74691170D01*
X122352961Y-74620587D01*
X122421587Y-74546770D01*
X122482425Y-74467393D01*
X122537652Y-74380125D01*
X122572102Y-74315155D01*
X122618409Y-74203476D01*
X122651680Y-74086928D01*
X122671611Y-73967020D01*
X122677895Y-73845262D01*
X122670230Y-73723163D01*
X122669572Y-73717734D01*
X122664468Y-73676389D01*
X122660363Y-73645739D01*
X122656672Y-73622432D01*
X122652807Y-73603118D01*
X122648182Y-73584446D01*
X122642211Y-73563064D01*
X122613202Y-73476278D01*
X122562742Y-73363523D01*
X122500091Y-73256272D01*
X122426355Y-73155841D01*
X122342640Y-73063549D01*
X122250051Y-72980712D01*
X122149694Y-72908649D01*
X122042675Y-72848677D01*
X121966615Y-72815768D01*
X121880625Y-72788263D01*
X121789531Y-72769264D01*
X121690787Y-72758253D01*
X121581847Y-72754711D01*
X121539074Y-72755212D01*
X121424892Y-72762275D01*
X121319993Y-72778296D01*
X121222236Y-72804065D01*
X121129477Y-72840369D01*
X121039573Y-72887997D01*
X120950382Y-72947737D01*
X120859761Y-73020378D01*
X120805811Y-73070180D01*
X120723792Y-73160858D01*
X120652782Y-73259550D01*
X120593466Y-73364974D01*
X120546524Y-73475850D01*
X120512641Y-73590899D01*
X120492500Y-73708839D01*
X120490865Y-73728224D01*
X120489156Y-73764223D01*
X120488163Y-73807166D01*
X120487859Y-73853988D01*
X120227120Y-73853988D01*
X120227145Y-73812465D01*
X120228109Y-73749644D01*
X120230002Y-73690971D01*
X120232826Y-73639029D01*
X120236584Y-73596402D01*
X120241277Y-73565676D01*
X120257494Y-73498456D01*
X120299429Y-73367138D01*
X120353308Y-73241875D01*
X120418421Y-73124214D01*
X120494057Y-73015702D01*
X120513210Y-72991692D01*
X120603811Y-72890857D01*
X120703062Y-72799342D01*
X120809614Y-72718012D01*
X120922115Y-72647730D01*
X121039217Y-72589361D01*
X121159567Y-72543769D01*
X121281815Y-72511816D01*
X121290578Y-72510079D01*
X121312529Y-72506174D01*
X121334697Y-72503117D01*
X121359122Y-72500807D01*
X121387849Y-72499147D01*
X121422919Y-72498036D01*
X121466375Y-72497376D01*
X121520260Y-72497067D01*
X121586615Y-72497010D01*
X121601565Y-72497021D01*
X121665476Y-72497195D01*
X121717273Y-72497639D01*
X121758944Y-72498450D01*
X121792477Y-72499721D01*
X121819859Y-72501549D01*
X121843079Y-72504028D01*
X121864123Y-72507255D01*
X121884981Y-72511325D01*
X121926433Y-72521014D01*
X122017192Y-72548040D01*
X122107992Y-72582316D01*
X122194005Y-72621918D01*
X122270406Y-72664922D01*
X122300204Y-72684148D01*
X122417524Y-72769716D01*
X122524606Y-72864277D01*
X122620906Y-72967068D01*
X122705879Y-73077328D01*
X122778982Y-73194292D01*
X122839670Y-73317198D01*
X122887400Y-73445284D01*
X122921627Y-73577787D01*
X122926273Y-73601059D01*
X122930657Y-73625090D01*
X122933932Y-73647439D01*
X122936218Y-73670419D01*
X122937632Y-73696343D01*
X122938295Y-73727525D01*
X122938325Y-73766279D01*
X122937842Y-73814917D01*
X122937404Y-73845262D01*
X122936964Y-73875754D01*
X122936055Y-73930196D01*
G36*
X118731445Y-73418567D02*
G01*
X118800105Y-73418706D01*
X118856539Y-73419130D01*
X118902059Y-73419996D01*
X118937978Y-73421464D01*
X118965608Y-73423691D01*
X118986263Y-73426835D01*
X119001254Y-73431055D01*
X119011895Y-73436509D01*
X119019497Y-73443355D01*
X119025374Y-73451753D01*
X119030838Y-73461859D01*
X119031321Y-73462837D01*
X119034024Y-73470553D01*
X119036235Y-73482048D01*
X119038002Y-73498665D01*
X119039370Y-73521745D01*
X119040385Y-73552629D01*
X119041094Y-73592660D01*
X119041543Y-73643179D01*
X119041779Y-73705529D01*
X119041847Y-73781050D01*
X119041847Y-74078954D01*
X118889447Y-74078954D01*
X118889447Y-74404316D01*
X118889383Y-74456311D01*
X118889122Y-74520365D01*
X118888678Y-74578788D01*
X118888074Y-74630100D01*
X118887332Y-74672820D01*
X118886475Y-74705467D01*
X118885524Y-74726562D01*
X118884501Y-74734623D01*
X118883734Y-74734941D01*
X118872165Y-74736082D01*
X118848403Y-74736982D01*
X118814308Y-74737614D01*
X118771736Y-74737953D01*
X118722548Y-74737973D01*
X118668601Y-74737647D01*
X118457647Y-74735725D01*
X118455759Y-74407339D01*
X118453870Y-74078954D01*
X118301618Y-74078954D01*
X118301618Y-73781050D01*
X118301620Y-73767971D01*
X118301712Y-73694656D01*
X118301979Y-73634298D01*
X118302466Y-73585555D01*
X118303222Y-73547084D01*
X118304290Y-73517544D01*
X118305719Y-73495594D01*
X118307554Y-73479891D01*
X118309841Y-73469093D01*
X118312627Y-73461859D01*
X118316700Y-73454180D01*
X118322346Y-73445359D01*
X118329379Y-73438129D01*
X118339114Y-73432332D01*
X118352862Y-73427810D01*
X118371936Y-73424405D01*
X118397649Y-73421957D01*
X118431313Y-73420310D01*
X118474240Y-73419304D01*
X118527744Y-73418782D01*
X118593138Y-73418584D01*
X118671732Y-73418554D01*
X118731445Y-73418567D01*
G37*
X118731445Y-73418567D02*
X118800105Y-73418706D01*
X118856539Y-73419130D01*
X118902059Y-73419996D01*
X118937978Y-73421464D01*
X118965608Y-73423691D01*
X118986263Y-73426835D01*
X119001254Y-73431055D01*
X119011895Y-73436509D01*
X119019497Y-73443355D01*
X119025374Y-73451753D01*
X119030838Y-73461859D01*
X119031321Y-73462837D01*
X119034024Y-73470553D01*
X119036235Y-73482048D01*
X119038002Y-73498665D01*
X119039370Y-73521745D01*
X119040385Y-73552629D01*
X119041094Y-73592660D01*
X119041543Y-73643179D01*
X119041779Y-73705529D01*
X119041847Y-73781050D01*
X119041847Y-74078954D01*
X118889447Y-74078954D01*
X118889447Y-74404316D01*
X118889383Y-74456311D01*
X118889122Y-74520365D01*
X118888678Y-74578788D01*
X118888074Y-74630100D01*
X118887332Y-74672820D01*
X118886475Y-74705467D01*
X118885524Y-74726562D01*
X118884501Y-74734623D01*
X118883734Y-74734941D01*
X118872165Y-74736082D01*
X118848403Y-74736982D01*
X118814308Y-74737614D01*
X118771736Y-74737953D01*
X118722548Y-74737973D01*
X118668601Y-74737647D01*
X118457647Y-74735725D01*
X118455759Y-74407339D01*
X118453870Y-74078954D01*
X118301618Y-74078954D01*
X118301618Y-73781050D01*
X118301620Y-73767971D01*
X118301712Y-73694656D01*
X118301979Y-73634298D01*
X118302466Y-73585555D01*
X118303222Y-73547084D01*
X118304290Y-73517544D01*
X118305719Y-73495594D01*
X118307554Y-73479891D01*
X118309841Y-73469093D01*
X118312627Y-73461859D01*
X118316700Y-73454180D01*
X118322346Y-73445359D01*
X118329379Y-73438129D01*
X118339114Y-73432332D01*
X118352862Y-73427810D01*
X118371936Y-73424405D01*
X118397649Y-73421957D01*
X118431313Y-73420310D01*
X118474240Y-73419304D01*
X118527744Y-73418782D01*
X118593138Y-73418584D01*
X118671732Y-73418554D01*
X118731445Y-73418567D01*
G36*
X121224783Y-73421925D02*
G01*
X121291561Y-73433619D01*
X121352091Y-73456449D01*
X121408771Y-73491310D01*
X121463999Y-73539097D01*
X121484318Y-73560290D01*
X121520465Y-73606814D01*
X121546968Y-73656592D01*
X121564738Y-73712115D01*
X121574684Y-73775872D01*
X121577717Y-73850354D01*
X121577562Y-73867598D01*
X121574274Y-73927320D01*
X121565999Y-73978736D01*
X121551783Y-74026384D01*
X121530677Y-74074801D01*
X121496642Y-74129442D01*
X121449652Y-74180319D01*
X121393507Y-74222506D01*
X121330402Y-74254370D01*
X121262532Y-74274276D01*
X121245523Y-74276987D01*
X121201115Y-74280564D01*
X121153095Y-74280717D01*
X121107390Y-74277542D01*
X121069929Y-74271138D01*
X121015390Y-74252800D01*
X120949122Y-74218037D01*
X120889321Y-74172179D01*
X120885561Y-74168674D01*
X120864542Y-74147257D01*
X120843483Y-74123275D01*
X120824390Y-74099350D01*
X120809269Y-74078100D01*
X120800122Y-74062145D01*
X120798956Y-74054104D01*
X120799922Y-74053485D01*
X120810664Y-74047717D01*
X120831207Y-74037129D01*
X120859120Y-74022964D01*
X120891973Y-74006467D01*
X120894767Y-74005071D01*
X120929923Y-73987679D01*
X120954511Y-73976161D01*
X120970733Y-73969817D01*
X120980787Y-73967943D01*
X120986873Y-73969837D01*
X120991192Y-73974797D01*
X121008547Y-74000385D01*
X121029083Y-74028447D01*
X121045809Y-74047596D01*
X121060719Y-74060027D01*
X121075808Y-74067936D01*
X121082680Y-74070346D01*
X121113030Y-74076393D01*
X121148495Y-74078664D01*
X121182744Y-74077003D01*
X121209446Y-74071251D01*
X121221107Y-74065890D01*
X121251645Y-74043075D01*
X121278583Y-74011170D01*
X121298987Y-73974126D01*
X121309926Y-73935895D01*
X121311495Y-73921167D01*
X121313273Y-73888500D01*
X121313918Y-73850658D01*
X121313449Y-73812553D01*
X121311883Y-73779098D01*
X121309241Y-73755207D01*
X121298014Y-73715812D01*
X121274772Y-73675741D01*
X121242090Y-73646213D01*
X121200890Y-73628010D01*
X121152094Y-73621913D01*
X121131552Y-73622977D01*
X121090552Y-73633108D01*
X121055367Y-73655046D01*
X121023463Y-73690133D01*
X120993383Y-73730851D01*
X120899497Y-73681745D01*
X120897868Y-73680892D01*
X120856454Y-73658457D01*
X120827714Y-73641138D01*
X120810952Y-73628478D01*
X120805472Y-73620019D01*
X120805745Y-73617516D01*
X120813131Y-73601872D01*
X120828821Y-73580260D01*
X120850440Y-73555292D01*
X120875610Y-73529580D01*
X120901953Y-73505738D01*
X120927091Y-73486378D01*
X120964038Y-73464006D01*
X121017319Y-73441531D01*
X121077004Y-73427396D01*
X121146418Y-73420602D01*
X121149358Y-73420473D01*
X121224783Y-73421925D01*
G37*
X121224783Y-73421925D02*
X121291561Y-73433619D01*
X121352091Y-73456449D01*
X121408771Y-73491310D01*
X121463999Y-73539097D01*
X121484318Y-73560290D01*
X121520465Y-73606814D01*
X121546968Y-73656592D01*
X121564738Y-73712115D01*
X121574684Y-73775872D01*
X121577717Y-73850354D01*
X121577562Y-73867598D01*
X121574274Y-73927320D01*
X121565999Y-73978736D01*
X121551783Y-74026384D01*
X121530677Y-74074801D01*
X121496642Y-74129442D01*
X121449652Y-74180319D01*
X121393507Y-74222506D01*
X121330402Y-74254370D01*
X121262532Y-74274276D01*
X121245523Y-74276987D01*
X121201115Y-74280564D01*
X121153095Y-74280717D01*
X121107390Y-74277542D01*
X121069929Y-74271138D01*
X121015390Y-74252800D01*
X120949122Y-74218037D01*
X120889321Y-74172179D01*
X120885561Y-74168674D01*
X120864542Y-74147257D01*
X120843483Y-74123275D01*
X120824390Y-74099350D01*
X120809269Y-74078100D01*
X120800122Y-74062145D01*
X120798956Y-74054104D01*
X120799922Y-74053485D01*
X120810664Y-74047717D01*
X120831207Y-74037129D01*
X120859120Y-74022964D01*
X120891973Y-74006467D01*
X120894767Y-74005071D01*
X120929923Y-73987679D01*
X120954511Y-73976161D01*
X120970733Y-73969817D01*
X120980787Y-73967943D01*
X120986873Y-73969837D01*
X120991192Y-73974797D01*
X121008547Y-74000385D01*
X121029083Y-74028447D01*
X121045809Y-74047596D01*
X121060719Y-74060027D01*
X121075808Y-74067936D01*
X121082680Y-74070346D01*
X121113030Y-74076393D01*
X121148495Y-74078664D01*
X121182744Y-74077003D01*
X121209446Y-74071251D01*
X121221107Y-74065890D01*
X121251645Y-74043075D01*
X121278583Y-74011170D01*
X121298987Y-73974126D01*
X121309926Y-73935895D01*
X121311495Y-73921167D01*
X121313273Y-73888500D01*
X121313918Y-73850658D01*
X121313449Y-73812553D01*
X121311883Y-73779098D01*
X121309241Y-73755207D01*
X121298014Y-73715812D01*
X121274772Y-73675741D01*
X121242090Y-73646213D01*
X121200890Y-73628010D01*
X121152094Y-73621913D01*
X121131552Y-73622977D01*
X121090552Y-73633108D01*
X121055367Y-73655046D01*
X121023463Y-73690133D01*
X120993383Y-73730851D01*
X120899497Y-73681745D01*
X120897868Y-73680892D01*
X120856454Y-73658457D01*
X120827714Y-73641138D01*
X120810952Y-73628478D01*
X120805472Y-73620019D01*
X120805745Y-73617516D01*
X120813131Y-73601872D01*
X120828821Y-73580260D01*
X120850440Y-73555292D01*
X120875610Y-73529580D01*
X120901953Y-73505738D01*
X120927091Y-73486378D01*
X120964038Y-73464006D01*
X121017319Y-73441531D01*
X121077004Y-73427396D01*
X121146418Y-73420602D01*
X121149358Y-73420473D01*
X121224783Y-73421925D01*
G36*
X115890612Y-73136782D02*
G01*
X115976822Y-73159884D01*
X116056979Y-73194037D01*
X116130020Y-73238837D01*
X116194883Y-73293878D01*
X116250506Y-73358757D01*
X116295826Y-73433068D01*
X116315707Y-73476236D01*
X116334552Y-73525001D01*
X116349183Y-73571533D01*
X116357845Y-73610803D01*
X116362752Y-73643525D01*
X116416357Y-73643525D01*
X116444119Y-73643968D01*
X116460424Y-73645762D01*
X116468064Y-73649594D01*
X116469961Y-73656153D01*
X116469791Y-73657001D01*
X116463083Y-73667128D01*
X116447828Y-73685243D01*
X116425704Y-73709653D01*
X116398390Y-73738670D01*
X116367562Y-73770603D01*
X116334899Y-73803762D01*
X116302079Y-73836457D01*
X116270778Y-73866997D01*
X116242676Y-73893693D01*
X116219449Y-73914854D01*
X116202776Y-73928790D01*
X116194335Y-73933811D01*
X116193500Y-73933643D01*
X116183432Y-73926908D01*
X116165429Y-73911564D01*
X116141170Y-73889302D01*
X116112334Y-73861809D01*
X116080601Y-73830776D01*
X116047650Y-73797892D01*
X116015160Y-73764845D01*
X115984812Y-73733325D01*
X115958284Y-73705021D01*
X115937256Y-73681623D01*
X115923408Y-73664819D01*
X115918418Y-73656299D01*
X115919441Y-73650847D01*
X115925645Y-73646232D01*
X115940196Y-73644065D01*
X115966166Y-73643525D01*
X116013914Y-73643525D01*
X116008823Y-73619939D01*
X115998919Y-73588475D01*
X115974223Y-73543294D01*
X115940204Y-73503226D01*
X115899892Y-73472374D01*
X115874377Y-73458814D01*
X115845632Y-73447767D01*
X115812309Y-73439904D01*
X115769441Y-73433755D01*
X115715655Y-73430896D01*
X115651424Y-73438101D01*
X115594506Y-73457468D01*
X115545398Y-73488739D01*
X115504600Y-73531660D01*
X115472609Y-73585975D01*
X115458924Y-73618397D01*
X115446843Y-73655122D01*
X115438300Y-73693964D01*
X115432791Y-73738002D01*
X115429813Y-73790315D01*
X115428865Y-73853982D01*
X115428864Y-73854714D01*
X115429023Y-73903118D01*
X115429836Y-73940199D01*
X115431580Y-73969102D01*
X115434535Y-73992970D01*
X115438979Y-74014949D01*
X115445191Y-74038183D01*
X115460608Y-74085362D01*
X115489765Y-74150040D01*
X115525167Y-74202669D01*
X115567494Y-74244186D01*
X115617425Y-74275526D01*
X115667000Y-74293513D01*
X115722376Y-74302037D01*
X115779354Y-74300967D01*
X115835065Y-74290830D01*
X115886641Y-74272156D01*
X115931213Y-74245473D01*
X115965912Y-74211309D01*
X115972391Y-74202256D01*
X115993334Y-74164168D01*
X116008450Y-74122655D01*
X116015213Y-74084232D01*
X116016390Y-74060811D01*
X116196004Y-74058870D01*
X116210435Y-74058719D01*
X116263771Y-74058302D01*
X116304552Y-74058315D01*
X116334363Y-74058832D01*
X116354790Y-74059930D01*
X116367418Y-74061684D01*
X116373832Y-74064171D01*
X116375618Y-74067467D01*
X116375560Y-74070436D01*
X116372111Y-74097955D01*
X116364159Y-74134304D01*
X116352854Y-74175572D01*
X116339346Y-74217845D01*
X116324783Y-74257212D01*
X116310315Y-74289760D01*
X116291238Y-74324017D01*
X116241905Y-74391820D01*
X116181637Y-74452715D01*
X116112254Y-74505420D01*
X116035576Y-74548653D01*
X115953424Y-74581132D01*
X115867618Y-74601574D01*
X115842360Y-74604546D01*
X115792534Y-74606515D01*
X115736196Y-74605142D01*
X115677999Y-74600710D01*
X115622594Y-74593500D01*
X115574634Y-74583794D01*
X115519434Y-74567301D01*
X115429787Y-74529023D01*
X115347727Y-74478955D01*
X115274041Y-74417899D01*
X115209519Y-74346656D01*
X115154948Y-74266027D01*
X115111116Y-74176813D01*
X115078813Y-74079816D01*
X115072867Y-74054526D01*
X115061422Y-73981457D01*
X115055935Y-73901925D01*
X115056303Y-73819915D01*
X115062421Y-73739410D01*
X115074183Y-73664396D01*
X115091484Y-73598855D01*
X115106009Y-73560245D01*
X115135012Y-73497460D01*
X115169597Y-73435111D01*
X115207119Y-73377827D01*
X115244935Y-73330236D01*
X115255852Y-73318664D01*
X115303804Y-73276414D01*
X115361305Y-73236134D01*
X115424478Y-73200099D01*
X115489443Y-73170584D01*
X115552324Y-73149866D01*
X115606286Y-73137827D01*
X115704282Y-73125349D01*
X115799411Y-73125135D01*
X115890612Y-73136782D01*
G37*
X115890612Y-73136782D02*
X115976822Y-73159884D01*
X116056979Y-73194037D01*
X116130020Y-73238837D01*
X116194883Y-73293878D01*
X116250506Y-73358757D01*
X116295826Y-73433068D01*
X116315707Y-73476236D01*
X116334552Y-73525001D01*
X116349183Y-73571533D01*
X116357845Y-73610803D01*
X116362752Y-73643525D01*
X116416357Y-73643525D01*
X116444119Y-73643968D01*
X116460424Y-73645762D01*
X116468064Y-73649594D01*
X116469961Y-73656153D01*
X116469791Y-73657001D01*
X116463083Y-73667128D01*
X116447828Y-73685243D01*
X116425704Y-73709653D01*
X116398390Y-73738670D01*
X116367562Y-73770603D01*
X116334899Y-73803762D01*
X116302079Y-73836457D01*
X116270778Y-73866997D01*
X116242676Y-73893693D01*
X116219449Y-73914854D01*
X116202776Y-73928790D01*
X116194335Y-73933811D01*
X116193500Y-73933643D01*
X116183432Y-73926908D01*
X116165429Y-73911564D01*
X116141170Y-73889302D01*
X116112334Y-73861809D01*
X116080601Y-73830776D01*
X116047650Y-73797892D01*
X116015160Y-73764845D01*
X115984812Y-73733325D01*
X115958284Y-73705021D01*
X115937256Y-73681623D01*
X115923408Y-73664819D01*
X115918418Y-73656299D01*
X115919441Y-73650847D01*
X115925645Y-73646232D01*
X115940196Y-73644065D01*
X115966166Y-73643525D01*
X116013914Y-73643525D01*
X116008823Y-73619939D01*
X115998919Y-73588475D01*
X115974223Y-73543294D01*
X115940204Y-73503226D01*
X115899892Y-73472374D01*
X115874377Y-73458814D01*
X115845632Y-73447767D01*
X115812309Y-73439904D01*
X115769441Y-73433755D01*
X115715655Y-73430896D01*
X115651424Y-73438101D01*
X115594506Y-73457468D01*
X115545398Y-73488739D01*
X115504600Y-73531660D01*
X115472609Y-73585975D01*
X115458924Y-73618397D01*
X115446843Y-73655122D01*
X115438300Y-73693964D01*
X115432791Y-73738002D01*
X115429813Y-73790315D01*
X115428865Y-73853982D01*
X115428864Y-73854714D01*
X115429023Y-73903118D01*
X115429836Y-73940199D01*
X115431580Y-73969102D01*
X115434535Y-73992970D01*
X115438979Y-74014949D01*
X115445191Y-74038183D01*
X115460608Y-74085362D01*
X115489765Y-74150040D01*
X115525167Y-74202669D01*
X115567494Y-74244186D01*
X115617425Y-74275526D01*
X115667000Y-74293513D01*
X115722376Y-74302037D01*
X115779354Y-74300967D01*
X115835065Y-74290830D01*
X115886641Y-74272156D01*
X115931213Y-74245473D01*
X115965912Y-74211309D01*
X115972391Y-74202256D01*
X115993334Y-74164168D01*
X116008450Y-74122655D01*
X116015213Y-74084232D01*
X116016390Y-74060811D01*
X116196004Y-74058870D01*
X116210435Y-74058719D01*
X116263771Y-74058302D01*
X116304552Y-74058315D01*
X116334363Y-74058832D01*
X116354790Y-74059930D01*
X116367418Y-74061684D01*
X116373832Y-74064171D01*
X116375618Y-74067467D01*
X116375560Y-74070436D01*
X116372111Y-74097955D01*
X116364159Y-74134304D01*
X116352854Y-74175572D01*
X116339346Y-74217845D01*
X116324783Y-74257212D01*
X116310315Y-74289760D01*
X116291238Y-74324017D01*
X116241905Y-74391820D01*
X116181637Y-74452715D01*
X116112254Y-74505420D01*
X116035576Y-74548653D01*
X115953424Y-74581132D01*
X115867618Y-74601574D01*
X115842360Y-74604546D01*
X115792534Y-74606515D01*
X115736196Y-74605142D01*
X115677999Y-74600710D01*
X115622594Y-74593500D01*
X115574634Y-74583794D01*
X115519434Y-74567301D01*
X115429787Y-74529023D01*
X115347727Y-74478955D01*
X115274041Y-74417899D01*
X115209519Y-74346656D01*
X115154948Y-74266027D01*
X115111116Y-74176813D01*
X115078813Y-74079816D01*
X115072867Y-74054526D01*
X115061422Y-73981457D01*
X115055935Y-73901925D01*
X115056303Y-73819915D01*
X115062421Y-73739410D01*
X115074183Y-73664396D01*
X115091484Y-73598855D01*
X115106009Y-73560245D01*
X115135012Y-73497460D01*
X115169597Y-73435111D01*
X115207119Y-73377827D01*
X115244935Y-73330236D01*
X115255852Y-73318664D01*
X115303804Y-73276414D01*
X115361305Y-73236134D01*
X115424478Y-73200099D01*
X115489443Y-73170584D01*
X115552324Y-73149866D01*
X115606286Y-73137827D01*
X115704282Y-73125349D01*
X115799411Y-73125135D01*
X115890612Y-73136782D01*
G36*
X121980757Y-73419359D02*
G01*
X122054723Y-73429006D01*
X122121748Y-73450596D01*
X122183803Y-73484903D01*
X122242853Y-73532703D01*
X122272390Y-73562996D01*
X122306802Y-73608534D01*
X122332021Y-73658071D01*
X122348903Y-73713938D01*
X122358307Y-73778465D01*
X122361090Y-73853982D01*
X122361040Y-73865468D01*
X122360385Y-73905099D01*
X122358630Y-73935291D01*
X122355268Y-73960121D01*
X122349791Y-73983668D01*
X122341692Y-74010011D01*
X122340296Y-74014178D01*
X122328018Y-74046678D01*
X122314287Y-74077588D01*
X122301819Y-74100725D01*
X122279412Y-74131588D01*
X122233091Y-74179158D01*
X122178499Y-74219954D01*
X122119215Y-74251466D01*
X122058817Y-74271185D01*
X121995376Y-74280563D01*
X121915914Y-74280033D01*
X121838808Y-74265913D01*
X121765927Y-74238412D01*
X121754690Y-74232453D01*
X121720501Y-74209956D01*
X121684082Y-74180965D01*
X121649177Y-74148840D01*
X121619531Y-74116937D01*
X121598889Y-74088616D01*
X121595331Y-74082602D01*
X121588610Y-74070433D01*
X121585997Y-74060842D01*
X121588965Y-74052303D01*
X121598983Y-74043288D01*
X121617523Y-74032270D01*
X121646056Y-74017720D01*
X121686052Y-73998114D01*
X121718478Y-73982713D01*
X121745771Y-73971220D01*
X121762205Y-73966569D01*
X121768652Y-73968447D01*
X121781201Y-73992874D01*
X121802251Y-74020778D01*
X121826862Y-74045779D01*
X121850472Y-74062625D01*
X121876709Y-74072351D01*
X121916140Y-74078593D01*
X121956128Y-74077550D01*
X121990294Y-74068933D01*
X121995718Y-74066387D01*
X122026028Y-74044611D01*
X122054112Y-74012552D01*
X122076775Y-73973725D01*
X122077779Y-73971523D01*
X122084671Y-73954343D01*
X122089221Y-73936812D01*
X122091895Y-73915391D01*
X122093158Y-73886542D01*
X122093475Y-73846725D01*
X122093472Y-73841098D01*
X122093063Y-73802838D01*
X122091654Y-73775109D01*
X122088777Y-73754373D01*
X122083967Y-73737091D01*
X122076758Y-73719725D01*
X122073071Y-73711989D01*
X122047501Y-73670947D01*
X122017059Y-73642912D01*
X121980322Y-73626897D01*
X121935866Y-73621913D01*
X121919139Y-73622589D01*
X121880562Y-73630481D01*
X121847356Y-73648406D01*
X121817304Y-73677837D01*
X121788191Y-73720252D01*
X121788027Y-73720524D01*
X121783990Y-73724964D01*
X121777568Y-73726171D01*
X121766689Y-73723404D01*
X121749281Y-73715919D01*
X121723272Y-73702974D01*
X121686591Y-73683826D01*
X121671938Y-73676096D01*
X121640369Y-73659357D01*
X121614638Y-73645598D01*
X121597085Y-73636073D01*
X121590047Y-73632035D01*
X121587970Y-73625406D01*
X121593119Y-73609533D01*
X121605892Y-73587980D01*
X121624482Y-73563109D01*
X121647082Y-73537280D01*
X121671886Y-73512854D01*
X121697086Y-73492192D01*
X121735038Y-73468447D01*
X121800369Y-73440986D01*
X121873670Y-73424243D01*
X121953394Y-73418661D01*
X121980757Y-73419359D01*
G37*
X121980757Y-73419359D02*
X122054723Y-73429006D01*
X122121748Y-73450596D01*
X122183803Y-73484903D01*
X122242853Y-73532703D01*
X122272390Y-73562996D01*
X122306802Y-73608534D01*
X122332021Y-73658071D01*
X122348903Y-73713938D01*
X122358307Y-73778465D01*
X122361090Y-73853982D01*
X122361040Y-73865468D01*
X122360385Y-73905099D01*
X122358630Y-73935291D01*
X122355268Y-73960121D01*
X122349791Y-73983668D01*
X122341692Y-74010011D01*
X122340296Y-74014178D01*
X122328018Y-74046678D01*
X122314287Y-74077588D01*
X122301819Y-74100725D01*
X122279412Y-74131588D01*
X122233091Y-74179158D01*
X122178499Y-74219954D01*
X122119215Y-74251466D01*
X122058817Y-74271185D01*
X121995376Y-74280563D01*
X121915914Y-74280033D01*
X121838808Y-74265913D01*
X121765927Y-74238412D01*
X121754690Y-74232453D01*
X121720501Y-74209956D01*
X121684082Y-74180965D01*
X121649177Y-74148840D01*
X121619531Y-74116937D01*
X121598889Y-74088616D01*
X121595331Y-74082602D01*
X121588610Y-74070433D01*
X121585997Y-74060842D01*
X121588965Y-74052303D01*
X121598983Y-74043288D01*
X121617523Y-74032270D01*
X121646056Y-74017720D01*
X121686052Y-73998114D01*
X121718478Y-73982713D01*
X121745771Y-73971220D01*
X121762205Y-73966569D01*
X121768652Y-73968447D01*
X121781201Y-73992874D01*
X121802251Y-74020778D01*
X121826862Y-74045779D01*
X121850472Y-74062625D01*
X121876709Y-74072351D01*
X121916140Y-74078593D01*
X121956128Y-74077550D01*
X121990294Y-74068933D01*
X121995718Y-74066387D01*
X122026028Y-74044611D01*
X122054112Y-74012552D01*
X122076775Y-73973725D01*
X122077779Y-73971523D01*
X122084671Y-73954343D01*
X122089221Y-73936812D01*
X122091895Y-73915391D01*
X122093158Y-73886542D01*
X122093475Y-73846725D01*
X122093472Y-73841098D01*
X122093063Y-73802838D01*
X122091654Y-73775109D01*
X122088777Y-73754373D01*
X122083967Y-73737091D01*
X122076758Y-73719725D01*
X122073071Y-73711989D01*
X122047501Y-73670947D01*
X122017059Y-73642912D01*
X121980322Y-73626897D01*
X121935866Y-73621913D01*
X121919139Y-73622589D01*
X121880562Y-73630481D01*
X121847356Y-73648406D01*
X121817304Y-73677837D01*
X121788191Y-73720252D01*
X121788027Y-73720524D01*
X121783990Y-73724964D01*
X121777568Y-73726171D01*
X121766689Y-73723404D01*
X121749281Y-73715919D01*
X121723272Y-73702974D01*
X121686591Y-73683826D01*
X121671938Y-73676096D01*
X121640369Y-73659357D01*
X121614638Y-73645598D01*
X121597085Y-73636073D01*
X121590047Y-73632035D01*
X121587970Y-73625406D01*
X121593119Y-73609533D01*
X121605892Y-73587980D01*
X121624482Y-73563109D01*
X121647082Y-73537280D01*
X121671886Y-73512854D01*
X121697086Y-73492192D01*
X121735038Y-73468447D01*
X121800369Y-73440986D01*
X121873670Y-73424243D01*
X121953394Y-73418661D01*
X121980757Y-73419359D01*
G36*
X117105214Y-73943264D02*
G01*
X117103295Y-74002425D01*
X117100424Y-74054976D01*
X117096601Y-74098294D01*
X117091827Y-74129754D01*
X117072703Y-74207717D01*
X117029030Y-74337687D01*
X116971634Y-74463124D01*
X116900630Y-74583789D01*
X116816135Y-74699439D01*
X116804126Y-74714040D01*
X116763378Y-74760334D01*
X116718457Y-74807347D01*
X116671950Y-74852623D01*
X116626444Y-74893702D01*
X116584527Y-74928127D01*
X116548786Y-74953439D01*
X116545576Y-74955517D01*
X116530753Y-74965467D01*
X116508895Y-74980382D01*
X116483477Y-74997897D01*
X116403454Y-75047446D01*
X116309938Y-75094405D01*
X116209406Y-75135327D01*
X116105504Y-75168733D01*
X116001875Y-75193146D01*
X115991454Y-75194780D01*
X115958695Y-75197842D01*
X115915307Y-75200036D01*
X115863804Y-75201397D01*
X115806698Y-75201955D01*
X115746504Y-75201744D01*
X115685735Y-75200796D01*
X115626903Y-75199144D01*
X115572522Y-75196820D01*
X115525105Y-75193857D01*
X115487166Y-75190287D01*
X115461218Y-75186144D01*
X115338691Y-75151141D01*
X115215163Y-75102794D01*
X115093196Y-75042163D01*
X114974990Y-74970227D01*
X114912447Y-74926848D01*
X114858468Y-74885449D01*
X114810402Y-74843496D01*
X114764540Y-74797749D01*
X114717175Y-74744968D01*
X114629888Y-74633987D01*
X114555795Y-74518893D01*
X114495602Y-74400361D01*
X114449130Y-74278039D01*
X114416200Y-74151578D01*
X114415135Y-74146276D01*
X114411180Y-74124530D01*
X114408071Y-74102492D01*
X114405708Y-74078130D01*
X114403995Y-74049412D01*
X114402833Y-74014307D01*
X114402125Y-73970783D01*
X114401771Y-73916809D01*
X114401675Y-73850354D01*
X114401677Y-73845940D01*
X114659603Y-73845940D01*
X114662489Y-73935516D01*
X114670069Y-74022700D01*
X114682156Y-74103652D01*
X114698565Y-74174531D01*
X114704228Y-74192895D01*
X114716380Y-74227865D01*
X114730772Y-74265705D01*
X114745734Y-74302243D01*
X114759597Y-74333307D01*
X114770691Y-74354725D01*
X114803292Y-74406539D01*
X114840387Y-74461115D01*
X114878549Y-74513433D01*
X114915789Y-74560864D01*
X114950115Y-74600779D01*
X114979538Y-74630551D01*
X114982535Y-74633250D01*
X115021295Y-74666408D01*
X115066565Y-74702615D01*
X115114071Y-74738624D01*
X115159541Y-74771190D01*
X115198703Y-74797066D01*
X115260011Y-74832421D01*
X115358743Y-74877947D01*
X115460076Y-74910462D01*
X115566447Y-74930851D01*
X115603497Y-74935443D01*
X115698004Y-74943316D01*
X115787803Y-74944365D01*
X115878694Y-74938517D01*
X115976475Y-74925699D01*
X116003239Y-74920885D01*
X116093480Y-74896888D01*
X116185157Y-74861473D01*
X116275119Y-74816170D01*
X116360218Y-74762506D01*
X116437304Y-74702011D01*
X116455202Y-74686617D01*
X116480305Y-74665912D01*
X116501076Y-74649708D01*
X116518431Y-74634980D01*
X116547328Y-74605345D01*
X116580267Y-74567153D01*
X116615491Y-74522794D01*
X116651239Y-74474659D01*
X116685750Y-74425139D01*
X116717266Y-74376624D01*
X116744026Y-74331505D01*
X116764271Y-74292173D01*
X116777085Y-74262937D01*
X116809777Y-74169940D01*
X116832661Y-74070771D01*
X116846082Y-73963633D01*
X116850390Y-73846725D01*
X116849636Y-73795924D01*
X116844032Y-73705681D01*
X116832284Y-73622121D01*
X116813588Y-73543076D01*
X116787138Y-73466382D01*
X116752130Y-73389871D01*
X116707758Y-73311378D01*
X116653219Y-73228736D01*
X116587705Y-73139778D01*
X116573414Y-73122931D01*
X116546330Y-73094827D01*
X116512185Y-73062083D01*
X116473551Y-73027021D01*
X116433003Y-72991963D01*
X116393115Y-72959233D01*
X116356462Y-72931151D01*
X116319095Y-72906286D01*
X116270388Y-72878013D01*
X116217049Y-72850236D01*
X116163832Y-72825425D01*
X116115493Y-72806048D01*
X116093142Y-72798610D01*
X116017810Y-72779685D01*
X115933226Y-72766117D01*
X115842586Y-72757936D01*
X115749086Y-72755175D01*
X115655923Y-72757866D01*
X115566293Y-72766041D01*
X115483393Y-72779732D01*
X115410418Y-72798971D01*
X115356260Y-72818691D01*
X115250568Y-72868392D01*
X115147446Y-72931943D01*
X115047561Y-73008957D01*
X115023559Y-73029931D01*
X114932921Y-73119686D01*
X114854660Y-73215353D01*
X114789152Y-73316297D01*
X114736772Y-73421879D01*
X114697897Y-73531461D01*
X114672902Y-73644407D01*
X114668655Y-73674970D01*
X114661596Y-73757811D01*
X114659603Y-73845940D01*
X114401677Y-73845940D01*
X114401680Y-73838283D01*
X114402025Y-73763837D01*
X114403102Y-73701309D01*
X114405176Y-73648442D01*
X114408508Y-73602977D01*
X114413363Y-73562658D01*
X114420003Y-73525225D01*
X114428691Y-73488421D01*
X114439691Y-73449988D01*
X114453265Y-73407668D01*
X114460149Y-73388050D01*
X114479684Y-73338637D01*
X114503703Y-73283759D01*
X114530022Y-73228111D01*
X114556461Y-73176389D01*
X114580835Y-73133288D01*
X114587887Y-73121960D01*
X114623351Y-73070539D01*
X114666533Y-73014731D01*
X114714904Y-72957343D01*
X114765937Y-72901182D01*
X114817101Y-72849055D01*
X114865871Y-72803769D01*
X114909717Y-72768131D01*
X114950953Y-72738424D01*
X115053220Y-72671198D01*
X115152378Y-72615886D01*
X115250454Y-72571530D01*
X115349477Y-72537170D01*
X115451472Y-72511846D01*
X115457346Y-72510671D01*
X115479697Y-72506597D01*
X115502011Y-72503402D01*
X115526365Y-72500982D01*
X115554839Y-72499235D01*
X115589511Y-72498057D01*
X115632460Y-72497343D01*
X115685764Y-72496991D01*
X115751504Y-72496897D01*
X115763131Y-72496901D01*
X115837354Y-72497254D01*
X115899663Y-72498367D01*
X115952331Y-72500515D01*
X115997627Y-72503976D01*
X116037825Y-72509025D01*
X116075195Y-72515940D01*
X116112010Y-72524996D01*
X116150540Y-72536471D01*
X116193058Y-72550640D01*
X116274314Y-72581204D01*
X116350588Y-72615818D01*
X116424141Y-72656021D01*
X116498722Y-72703866D01*
X116578080Y-72761405D01*
X116617128Y-72792355D01*
X116713802Y-72880766D01*
X116802737Y-72979374D01*
X116882803Y-73086417D01*
X116952874Y-73200133D01*
X117011821Y-73318759D01*
X117058514Y-73440535D01*
X117091827Y-73563697D01*
X117092013Y-73564583D01*
X117096753Y-73596510D01*
X117100542Y-73640201D01*
X117103379Y-73693033D01*
X117105265Y-73752380D01*
X117106200Y-73815617D01*
X117106191Y-73846725D01*
X117106183Y-73880120D01*
X117105214Y-73943264D01*
G37*
X117105214Y-73943264D02*
X117103295Y-74002425D01*
X117100424Y-74054976D01*
X117096601Y-74098294D01*
X117091827Y-74129754D01*
X117072703Y-74207717D01*
X117029030Y-74337687D01*
X116971634Y-74463124D01*
X116900630Y-74583789D01*
X116816135Y-74699439D01*
X116804126Y-74714040D01*
X116763378Y-74760334D01*
X116718457Y-74807347D01*
X116671950Y-74852623D01*
X116626444Y-74893702D01*
X116584527Y-74928127D01*
X116548786Y-74953439D01*
X116545576Y-74955517D01*
X116530753Y-74965467D01*
X116508895Y-74980382D01*
X116483477Y-74997897D01*
X116403454Y-75047446D01*
X116309938Y-75094405D01*
X116209406Y-75135327D01*
X116105504Y-75168733D01*
X116001875Y-75193146D01*
X115991454Y-75194780D01*
X115958695Y-75197842D01*
X115915307Y-75200036D01*
X115863804Y-75201397D01*
X115806698Y-75201955D01*
X115746504Y-75201744D01*
X115685735Y-75200796D01*
X115626903Y-75199144D01*
X115572522Y-75196820D01*
X115525105Y-75193857D01*
X115487166Y-75190287D01*
X115461218Y-75186144D01*
X115338691Y-75151141D01*
X115215163Y-75102794D01*
X115093196Y-75042163D01*
X114974990Y-74970227D01*
X114912447Y-74926848D01*
X114858468Y-74885449D01*
X114810402Y-74843496D01*
X114764540Y-74797749D01*
X114717175Y-74744968D01*
X114629888Y-74633987D01*
X114555795Y-74518893D01*
X114495602Y-74400361D01*
X114449130Y-74278039D01*
X114416200Y-74151578D01*
X114415135Y-74146276D01*
X114411180Y-74124530D01*
X114408071Y-74102492D01*
X114405708Y-74078130D01*
X114403995Y-74049412D01*
X114402833Y-74014307D01*
X114402125Y-73970783D01*
X114401771Y-73916809D01*
X114401675Y-73850354D01*
X114401677Y-73845940D01*
X114659603Y-73845940D01*
X114662489Y-73935516D01*
X114670069Y-74022700D01*
X114682156Y-74103652D01*
X114698565Y-74174531D01*
X114704228Y-74192895D01*
X114716380Y-74227865D01*
X114730772Y-74265705D01*
X114745734Y-74302243D01*
X114759597Y-74333307D01*
X114770691Y-74354725D01*
X114803292Y-74406539D01*
X114840387Y-74461115D01*
X114878549Y-74513433D01*
X114915789Y-74560864D01*
X114950115Y-74600779D01*
X114979538Y-74630551D01*
X114982535Y-74633250D01*
X115021295Y-74666408D01*
X115066565Y-74702615D01*
X115114071Y-74738624D01*
X115159541Y-74771190D01*
X115198703Y-74797066D01*
X115260011Y-74832421D01*
X115358743Y-74877947D01*
X115460076Y-74910462D01*
X115566447Y-74930851D01*
X115603497Y-74935443D01*
X115698004Y-74943316D01*
X115787803Y-74944365D01*
X115878694Y-74938517D01*
X115976475Y-74925699D01*
X116003239Y-74920885D01*
X116093480Y-74896888D01*
X116185157Y-74861473D01*
X116275119Y-74816170D01*
X116360218Y-74762506D01*
X116437304Y-74702011D01*
X116455202Y-74686617D01*
X116480305Y-74665912D01*
X116501076Y-74649708D01*
X116518431Y-74634980D01*
X116547328Y-74605345D01*
X116580267Y-74567153D01*
X116615491Y-74522794D01*
X116651239Y-74474659D01*
X116685750Y-74425139D01*
X116717266Y-74376624D01*
X116744026Y-74331505D01*
X116764271Y-74292173D01*
X116777085Y-74262937D01*
X116809777Y-74169940D01*
X116832661Y-74070771D01*
X116846082Y-73963633D01*
X116850390Y-73846725D01*
X116849636Y-73795924D01*
X116844032Y-73705681D01*
X116832284Y-73622121D01*
X116813588Y-73543076D01*
X116787138Y-73466382D01*
X116752130Y-73389871D01*
X116707758Y-73311378D01*
X116653219Y-73228736D01*
X116587705Y-73139778D01*
X116573414Y-73122931D01*
X116546330Y-73094827D01*
X116512185Y-73062083D01*
X116473551Y-73027021D01*
X116433003Y-72991963D01*
X116393115Y-72959233D01*
X116356462Y-72931151D01*
X116319095Y-72906286D01*
X116270388Y-72878013D01*
X116217049Y-72850236D01*
X116163832Y-72825425D01*
X116115493Y-72806048D01*
X116093142Y-72798610D01*
X116017810Y-72779685D01*
X115933226Y-72766117D01*
X115842586Y-72757936D01*
X115749086Y-72755175D01*
X115655923Y-72757866D01*
X115566293Y-72766041D01*
X115483393Y-72779732D01*
X115410418Y-72798971D01*
X115356260Y-72818691D01*
X115250568Y-72868392D01*
X115147446Y-72931943D01*
X115047561Y-73008957D01*
X115023559Y-73029931D01*
X114932921Y-73119686D01*
X114854660Y-73215353D01*
X114789152Y-73316297D01*
X114736772Y-73421879D01*
X114697897Y-73531461D01*
X114672902Y-73644407D01*
X114668655Y-73674970D01*
X114661596Y-73757811D01*
X114659603Y-73845940D01*
X114401677Y-73845940D01*
X114401680Y-73838283D01*
X114402025Y-73763837D01*
X114403102Y-73701309D01*
X114405176Y-73648442D01*
X114408508Y-73602977D01*
X114413363Y-73562658D01*
X114420003Y-73525225D01*
X114428691Y-73488421D01*
X114439691Y-73449988D01*
X114453265Y-73407668D01*
X114460149Y-73388050D01*
X114479684Y-73338637D01*
X114503703Y-73283759D01*
X114530022Y-73228111D01*
X114556461Y-73176389D01*
X114580835Y-73133288D01*
X114587887Y-73121960D01*
X114623351Y-73070539D01*
X114666533Y-73014731D01*
X114714904Y-72957343D01*
X114765937Y-72901182D01*
X114817101Y-72849055D01*
X114865871Y-72803769D01*
X114909717Y-72768131D01*
X114950953Y-72738424D01*
X115053220Y-72671198D01*
X115152378Y-72615886D01*
X115250454Y-72571530D01*
X115349477Y-72537170D01*
X115451472Y-72511846D01*
X115457346Y-72510671D01*
X115479697Y-72506597D01*
X115502011Y-72503402D01*
X115526365Y-72500982D01*
X115554839Y-72499235D01*
X115589511Y-72498057D01*
X115632460Y-72497343D01*
X115685764Y-72496991D01*
X115751504Y-72496897D01*
X115763131Y-72496901D01*
X115837354Y-72497254D01*
X115899663Y-72498367D01*
X115952331Y-72500515D01*
X115997627Y-72503976D01*
X116037825Y-72509025D01*
X116075195Y-72515940D01*
X116112010Y-72524996D01*
X116150540Y-72536471D01*
X116193058Y-72550640D01*
X116274314Y-72581204D01*
X116350588Y-72615818D01*
X116424141Y-72656021D01*
X116498722Y-72703866D01*
X116578080Y-72761405D01*
X116617128Y-72792355D01*
X116713802Y-72880766D01*
X116802737Y-72979374D01*
X116882803Y-73086417D01*
X116952874Y-73200133D01*
X117011821Y-73318759D01*
X117058514Y-73440535D01*
X117091827Y-73563697D01*
X117092013Y-73564583D01*
X117096753Y-73596510D01*
X117100542Y-73640201D01*
X117103379Y-73693033D01*
X117105265Y-73752380D01*
X117106200Y-73815617D01*
X117106191Y-73846725D01*
X117106183Y-73880120D01*
X117105214Y-73943264D01*
G36*
X120026687Y-73912918D02*
G01*
X120024790Y-73971217D01*
X120022245Y-74025365D01*
X120019103Y-74072773D01*
X120015416Y-74110851D01*
X120011237Y-74137011D01*
X119992839Y-74208727D01*
X119947547Y-74341166D01*
X119888991Y-74468170D01*
X119817536Y-74589083D01*
X119733546Y-74703249D01*
X119637386Y-74810010D01*
X119631671Y-74815707D01*
X119606498Y-74839807D01*
X119578437Y-74865448D01*
X119549734Y-74890717D01*
X119522631Y-74913701D01*
X119499374Y-74932487D01*
X119482208Y-74945161D01*
X119473375Y-74949811D01*
X119468123Y-74952082D01*
X119453802Y-74960934D01*
X119434705Y-74974184D01*
X119414201Y-74988630D01*
X119325699Y-75043330D01*
X119228470Y-75092817D01*
X119126632Y-75135324D01*
X119024304Y-75169087D01*
X118925604Y-75192342D01*
X118914575Y-75194066D01*
X118876905Y-75197716D01*
X118824814Y-75200427D01*
X118758345Y-75202197D01*
X118677544Y-75203026D01*
X118675876Y-75203032D01*
X118601180Y-75202867D01*
X118538173Y-75201509D01*
X118484110Y-75198609D01*
X118436245Y-75193815D01*
X118391833Y-75186778D01*
X118348128Y-75177146D01*
X118302386Y-75164571D01*
X118251861Y-75148701D01*
X118228023Y-75140567D01*
X118123715Y-75097889D01*
X118018311Y-75044054D01*
X117914927Y-74981080D01*
X117816675Y-74910984D01*
X117726671Y-74835783D01*
X117648027Y-74757497D01*
X117563576Y-74655682D01*
X117489160Y-74545542D01*
X117427315Y-74429309D01*
X117377343Y-74305666D01*
X117338548Y-74173297D01*
X117335956Y-74162515D01*
X117331010Y-74140298D01*
X117327122Y-74118980D01*
X117324121Y-74096358D01*
X117321840Y-74070231D01*
X117320109Y-74038398D01*
X117318758Y-73998656D01*
X117317619Y-73948804D01*
X117316522Y-73886639D01*
X117316432Y-73880119D01*
X117579386Y-73880119D01*
X117580006Y-73934834D01*
X117581779Y-73984010D01*
X117584772Y-74024525D01*
X117585056Y-74027200D01*
X117595505Y-74090371D01*
X117613114Y-74160166D01*
X117636358Y-74231854D01*
X117663710Y-74300703D01*
X117693643Y-74361982D01*
X117734603Y-74430293D01*
X117808536Y-74530539D01*
X117894841Y-74623527D01*
X117993190Y-74708879D01*
X118056519Y-74756105D01*
X118141857Y-74811751D01*
X118225212Y-74855962D01*
X118308913Y-74889783D01*
X118395291Y-74914261D01*
X118486675Y-74930442D01*
X118549781Y-74938020D01*
X118612718Y-74943473D01*
X118670248Y-74945505D01*
X118727011Y-74944126D01*
X118787645Y-74939345D01*
X118856790Y-74931171D01*
X118902479Y-74924215D01*
X118979880Y-74906871D01*
X119053330Y-74882075D01*
X119129239Y-74847869D01*
X119200347Y-74809352D01*
X119307256Y-74738874D01*
X119405334Y-74658192D01*
X119493739Y-74568295D01*
X119571632Y-74470169D01*
X119638174Y-74364805D01*
X119692525Y-74253189D01*
X119733846Y-74136310D01*
X119742860Y-74101520D01*
X119757754Y-74017960D01*
X119766112Y-73926960D01*
X119767932Y-73832304D01*
X119763214Y-73737779D01*
X119751953Y-73647168D01*
X119734149Y-73564258D01*
X119731027Y-73553163D01*
X119708351Y-73486665D01*
X119678198Y-73415069D01*
X119642766Y-73342911D01*
X119604255Y-73274725D01*
X119564862Y-73215047D01*
X119503548Y-73137758D01*
X119419389Y-73049793D01*
X119327109Y-72970685D01*
X119228561Y-72901845D01*
X119125599Y-72844682D01*
X119020075Y-72800607D01*
X118989779Y-72791087D01*
X118916157Y-72774414D01*
X118833506Y-72762920D01*
X118744914Y-72756598D01*
X118653471Y-72755440D01*
X118562265Y-72759438D01*
X118474386Y-72768586D01*
X118392923Y-72782875D01*
X118320965Y-72802299D01*
X118256263Y-72826382D01*
X118149506Y-72877897D01*
X118048535Y-72941428D01*
X117954414Y-73015774D01*
X117868210Y-73099734D01*
X117790989Y-73192110D01*
X117723816Y-73291700D01*
X117667757Y-73397304D01*
X117623880Y-73507722D01*
X117593248Y-73621754D01*
X117591297Y-73632792D01*
X117587133Y-73668346D01*
X117583794Y-73713980D01*
X117581346Y-73766569D01*
X117579855Y-73822989D01*
X117579386Y-73880119D01*
X117316432Y-73880119D01*
X117315648Y-73823046D01*
X117315395Y-73760543D01*
X117316177Y-73707988D01*
X117318218Y-73662933D01*
X117321741Y-73622931D01*
X117326970Y-73585534D01*
X117334129Y-73548295D01*
X117343442Y-73508765D01*
X117355133Y-73464497D01*
X117370053Y-73415494D01*
X117398274Y-73339416D01*
X117432323Y-73261879D01*
X117470284Y-73186847D01*
X117510246Y-73118285D01*
X117550294Y-73060156D01*
X117559764Y-73047739D01*
X117581595Y-73018951D01*
X117601755Y-72992196D01*
X117617519Y-72972458D01*
X117650190Y-72935712D01*
X117689607Y-72894883D01*
X117732797Y-72852832D01*
X117776791Y-72812421D01*
X117818616Y-72776511D01*
X117855304Y-72747965D01*
X117920350Y-72702740D01*
X118004679Y-72650144D01*
X118086475Y-72606801D01*
X118168912Y-72571071D01*
X118255165Y-72541312D01*
X118269821Y-72536862D01*
X118307498Y-72525979D01*
X118341907Y-72517253D01*
X118375272Y-72510451D01*
X118409815Y-72505341D01*
X118447759Y-72501689D01*
X118491324Y-72499263D01*
X118542734Y-72497829D01*
X118604211Y-72497156D01*
X118677977Y-72497010D01*
X118708725Y-72497053D01*
X118777628Y-72497488D01*
X118835163Y-72498605D01*
X118883588Y-72500669D01*
X118925157Y-72503947D01*
X118962126Y-72508705D01*
X118996752Y-72515208D01*
X119031290Y-72523723D01*
X119067995Y-72534515D01*
X119109124Y-72547851D01*
X119181011Y-72574736D01*
X119281678Y-72621622D01*
X119380815Y-72677941D01*
X119475827Y-72741907D01*
X119564120Y-72811732D01*
X119643097Y-72885628D01*
X119710164Y-72961809D01*
X119723459Y-72978666D01*
X119743606Y-73003929D01*
X119760133Y-73024322D01*
X119770391Y-73036556D01*
X119783322Y-73052529D01*
X119807603Y-73087319D01*
X119834848Y-73130887D01*
X119863476Y-73180372D01*
X119891908Y-73232913D01*
X119918563Y-73285650D01*
X119941863Y-73335722D01*
X119960226Y-73380270D01*
X119968190Y-73402812D01*
X119983779Y-73453809D01*
X119998807Y-73510927D01*
X120011888Y-73568723D01*
X120021638Y-73621754D01*
X120024604Y-73649771D01*
X120026737Y-73689991D01*
X120027959Y-73739004D01*
X120028323Y-73794222D01*
X120028037Y-73832304D01*
X120027882Y-73853057D01*
X120026687Y-73912918D01*
G37*
X120026687Y-73912918D02*
X120024790Y-73971217D01*
X120022245Y-74025365D01*
X120019103Y-74072773D01*
X120015416Y-74110851D01*
X120011237Y-74137011D01*
X119992839Y-74208727D01*
X119947547Y-74341166D01*
X119888991Y-74468170D01*
X119817536Y-74589083D01*
X119733546Y-74703249D01*
X119637386Y-74810010D01*
X119631671Y-74815707D01*
X119606498Y-74839807D01*
X119578437Y-74865448D01*
X119549734Y-74890717D01*
X119522631Y-74913701D01*
X119499374Y-74932487D01*
X119482208Y-74945161D01*
X119473375Y-74949811D01*
X119468123Y-74952082D01*
X119453802Y-74960934D01*
X119434705Y-74974184D01*
X119414201Y-74988630D01*
X119325699Y-75043330D01*
X119228470Y-75092817D01*
X119126632Y-75135324D01*
X119024304Y-75169087D01*
X118925604Y-75192342D01*
X118914575Y-75194066D01*
X118876905Y-75197716D01*
X118824814Y-75200427D01*
X118758345Y-75202197D01*
X118677544Y-75203026D01*
X118675876Y-75203032D01*
X118601180Y-75202867D01*
X118538173Y-75201509D01*
X118484110Y-75198609D01*
X118436245Y-75193815D01*
X118391833Y-75186778D01*
X118348128Y-75177146D01*
X118302386Y-75164571D01*
X118251861Y-75148701D01*
X118228023Y-75140567D01*
X118123715Y-75097889D01*
X118018311Y-75044054D01*
X117914927Y-74981080D01*
X117816675Y-74910984D01*
X117726671Y-74835783D01*
X117648027Y-74757497D01*
X117563576Y-74655682D01*
X117489160Y-74545542D01*
X117427315Y-74429309D01*
X117377343Y-74305666D01*
X117338548Y-74173297D01*
X117335956Y-74162515D01*
X117331010Y-74140298D01*
X117327122Y-74118980D01*
X117324121Y-74096358D01*
X117321840Y-74070231D01*
X117320109Y-74038398D01*
X117318758Y-73998656D01*
X117317619Y-73948804D01*
X117316522Y-73886639D01*
X117316432Y-73880119D01*
X117579386Y-73880119D01*
X117580006Y-73934834D01*
X117581779Y-73984010D01*
X117584772Y-74024525D01*
X117585056Y-74027200D01*
X117595505Y-74090371D01*
X117613114Y-74160166D01*
X117636358Y-74231854D01*
X117663710Y-74300703D01*
X117693643Y-74361982D01*
X117734603Y-74430293D01*
X117808536Y-74530539D01*
X117894841Y-74623527D01*
X117993190Y-74708879D01*
X118056519Y-74756105D01*
X118141857Y-74811751D01*
X118225212Y-74855962D01*
X118308913Y-74889783D01*
X118395291Y-74914261D01*
X118486675Y-74930442D01*
X118549781Y-74938020D01*
X118612718Y-74943473D01*
X118670248Y-74945505D01*
X118727011Y-74944126D01*
X118787645Y-74939345D01*
X118856790Y-74931171D01*
X118902479Y-74924215D01*
X118979880Y-74906871D01*
X119053330Y-74882075D01*
X119129239Y-74847869D01*
X119200347Y-74809352D01*
X119307256Y-74738874D01*
X119405334Y-74658192D01*
X119493739Y-74568295D01*
X119571632Y-74470169D01*
X119638174Y-74364805D01*
X119692525Y-74253189D01*
X119733846Y-74136310D01*
X119742860Y-74101520D01*
X119757754Y-74017960D01*
X119766112Y-73926960D01*
X119767932Y-73832304D01*
X119763214Y-73737779D01*
X119751953Y-73647168D01*
X119734149Y-73564258D01*
X119731027Y-73553163D01*
X119708351Y-73486665D01*
X119678198Y-73415069D01*
X119642766Y-73342911D01*
X119604255Y-73274725D01*
X119564862Y-73215047D01*
X119503548Y-73137758D01*
X119419389Y-73049793D01*
X119327109Y-72970685D01*
X119228561Y-72901845D01*
X119125599Y-72844682D01*
X119020075Y-72800607D01*
X118989779Y-72791087D01*
X118916157Y-72774414D01*
X118833506Y-72762920D01*
X118744914Y-72756598D01*
X118653471Y-72755440D01*
X118562265Y-72759438D01*
X118474386Y-72768586D01*
X118392923Y-72782875D01*
X118320965Y-72802299D01*
X118256263Y-72826382D01*
X118149506Y-72877897D01*
X118048535Y-72941428D01*
X117954414Y-73015774D01*
X117868210Y-73099734D01*
X117790989Y-73192110D01*
X117723816Y-73291700D01*
X117667757Y-73397304D01*
X117623880Y-73507722D01*
X117593248Y-73621754D01*
X117591297Y-73632792D01*
X117587133Y-73668346D01*
X117583794Y-73713980D01*
X117581346Y-73766569D01*
X117579855Y-73822989D01*
X117579386Y-73880119D01*
X117316432Y-73880119D01*
X117315648Y-73823046D01*
X117315395Y-73760543D01*
X117316177Y-73707988D01*
X117318218Y-73662933D01*
X117321741Y-73622931D01*
X117326970Y-73585534D01*
X117334129Y-73548295D01*
X117343442Y-73508765D01*
X117355133Y-73464497D01*
X117370053Y-73415494D01*
X117398274Y-73339416D01*
X117432323Y-73261879D01*
X117470284Y-73186847D01*
X117510246Y-73118285D01*
X117550294Y-73060156D01*
X117559764Y-73047739D01*
X117581595Y-73018951D01*
X117601755Y-72992196D01*
X117617519Y-72972458D01*
X117650190Y-72935712D01*
X117689607Y-72894883D01*
X117732797Y-72852832D01*
X117776791Y-72812421D01*
X117818616Y-72776511D01*
X117855304Y-72747965D01*
X117920350Y-72702740D01*
X118004679Y-72650144D01*
X118086475Y-72606801D01*
X118168912Y-72571071D01*
X118255165Y-72541312D01*
X118269821Y-72536862D01*
X118307498Y-72525979D01*
X118341907Y-72517253D01*
X118375272Y-72510451D01*
X118409815Y-72505341D01*
X118447759Y-72501689D01*
X118491324Y-72499263D01*
X118542734Y-72497829D01*
X118604211Y-72497156D01*
X118677977Y-72497010D01*
X118708725Y-72497053D01*
X118777628Y-72497488D01*
X118835163Y-72498605D01*
X118883588Y-72500669D01*
X118925157Y-72503947D01*
X118962126Y-72508705D01*
X118996752Y-72515208D01*
X119031290Y-72523723D01*
X119067995Y-72534515D01*
X119109124Y-72547851D01*
X119181011Y-72574736D01*
X119281678Y-72621622D01*
X119380815Y-72677941D01*
X119475827Y-72741907D01*
X119564120Y-72811732D01*
X119643097Y-72885628D01*
X119710164Y-72961809D01*
X119723459Y-72978666D01*
X119743606Y-73003929D01*
X119760133Y-73024322D01*
X119770391Y-73036556D01*
X119783322Y-73052529D01*
X119807603Y-73087319D01*
X119834848Y-73130887D01*
X119863476Y-73180372D01*
X119891908Y-73232913D01*
X119918563Y-73285650D01*
X119941863Y-73335722D01*
X119960226Y-73380270D01*
X119968190Y-73402812D01*
X119983779Y-73453809D01*
X119998807Y-73510927D01*
X120011888Y-73568723D01*
X120021638Y-73621754D01*
X120024604Y-73649771D01*
X120026737Y-73689991D01*
X120027959Y-73739004D01*
X120028323Y-73794222D01*
X120028037Y-73832304D01*
X120027882Y-73853057D01*
X120026687Y-73912918D01*
D12*
X138040000Y-76390000D02*
X115940000Y-76390000D01*
X141240000Y-80890000D02*
X141240000Y-81970000D01*
X138040000Y-90990000D02*
X138040000Y-87890000D01*
X112740000Y-87890000D02*
X112740000Y-86810000D01*
X115940000Y-87890000D02*
X112740000Y-87890000D01*
X136640000Y-92390000D02*
X138040000Y-90990000D01*
X138040000Y-80890000D02*
X138040000Y-76390000D01*
X115940000Y-87890000D02*
X115940000Y-92390000D01*
X112740000Y-80890000D02*
X115940000Y-80890000D01*
X115940000Y-92390000D02*
X136640000Y-92390000D01*
X144389000Y-85025000D02*
X144389000Y-83755000D01*
X143754000Y-84390000D02*
X145024000Y-84390000D01*
X138040000Y-80890000D02*
X141240000Y-80890000D01*
X141240000Y-86810000D02*
X141240000Y-87890000D01*
X115940000Y-76390000D02*
X115940000Y-80890000D01*
X112740000Y-80890000D02*
X112740000Y-81970000D01*
X110226000Y-84390000D02*
X108956000Y-84390000D01*
X141240000Y-87890000D02*
X138040000Y-87890000D01*
D13*
X129430000Y-97450000D02*
X129430000Y-97450000D01*
X127180000Y-94750000D02*
X127180000Y-94750000D01*
D14*
X128710000Y-94040000D02*
X128710000Y-94040000D01*
D13*
X129430000Y-97450000D02*
X124430000Y-97450000D01*
X124430000Y-97450000D02*
X124430000Y-97450000D01*
X124430000Y-97450000D02*
X129430000Y-97450000D01*
X127180000Y-94750000D02*
X128180000Y-94750000D01*
D14*
X128710000Y-94040000D02*
X128710000Y-94040000D01*
D13*
X130080000Y-95850000D02*
X130080000Y-95850000D01*
X130080000Y-96350000D02*
X130080000Y-95850000D01*
X123780000Y-95850000D02*
X123780000Y-95850000D01*
D14*
X128610000Y-94040000D02*
X128610000Y-94040000D01*
D13*
X123780000Y-95850000D02*
X123780000Y-96350000D01*
X128180000Y-94750000D02*
X127180000Y-94750000D01*
X130080000Y-96350000D02*
X130080000Y-96350000D01*
X123780000Y-96350000D02*
X123780000Y-96350000D01*
X123780000Y-96350000D02*
X123780000Y-95850000D01*
X128180000Y-94750000D02*
X128180000Y-94750000D01*
X130080000Y-95850000D02*
X130080000Y-96350000D01*
D14*
X128710000Y-94040000D02*
G75*
G03*
X128610000Y-94040000I-50000J0D01*
G01*
X128610000Y-94040000D02*
G75*
G03*
X128710000Y-94040000I50000J0D01*
G01*
X128610000Y-94040000D02*
G75*
G03*
X128710000Y-94040000I50000J0D01*
G01*
%LPC*%
D15*
X111100000Y-75600000D03*
D16*
X125100000Y-86300000D03*
D17*
X125100000Y-83760000D03*
X127640000Y-86300000D03*
X127640000Y-83760000D03*
X130180000Y-86300000D03*
X130180000Y-83760000D03*
D18*
X141490000Y-84390000D03*
X112490000Y-84390000D03*
D19*
X125430000Y-96100000D03*
X128430000Y-96100000D03*
D20*
X129230000Y-93900000D03*
X126230000Y-93900000D03*
X124730000Y-93900000D03*
D21*
X122980000Y-97200000D03*
X122980000Y-95000000D03*
D22*
X130930000Y-95000000D03*
X130930000Y-97200000D03*
M02*
